<?xml version="1.0" encoding="utf-8"?>
<!-- Generator: Adobe Illustrator 24.1.1, SVG Export Plug-In . SVG Version: 6.00 Build 0)  -->
<svg version="1.1" id="Layer_2" xmlns="http://www.w3.org/2000/svg" xmlns:xlink="http://www.w3.org/1999/xlink" x="0px" y="0px"
	 viewBox="0 0 1920 1080" style="enable-background:new 0 0 1920 1080;" xml:space="preserve">
<style type="text/css">
	.st0{fill:#6B28D8;}
	.st1{fill:#8833FE;}
	.st2{fill:#4D19A2;}
	.st3{fill:#DBFF00;}
	.st4{fill:#FD5CA4;}
	.st5{fill:#01FEA1;}
	.st6{fill:#47EAFE;}
	.st7{fill:none;stroke:#47EAFE;stroke-width:17.8068;stroke-linecap:round;stroke-miterlimit:10;}
	.st8{fill:none;stroke:#FD5CA4;stroke-width:7;stroke-linecap:round;stroke-linejoin:round;stroke-miterlimit:10;}
	.st9{fill:none;stroke:#FFFF00;stroke-width:23.1658;stroke-miterlimit:10;}
	.st10{fill:none;stroke:#47EAFE;stroke-width:14.0717;stroke-linecap:round;stroke-miterlimit:10;}
	.st11{fill:#F1BE46;}
	.st12{fill:none;stroke:#FFD88C;stroke-width:4.0253;stroke-linecap:round;stroke-linejoin:round;}
	.st13{fill:#C38685;}
	.st14{fill:#DAA09D;}
	.st15{fill:#E1A839;}
	.st16{fill:#43549A;}
	.st17{fill:#35428B;}
	.st18{fill:#E9AF3D;}
	.st19{fill:#D5E4EC;}
	.st20{fill:#FDC6A2;}
	.st21{fill:#D98A77;}
	.st22{fill:#F8B894;}
	.st23{fill:#F1AE8B;}
	.st24{fill:#DAE5F2;}
	.st25{fill:#C4D7E9;}
	.st26{opacity:0.2;fill:#E89E85;enable-background:new    ;}
	.st27{fill:#FFFFFF;}
	.st28{fill:#E99F86;}
	
		.st29{opacity:0.77;fill:none;stroke:#FFFFFF;stroke-width:4.0253;stroke-linecap:round;stroke-linejoin:round;enable-background:new    ;}
	.st30{fill:#FFB29C;}
	.st31{opacity:0.45;fill:#E48C7C;enable-background:new    ;}
	.st32{fill:#D27E72;}
	.st33{fill:#E48C7C;}
	.st34{opacity:0.72;fill:#FFFFFF;enable-background:new    ;}
	.st35{opacity:0.42;fill:#FFFFFF;enable-background:new    ;}
	.st36{fill:none;stroke:#BE8116;stroke-width:4.0253;stroke-linecap:round;stroke-linejoin:round;}
	.st37{fill:#253246;}
	.st38{opacity:0.44;fill:#FFFFFF;enable-background:new    ;}
	.st39{opacity:0.67;fill:#FFFFFF;enable-background:new    ;}
	.st40{opacity:0.47;fill:#FFFFFF;enable-background:new    ;}
	.st41{fill:#F3CDC8;}
	.st42{fill:#E4B4B0;}
	.st43{fill:#CD9190;}
	.st44{opacity:0.4;fill:#FFFFFF;enable-background:new    ;}
	.st45{opacity:0.34;fill:#FFFFFF;enable-background:new    ;}
	.st46{opacity:0.2;fill:#FFF4F9;enable-background:new    ;}
	.st47{opacity:0.49;fill:#FFF4F9;enable-background:new    ;}
	.st48{fill:#FFD88C;}
	.st49{fill:none;stroke:#FF9FC7;stroke-width:4.0253;stroke-miterlimit:10;}
	.st50{fill:#61DAFB;}
	.st51{fill:#F2CCC7;enable-background:new    ;}
	.st52{fill:#ECC0BD;enable-background:new    ;}
	.st53{fill:#539E43;}
	.st54{fill:none;}
	.st55{fill:#5D87A1;}
	.st56{fill:#F8981D;}
	.st57{fill-rule:evenodd;clip-rule:evenodd;fill:#8E714E;}
	.st58{fill-rule:evenodd;clip-rule:evenodd;fill:#442D22;}
	.st59{fill-rule:evenodd;clip-rule:evenodd;fill:#FFFFFF;}
	.st60{fill-rule:evenodd;clip-rule:evenodd;fill:#A6A385;}
	.st61{fill-rule:evenodd;clip-rule:evenodd;fill:#499D4A;}
	.st62{fill-rule:evenodd;clip-rule:evenodd;fill:#58AA50;}
	.st63{fill:#343434;}
	.st64{fill:#E535AB;}
	.st65{fill:#3F5C6C;}
	.st66{fill:#B0D3F0;}
	.st67{fill:#ECF0F1;}
	.st68{fill:#3B97D3;}
</style>
<rect x="-554" y="540" class="st0" width="146" height="146"/>
<rect x="-554" y="686" class="st1" width="146" height="146"/>
<rect x="-554" y="832" class="st2" width="146" height="146"/>
<rect x="-257" y="580" class="st3" width="82" height="82"/>
<rect x="-257" y="662" class="st4" width="82" height="82"/>
<rect x="-257" y="744" class="st5" width="82" height="82"/>
<rect x="-257" y="832" class="st6" width="82" height="82"/>
<g>
	<g>
		<rect class="st0" width="1378" height="1080"/>
		<path class="st2" d="M1919.5,0.5L748,1080h1171.5C1919.5,1080,1919.5,1,1919.5,0.5z"/>
		<polygon class="st1" points="972,0.5 1367.1,511 1920,1 		"/>
	</g>
	
		<rect x="273.1" y="936.4" transform="matrix(0.9363 0.3511 -0.3511 0.9363 361.6977 -45.5244)" class="st7" width="66.5" height="76.3"/>
	<path class="st8" d="M69.4,470.1c1.1-6.4,6-11.9,12.1-14.3s13-2.1,19.1,0.3c6.1,2.4,11.3,6.7,15.5,11.7c0.3-7.7,0.6-15.6,3-22.9
		c2.5-7.3,7.4-14.2,14.6-17.1c8.2-3.3,18.4-0.4,23.6,6.6"/>
	<polyline class="st9" points="716.1,-9.1 687.5,84.5 821,-13 	"/>
	<circle class="st10" cx="1699" cy="519" r="81"/>
	<g>
		<g>
			<g id="Layer_1-2">
				<path class="st11" d="M1205.7,1029.8c0,6.8-0.7,14.1-4.8,19.4c-5.4,7-14.9,7.8-23.4,8.3l-74.5,2.9c-13.3,1-26.7,0.5-39.9-1.6
					c-13.3-2.2-25.5-9-34.7-19.4c-5.6-7.3-9.6-15.8-11.7-24.9c-3.1-11.7-3.7-24-1.8-35.9c6.7-40.6,46.2-69.7,84.2-59.8
					c16.4,4.2,30.1,14.7,45,22.6c16,8.3,32.7,2.7,47.7,10.2l7.1,3.5C1204,979.6,1206.3,1004.7,1205.7,1029.8z"/>
				<path class="st12" d="M1019.9,965.7c12.6-32.6,46.8-54,80.3-45.1"/>
				<path class="st13" d="M1875.6,868.6h-12.9l0.3-24.4c0.1-7.2,5.6-13,12.4-13l0,0L1875.6,868.6z"/>
				<path class="st14" d="M1780.4,848h98.9c3.2,0,5.8,2.8,5.8,6.2v13.7l0,0h-110.6l0,0v-13.7C1774.6,850.8,1777.2,848,1780.4,848z"
					/>
				<path class="st11" d="M1218.1,903.4c-2.2-1.6-39.5-25.8-74.1-24.2c0,0,22,47.6,19,81.5"/>
				<path class="st15" d="M1197.1,925l-7.3,7.6l-26.8,28c2-23.6-8-54-14.3-70c-2.4-6.3-4.3-10.5-4.7-11.3
					C1156.8,881.1,1183.5,889.4,1197.1,925z"/>
				<path class="st16" d="M1680.7,835.8L1680.7,835.8c-1.2,0.6-2.6,1.1-3.9,1.5l-0.7,0.2c-26.3,6.9-136.7,13.4-157.7,13.5h-0.6
					c-16.6,0-89-4.2-131.7-9.3l-4.3-0.3c-5.8-0.7-11-1.5-15.2-2.3c-2.4-0.4-4.5-0.9-6.2-1.3l-1.1-0.3l0,0c-3.9-1.1-5.7-2.2-4.5-3.3
					l0,0c0.3-0.3,0.7-0.5,1.1-0.6c2.9-1.2,5.6-2.9,8.1-4.9l0,0c1.8-1.4,3.4-2.9,5-4.7c0.1-0.1,0.3-0.2,0.4-0.4
					c1.1-1.2,2.2-2.6,3.1-3.9c0.2-0.2,0.3-0.3,0.4-0.5l0,0c5.7-9,9.6-19.2,11.7-29.8c2.2-9.2,3.9-18.6,7.1-27.5
					c2-6.3,4.8-12.2,8.4-17.6c1.1-1.6,2.3-3.1,3.5-4.6c0.7-0.8,1.4-1.6,2.2-2.4c5.4-5.3,11.5-9.9,18-13.5c2.4-1.3,4.8-2.6,7.3-3.7
					c12.7-5.6,26-9.5,39.5-11.5c3.9-0.6,7.4-1.1,11.2-1.6c11.7-1.5,23.9-2.4,36-2.7h0.6c15.8,0.3,31.6,1.7,47.2,4.2
					c16.3,2.3,32.1,7.4,46.8,15.3l0,0c1.6,0.9,3.2,1.9,4.7,2.9c2.3,1.5,4.6,3.1,6.7,4.8c2.3,1.8,4.4,3.7,6.5,5.7
					c7.1,7.5,12.3,16.8,15.1,27c2.3,7.3,3.9,15,5.7,22.5c2,11.4,6.2,22.3,12.1,32c1.1,1.6,2.2,3.1,3.5,4.4c1.6,1.9,3.4,3.6,5.4,5.1
					c1.3,1,2.6,1.8,3.9,2.7c1.3,0.8,2.7,1.5,4.1,2.1l0.7,0.3C1682,834.4,1681.9,835.1,1680.7,835.8z"/>
				<path class="st17" d="M1676.5,837.2c-17.2,3.5-34.5,5.9-51.9,7c9-49.9-2.6-94.6-12.2-120.5c6.4,3.6,12.4,8.1,17.7,13.3
					c25,24.9,14.5,69.6,41.7,91.2c2.5,2,5.2,3.6,8.1,4.9C1682.9,834.6,1681.4,835.9,1676.5,837.2z"/>
				<path class="st17" d="M1359.6,836.8c17.2,3.5,34.5,5.9,52,7c-9-49.9,2.6-94.6,12.2-120.5c-6.4,3.6-12.4,8.1-17.7,13.3
					c-25,24.9-14.5,69.6-41.7,91.2c-2.5,2.1-5.2,3.9-8.1,5.2C1353.1,834.2,1354.8,835.5,1359.6,836.8z"/>
				<ellipse class="st17" cx="1419.3" cy="798.7" rx="5.5" ry="5.9"/>
				<ellipse class="st17" cx="1421.9" cy="787.4" rx="2.5" ry="2.6"/>
				<ellipse class="st17" cx="1429.9" cy="797.7" rx="2.2" ry="2.3"/>
				<ellipse class="st17" cx="1432.4" cy="787.2" rx="3.9" ry="4.2"/>
				<ellipse class="st17" cx="1428.4" cy="809.4" rx="3.9" ry="4.1"/>
				<path class="st11" d="M1297.9,954.8l-55.6-42.8c5-8.2,11.3-15.5,18.6-21.4c9.2-7.7,19.5-13.8,30.6-17.9c5.9-2.2,12-3.9,18.2-5.1
					C1309.7,867.6,1295,931.4,1297.9,954.8z"/>
				<path class="st15" d="M1309.6,867.5c0,0-31.2,20.8-32.8,45.7l17,40.4l2.7-1.2C1296.6,952.4,1307.4,874.6,1309.6,867.5z"/>
				<path class="st18" d="M1110.6,1053.9c0-19.4,14.2-35.3,32.4-36.3l120.4-6.6c22.2,0,40.2,19.2,40.2,42.9l0,0L1110.6,1053.9
					L1110.6,1053.9z"/>
				<path class="st19" d="M1354.6,833.8c3.6-1.5,6.9-3.7,9.9-6.4c-1.5,3.7-3.4,7.3-5.6,10.6C1353.3,836.6,1351.4,835.2,1354.6,833.8
					z"/>
				<path class="st19" d="M1676.1,837.8c-1.8-2.8-3.4-5.8-4.7-8.8c2.5,2,5.2,3.6,8.1,4.9C1682.4,835.1,1680.9,836.4,1676.1,837.8z"
					/>
				<path d="M1439.9,493.2c-47.2-51.5-33-126.4-33-126.4l28.5,15.8c0,0-22-60.6,21.4-97.7c0,0-8.8,27.5,11,42.1
					c0,0,7.8-52.1,51.6-59.1c0,0-5.5,32.7,7.1,43.9c0,0,57.1-57.3,166.9-17c0,0-18.7,25.7-35.7,38c20.2-0.4,40.4,2.4,59.8,8.3
					c-44.7,10.3-91.9,35.2-113.5,79.9c-7.3,14.1-12.2,29.4-14.4,45.3"/>
				<path class="st20" d="M1542.8,703.1c0.8,2.9,0.1,6-1.8,8.3c-5.6,6.9-13.5,11.2-22.1,11.9h-0.3c-8.6-0.7-16.5-5-22.1-11.9
					c-1.9-2.3-2.5-5.4-1.8-8.3c5.2-22.1,3.3-68.2,3.3-68.2l20.6-7.4h0.3l20.6,7.4C1539.6,634.8,1537.6,681,1542.8,703.1z"/>
				<path d="M1622.2,366.3c0,6.5,14.8,77.2-26.9,111.1V366.3C1595.2,366.3,1622.2,365.7,1622.2,366.3z"/>
				<ellipse class="st20" cx="1438.9" cy="503.1" rx="29.4" ry="31.3"/>
				<ellipse class="st20" cx="1595.6" cy="502.2" rx="29.4" ry="31.3"/>
				<ellipse class="st21" cx="1437.6" cy="504.5" rx="13.6" ry="14.5"/>
				<ellipse class="st21" cx="1600.5" cy="502.1" rx="13.9" ry="14.8"/>
				<path class="st20" d="M1602.1,614.3c-19.2,21.1-57.7,64.4-84,64.4c0,0,0-0.5-0.2-1.5v1.5c-26.4,0-64.8-43.3-84-64.4
					c-14.6-16-7.6-36.6-2.5-55.3c3.7-13.1,5.9-26.5,6.8-40.1c1.4-25.9-1.2-51.2,1.8-77.2c6.1-53.3,69.2-51.3,78-50.8
					c8.9-0.5,71.9-2.5,78,50.8c4.7,40.6-2.8,81.8,9.4,121.3C1610.8,580.3,1615.8,599.3,1602.1,614.3z"/>
				<path class="st22" d="M1594.4,432.9c-20.1-29.8-68.4-28.4-76.4-28c-7.8-0.5-56.3-1.9-76.4,27.9c11.7-44.2,68-42.4,76.4-41.9
					C1526.3,390.4,1582.7,388.5,1594.4,432.9z"/>
				<path d="M1597.9,458.6v4.2c0-7.1-0.5-14.1-1.7-21.1c-6.1-53.3-69.2-51.3-78-50.8c-8.9-0.5-71.9-2.5-78,50.8
					c-1,8.5-1.6,17.1-1.7,25.8c-0.4-14.3,0.1-28.7,1.4-43c2.3-20.2,14.2-33.9,29.8-41.9c5.7-10.8,13.7-20.1,23.4-27.1
					c-3.6,6-5.4,12.9-5.1,20c4.8-9.8,12.3-17.9,21.4-23.1l-2.5,8.8c-1.3,4-2.2,8.2-2.7,12.5c9.6-0.7,19.3-0.7,29,0.2
					c10.5,0.7,20.7,3.2,30.5,7.4c17.5,6.9,29.9,23.6,32.2,43.3C1597.5,435.9,1598.1,447.2,1597.9,458.6z"/>
				<path class="st23" d="M1540.3,682.7c-20.3,2-34-2.5-42.5-7.4c0-1,0-1.9,0-2.9c6.1,3.7,12.9,5.8,19.8,6.1V677
					c0,1,0.2,1.5,0.2,1.5c5.8-0.2,11.6-1.8,16.8-4.6c1.6-0.8,3.2-1.6,4.8-2.5c0,1.1,0,2.2,0,3.4
					C1539.9,677.5,1540.3,680.2,1540.3,682.7z"/>
				<path class="st24" d="M1687.2,847.1v201.2h-339.5V847.1c0-10.9,5.8-20.8,15-25.5c3.1-1.7,6.6-2.6,10.1-2.8l0,0c0.5,0,1,0,1.4,0
					h286.2c0.8-0.1,1.6-0.1,2.4,0l0,0c3.3,0.3,6.6,1.3,9.6,3C1681.5,826.6,1687.2,836.4,1687.2,847.1z"/>
				<path class="st25" d="M1687.2,965.3v93.9h-339.5v-77.1C1418.9,1004.3,1551.2,1028.3,1687.2,965.3z"/>
				<ellipse cx="1541.8" cy="361.1" rx="5.6" ry="6"/>
				<ellipse cx="1556.6" cy="355.5" rx="3" ry="3.2"/>
				<ellipse cx="1547.4" cy="350.8" rx="3" ry="3.2"/>
				<ellipse cx="1625.5" cy="287.2" rx="5.1" ry="5.4"/>
				<path class="st26" d="M1610.9,594c-0.5,7.7-3.6,14.9-8.7,20.4c-19.2,21.1-57.7,64.4-84,64.4c0,0,0-0.5-0.2-1.5v1.5
					c-26.4,0-64.8-43.3-84-64.4c-5.1-5.4-8.2-12.7-8.6-20.4C1476.9,647.8,1559.3,647.8,1610.9,594L1610.9,594z"/>
				<path class="st27" d="M1555.2,572.7c4.6,0,8.3,4,8.3,8.9c0,0.7-0.1,1.4-0.3,2.1c-5.3,24.6-28.3,40-51.4,34.4
					c-16.1-3.9-28.6-17.3-32.3-34.4c-1.1-4.8,1.6-9.6,6.1-10.8c0.7-0.2,1.3-0.3,2-0.3H1555.2z"/>
				<ellipse class="st27" cx="1445.4" cy="457.6" rx="2.2" ry="2.3"/>
				<ellipse class="st27" cx="1454.2" cy="454.1" rx="1.9" ry="2"/>
				<path d="M1503.4,470.7c-0.9,3-3.9,4.6-6.7,3.6c0,0,0,0-0.1,0h-0.5c-19.5-8.3-30.4,1.9-30.8,2.4c-1,1-2.3,1.5-3.6,1.5h-0.3
					c-2.9-0.2-5.2-2.8-5.1-6c0,0,0,0,0,0c0.1-1.5,0.6-2.8,1.6-3.8c0.7-0.7,16.2-15.7,42.2-4.6
					C1502.8,464.7,1504.3,467.8,1503.4,470.7z"/>
				<path d="M1534.9,470.7c0.9,3,3.9,4.6,6.7,3.6c0,0,0,0,0.1,0h0.5c19.5-8.3,30.4,1.9,30.8,2.4c1,1,2.3,1.5,3.6,1.5h0.3
					c2.9-0.2,5.2-2.8,5.1-6c0,0,0,0,0,0c-0.1-1.5-0.7-2.8-1.7-3.8c-0.6-0.7-16.1-15.7-42.2-4.6
					C1535.5,464.7,1534.1,467.8,1534.9,470.7z"/>
				<path class="st28" d="M1519.1,513.7L1519.1,513.7c4.4,0,7.9,3.8,7.9,8.4v32.5c0,4.7-3.5,8.4-7.9,8.4l0,0c-4.4,0-7.9-3.8-7.9-8.4
					v-32.5C1511.2,517.5,1514.8,513.7,1519.1,513.7z"/>
				<ellipse cx="1482.4" cy="497.7" rx="10.6" ry="14.2"/>
				<ellipse cx="1553.4" cy="497.7" rx="10.6" ry="14.2"/>
				<path class="st29" d="M1440,473.6c0.8,19.1,0.6,38.2-0.8,57.2"/>
				<path class="st30" d="M1026.9,1049h880.4c6.6,0,11.9,6.5,11.9,14.5v0c0,8-5.3,14.5-11.9,14.5h-880.4c-6.6,0-11.9-6.5-11.9-14.5
					v0C1014.9,1055.5,1020.3,1049,1026.9,1049z"/>
				<path class="st31" d="M1907.2,1063.5c0,8-5.3,14.5-11.8,14.5h-868.8c-6.5,0-11.7-6.5-11.7-14.5l0,0c0-2.8,0.6-5.5,1.8-7.8
					c2.2,4.2,5.9,6.7,9.9,6.7h868.8c3.1,0,6.1-1.5,8.3-4.2c0.6-0.7,1.1-1.6,1.6-2.5C1906.6,1058.1,1907.2,1060.8,1907.2,1063.5z"/>
				<path class="st32" d="M1552.2,1068.3h117.2c2.2,0,4,1.9,4,4.3l0,0c0,2.4-1.8,4.3-4,4.3h-117.2c-2.2,0-4-1.9-4-4.3l0,0
					C1548.2,1070.2,1550,1068.3,1552.2,1068.3z"/>
				<path class="st32" d="M1688.3,1068.3h15.8c2.2,0,4,1.9,4,4.3l0,0c0,2.4-1.8,4.3-4,4.3h-15.8c-2.2,0-4-1.9-4-4.3l0,0
					C1684.3,1070.2,1686.1,1068.3,1688.3,1068.3z"/>
				<path class="st27" d="M1062.6,1048.8h117.2c2.2,0,4,1.9,4,4.3l0,0c0,2.4-1.8,4.3-4,4.3h-117.2c-2.2,0-4-1.9-4-4.3l0,0
					C1058.6,1050.7,1060.4,1048.8,1062.6,1048.8z"/>
				<path class="st27" d="M1198.8,1048.8h15.8c2.2,0,4,1.9,4,4.3l0,0c0,2.4-1.8,4.3-4,4.3h-15.8c-2.2,0-4-1.9-4-4.3l0,0
					C1194.7,1050.7,1196.5,1048.8,1198.8,1048.8z"/>
				<path class="st32" d="M1877.5,1068.3h13.7c1.9,0,3.5,1.9,3.5,4.3l0,0c0,2.4-1.6,4.3-3.5,4.3h-13.7c-1.9,0-3.5-1.9-3.5-4.3l0,0
					C1874,1070.2,1875.6,1068.3,1877.5,1068.3z"/>
				<ellipse class="st25" cx="1617.2" cy="979.6" rx="6" ry="6.4"/>
				<ellipse class="st25" cx="1457.2" cy="870.2" rx="22.5" ry="23.9"/>
				<ellipse class="st25" cx="1607" cy="963.6" rx="3.1" ry="3.3"/>
				<ellipse class="st25" cx="1606.4" cy="994.2" rx="7.5" ry="8"/>
				<ellipse class="st25" cx="1631.3" cy="974.3" rx="3.7" ry="3.9"/>
				<ellipse class="st25" cx="1636.6" cy="954.2" rx="8.6" ry="9.2"/>
				<path class="st27" d="M1446.7,827.1h-68.8v-8.3h76.6C1454.5,823.4,1451,827.1,1446.7,827.1z"/>
				<path class="st27" d="M1477.4,827.1h-6.2c-4.3,0-7.8-3.7-7.8-8.3h21.8C1485.2,823.4,1481.7,827.1,1477.4,827.1z"/>
				<ellipse class="st33" cx="1338.9" cy="1063.3" rx="5.8" ry="6.1"/>
				<ellipse class="st33" cx="1355.5" cy="1056.1" rx="2.1" ry="2.2"/>
				<ellipse class="st33" cx="1313.8" cy="1062.6" rx="5.6" ry="6"/>
				<ellipse class="st33" cx="1324.3" cy="1056" rx="1.6" ry="1.7"/>
				<ellipse class="st33" cx="1328.2" cy="1065.4" rx="2.5" ry="2.6"/>
				<ellipse class="st33" cx="1353.4" cy="1068.6" rx="3" ry="3.2"/>
				<ellipse class="st33" cx="1346.4" cy="1055.3" rx="1.8" ry="1.9"/>
				<ellipse class="st11" cx="1230.9" cy="963.7" rx="67.7" ry="68.9"/>
				<path class="st15" d="M1298.7,964.5c0,38.1-30.3,68.9-67.7,68.9s-67.7-30.9-67.7-68.9c0-1.6,0-3.1,0-4.7
					c2.7,35.9,31.9,64.4,67.7,64.4c35.8,0,65.2-28.5,67.5-64.4C1298.5,961.4,1298.7,962.9,1298.7,964.5z"/>
				<ellipse class="st27" cx="1377.9" cy="828.5" rx="9.2" ry="9.8"/>
				<ellipse class="st34" cx="1383.6" cy="843.4" rx="2.8" ry="3"/>
				<ellipse class="st35" cx="1378.4" cy="854.9" rx="4.6" ry="4.9"/>
				<ellipse class="st27" cx="1363.6" cy="837.6" rx="3.2" ry="3.4"/>
				<ellipse class="st27" cx="1372.9" cy="843.7" rx="1.5" ry="1.6"/>
				<line class="st36" x1="1187.4" y1="971.6" x2="1140.5" y2="959.9"/>
				<line class="st36" x1="1187.4" y1="988.8" x2="1136.6" y2="1004.6"/>
				<line class="st36" x1="1187.4" y1="980.2" x2="1155.6" y2="980.2"/>
				<line class="st36" x1="1270" y1="971.6" x2="1316.9" y2="959.9"/>
				<line class="st36" x1="1270" y1="988.8" x2="1320.8" y2="1004.6"/>
				<line class="st36" x1="1270" y1="980.2" x2="1301.8" y2="980.2"/>
				<path class="st27" d="M1208.2,922.1L1208.2,922.1c10.3,0,18.6,8.9,18.6,19.8v8.6c0,10.9-8.3,19.8-18.6,19.8h0
					c-10.3,0-18.6-8.9-18.6-19.8v-8.6C1189.7,930.9,1198,922.1,1208.2,922.1z"/>
				<ellipse class="st37" cx="1208.3" cy="947.1" rx="6.7" ry="7.2"/>
				<path class="st27" d="M1254.3,922.7L1254.3,922.7c10.4,0,18.9,9,18.9,20.1v8.8c0,11.1-8.4,20.1-18.8,20.1h0
					c-10.4,0-18.8-9-18.8-20.1v-8.8C1235.5,931.7,1243.9,922.7,1254.3,922.7z"/>
				<path class="st37" d="M1228.8,970.2c-1.4,0-2.6,1.2-2.7,2.8c0,0.7,0.2,1.4,0.7,1.9c1.4,2.8,4.8,3.9,7.5,2.4
					c0.9-0.5,1.7-1.4,2.2-2.4c0.9-1.2,0.8-2.9-0.3-3.9c-0.5-0.4-1-0.7-1.6-0.7H1228.8z"/>
				<path class="st38" d="M1226.7,894.6c-31.2,0.8-50.7,28.5-51.7,29.7l-1.2,1.7l3.1,2.5l1.2-1.7c0-0.2,19.5-27.3,48.6-28
					C1226.8,898.8,1226.6,894.6,1226.7,894.6z"/>
				<ellipse class="st27" cx="1220.4" cy="901.9" rx="3.7" ry="4"/>
				<ellipse class="st39" cx="1219" cy="908.6" rx="1.3" ry="1.4"/>
				<ellipse class="st40" cx="1220.4" cy="914.2" rx="1.9" ry="2"/>
				<ellipse class="st39" cx="1227.5" cy="907.1" rx="1.8" ry="2"/>
				<ellipse class="st27" cx="1228" cy="898.9" rx="2" ry="2.2"/>
				<path class="st41" d="M1888.6,869.2l-1.1,7.3h-115.2l-1.1-7.3c-0.3-2.1,1-4,2.9-4.4c0.2,0,0.4,0,0.6-0.1h110.6
					c1.9,0,3.5,1.7,3.5,3.7C1888.7,868.7,1888.7,868.9,1888.6,869.2z"/>
				<rect x="1763.4" y="856.6" class="st42" width="132.9" height="19.9"/>
				<rect x="1774.6" y="854.4" class="st43" width="110.6" height="2.2"/>
				<ellipse class="st43" cx="1785.2" cy="854" rx="2" ry="2.2"/>
				<ellipse class="st43" cx="1792.4" cy="851.5" rx="1.5" ry="1.6"/>
				<ellipse class="st43" cx="1787.9" cy="850.7" rx="1.1" ry="1.2"/>
				<path class="st42" d="M1781.4,849.9"/>
				<rect x="1772.3" y="856.5" class="st44" width="42.5" height="3.7"/>
				<ellipse class="st37" cx="1254.9" cy="947.1" rx="6.7" ry="7.2"/>
				<path class="st45" d="M1275.3,883.4c6-3.7,12.2-6.8,18.8-9.1l-2.5-1.7c-11.1,4.1-21.4,10.2-30.6,17.9l2.3,2.4
					c0,0,0.6-0.7,1.8-1.8c-0.2,0.5-0.3,1-0.3,1.5c-0.1,2.3,1.5,4.2,3.7,4.4c2.2,0.1,4-1.7,4.1-3.9s-1.5-4.2-3.7-4.4
					c-0.1,0-0.1,0-0.2,0c-0.2,0-0.5,0-0.7,0c1.4-1.2,3.2-2.5,5.3-3.9c0.1,0.7,0.7,1.1,1.3,1.1c0.7,0,1.3-0.6,1.4-1.4
					c0,0,0-0.1,0-0.1C1275.8,884,1275.6,883.6,1275.3,883.4z"/>
				<ellipse class="st27" cx="1275.5" cy="890.4" rx="1.2" ry="1.3"/>
				<path class="st46" d="M1480.2,714.9h-0.5c0.5,0.8,0.8,1.8,0.9,2.8c0.2,3-2,5.5-4.7,5.7s-5.2-2.1-5.3-5c0-0.7,0.1-1.4,0.3-2
					c-12.1,2.2-24,5.7-35.4,10.3c-0.4,0.2-0.9,0.3-1.4,0.2c-2.2,0-3.9-1.9-3.9-4.2c0-0.9,0.3-1.8,0.8-2.5c12.7-5.6,26-9.5,39.5-11.5
					c3.9-0.6,7.4-1.1,11.2-1.6c1.1,0.6,1.8,1.8,2,3.2C1483.9,712.4,1482.4,714.5,1480.2,714.9
					C1480.2,714.9,1480.2,714.9,1480.2,714.9z"/>
				<ellipse class="st47" cx="1463" cy="735.6" rx="2.6" ry="2.7"/>
				<ellipse class="st47" cx="1475.8" cy="742.8" rx="2.2" ry="2.3"/>
				<ellipse class="st47" cx="1482" cy="734.2" rx="4.2" ry="4.5"/>
				<ellipse class="st47" cx="1471.7" cy="730.7" rx="2.6" ry="2.7"/>
				<ellipse class="st47" cx="1491" cy="724.1" rx="3.4" ry="3.6"/>
				<ellipse class="st48" cx="1050.3" cy="940.4" rx="8.8" ry="9.4"/>
				<ellipse class="st48" cx="1064.5" cy="927.6" rx="3.8" ry="4"/>
				<ellipse class="st48" cx="1065.2" cy="944.8" rx="3.2" ry="3.4"/>
				<ellipse class="st48" cx="1082.7" cy="922.3" rx="2.8" ry="3"/>
				<ellipse class="st48" cx="1075.5" cy="932.2" rx="3.4" ry="3.7"/>
				<ellipse class="st48" cx="1086.4" cy="931.2" rx="4.1" ry="4.4"/>
				<ellipse class="st27" cx="1515.8" cy="939.5" rx="42.5" ry="45.3"/>
				<ellipse class="st25" cx="1396.1" cy="913.9" rx="22.5" ry="23.9"/>
				<ellipse class="st25" cx="1414.1" cy="965.5" rx="22.5" ry="23.9"/>
				<ellipse class="st25" cx="1607.4" cy="872.3" rx="22.5" ry="23.9"/>
				<ellipse class="st25" cx="1529.4" cy="854.8" rx="22.5" ry="23.9"/>
				<ellipse class="st25" cx="1585.1" cy="924.1" rx="22.5" ry="23.9"/>
			</g>
			<path class="st49" d="M1786.1,836.3c5.9,1.6,11.9-3.4,13.9-9.5c2-6.1,0.8-12.8-0.7-19c-1.6-6.2-3.5-12.5-3.1-19
				s3.8-13.2,9.6-14.9"/>
			<path class="st49" d="M1817.9,837.3c6.1-1.8,12.4-3.7,17.6-7.7c5.1-4,8.9-10.7,7.9-17.4c-0.8-5.5-4.6-9.9-8.5-13.7
				c-3.8-3.8-8-7.5-10.1-12.7c-2-5.1-1-12.2,3.6-14.7"/>
			<path class="st49" d="M1849.6,833.6c7.6-3.4,12.6-12.4,11.9-21.1c-0.7-7.4-5-13.9-7-21.1c-2-7.2-0.5-16.8,6.2-19.1"/>
			<g>
				<path class="st50" d="M1552.7,942.5c0-5.2-6.1-10.1-15.5-13.2c2.2-10.2,1.2-18.3-3-20.9c-1-0.6-2.1-0.9-3.4-0.9v3.6
					c0.7,0,1.2,0.1,1.7,0.4c2,1.2,2.9,6,2.2,12.1c-0.2,1.5-0.4,3.1-0.8,4.7c-2.9-0.8-6.2-1.4-9.5-1.7c-2-3-4.1-5.6-6.2-8
					c4.9-4.8,9.5-7.5,12.6-7.5v-3.6l0,0c-4.1,0-9.5,3.1-15,8.6c-5.5-5.4-10.9-8.5-15-8.5v3.6c3.1,0,7.7,2.6,12.6,7.5
					c-2.1,2.4-4.2,5-6.2,8c-3.4,0.4-6.6,1-9.6,1.8c-0.3-1.6-0.6-3.2-0.8-4.6c-0.7-6.1,0.2-10.9,2.2-12.1c0.5-0.3,1-0.4,1.7-0.4v-3.6
					l0,0c-1.3,0-2.4,0.3-3.4,0.9c-4.2,2.6-5.2,10.7-3,20.8c-9.3,3.1-15.4,8-15.4,13.2c0,5.2,6.1,10.1,15.5,13.2
					c-2.2,10.2-1.2,18.3,3,20.9c1,0.6,2.1,0.9,3.4,0.9c4.1,0,9.5-3.1,15-8.6c5.5,5.4,10.9,8.5,15,8.5c1.3,0,2.4-0.3,3.4-0.9
					c4.2-2.6,5.2-10.7,3-20.8C1546.6,952.6,1552.7,947.6,1552.7,942.5z M1533.1,931.8c-0.6,2.1-1.2,4.2-2,6.3
					c-0.6-1.3-1.3-2.6-2-3.8c-0.7-1.3-1.4-2.5-2.2-3.7C1529.1,930.9,1531.2,931.3,1533.1,931.8z M1526.3,948.8
					c-1.2,2.2-2.4,4.2-3.6,6.1c-2.2,0.2-4.5,0.3-6.8,0.3c-2.3,0-4.5-0.1-6.8-0.3c-1.2-1.9-2.5-3.9-3.6-6.1c-1.1-2.1-2.2-4.2-3.1-6.4
					c0.9-2.1,2-4.3,3.1-6.4c1.2-2.2,2.4-4.2,3.6-6.1c2.2-0.2,4.5-0.3,6.8-0.3c2.3,0,4.5,0.1,6.8,0.3c1.2,1.9,2.5,3.9,3.6,6.1
					c1.1,2.1,2.2,4.2,3.1,6.4C1528.4,944.6,1527.4,946.7,1526.3,948.8z M1531.1,946.7c0.8,2.1,1.5,4.3,2.1,6.4c-2,0.5-4,0.9-6.2,1.3
					c0.7-1.2,1.5-2.5,2.2-3.8C1529.8,949.3,1530.5,948,1531.1,946.7z M1515.9,963.8c-1.4-1.5-2.8-3.2-4.2-5.1
					c1.4,0.1,2.7,0.1,4.1,0.1c1.4,0,2.8,0,4.2-0.1C1518.7,960.6,1517.3,962.3,1515.9,963.8z M1504.7,954.4c-2.1-0.3-4.2-0.8-6.2-1.3
					c0.6-2.1,1.2-4.2,2-6.3c0.6,1.3,1.3,2.6,2,3.8C1503.2,951.9,1504,953.2,1504.7,954.4z M1515.8,921.1c1.4,1.5,2.8,3.2,4.2,5.1
					c-1.4-0.1-2.7-0.1-4.1-0.1c-1.4,0-2.8,0-4.2,0.1C1513,924.3,1514.4,922.6,1515.8,921.1z M1504.7,930.5c-0.7,1.2-1.5,2.5-2.2,3.8
					c-0.7,1.3-1.3,2.6-2,3.8c-0.8-2.1-1.5-4.3-2.1-6.4C1500.5,931.3,1502.5,930.9,1504.7,930.5z M1491.1,950.6
					c-5.3-2.4-8.8-5.6-8.8-8.1c0-2.5,3.4-5.7,8.8-8.1c1.3-0.6,2.7-1.1,4.2-1.6c0.9,3.1,2,6.4,3.4,9.7c-1.4,3.3-2.5,6.6-3.3,9.7
					C1493.8,951.7,1492.4,951.1,1491.1,950.6z M1499.2,973.4c-2-1.2-2.9-6-2.2-12.1c0.2-1.5,0.4-3.1,0.8-4.7
					c2.9,0.8,6.2,1.4,9.5,1.7c2,3,4.1,5.6,6.2,8c-4.9,4.8-9.5,7.5-12.6,7.5C1500.2,973.8,1499.6,973.7,1499.2,973.4z M1534.8,961.2
					c0.7,6.1-0.2,10.9-2.2,12.1c-0.5,0.3-1,0.4-1.7,0.4c-3.1,0-7.7-2.6-12.6-7.5c2.1-2.4,4.2-5,6.2-8c3.4-0.4,6.6-1,9.6-1.8
					C1534.4,958.2,1534.6,959.7,1534.8,961.2z M1540.6,950.6c-1.3,0.6-2.7,1.1-4.2,1.6c-0.9-3.1-2-6.4-3.4-9.7
					c1.4-3.3,2.5-6.6,3.3-9.7c1.5,0.5,2.9,1,4.2,1.6c5.3,2.4,8.8,5.6,8.8,8.1C1549.3,945,1545.9,948.2,1540.6,950.6z"/>
				<path class="st50" d="M1500.8,907.6L1500.8,907.6L1500.8,907.6z"/>
				<ellipse class="st50" cx="1515.8" cy="942.5" rx="6.9" ry="7.3"/>
				<path class="st50" d="M1530.8,907.5L1530.8,907.5L1530.8,907.5z"/>
			</g>
			<polygon class="st51" points="1887.4,876.2 1868,1049.3 1792.3,1049.3 1771.4,876 			"/>
			<polygon class="st52" points="1886.5,874.8 1886,879.4 1771.6,879.2 1771.1,874.8 			"/>
		</g>
		<g>
			<path class="st53" d="M1396.3,936c-0.6,0-1.1-0.1-1.5-0.4l-4.9-2.9c-0.7-0.4-0.4-0.6-0.1-0.6c1-0.3,1.2-0.4,2.2-1
				c0.1-0.1,0.3,0,0.4,0l3.7,2.2c0.1,0.1,0.3,0.1,0.4,0l14.6-8.5c0.1-0.1,0.2-0.2,0.2-0.4v-16.9c0-0.2-0.1-0.3-0.2-0.4l-14.6-8.4
				c-0.1-0.1-0.3-0.1-0.4,0l-14.6,8.4c-0.1,0.1-0.2,0.3-0.2,0.4v16.9c0,0.1,0.1,0.3,0.2,0.4l4,2.3c2.2,1.1,3.5-0.2,3.5-1.5V909
				c0-0.2,0.2-0.4,0.4-0.4h1.9c0.2,0,0.4,0.2,0.4,0.4v16.7c0,2.9-1.6,4.6-4.3,4.6c-0.8,0-1.5,0-3.4-0.9l-3.9-2.2
				c-1-0.6-1.5-1.6-1.5-2.7v-16.9c0-1.1,0.6-2.1,1.5-2.7l14.6-8.5c0.9-0.5,2.2-0.5,3.1,0l14.6,8.5c1,0.6,1.5,1.6,1.5,2.7v16.9
				c0,1.1-0.6,2.1-1.5,2.7l-14.6,8.5C1397.3,935.9,1396.8,936,1396.3,936L1396.3,936z M1400.8,924.4c-6.4,0-7.7-2.9-7.7-5.4
				c0-0.2,0.2-0.4,0.4-0.4h1.9c0.2,0,0.4,0.1,0.4,0.4c0.3,1.9,1.1,2.9,5,2.9c3.1,0,4.4-0.7,4.4-2.3c0-1-0.4-1.7-5.2-2.1
				c-4-0.4-6.5-1.3-6.5-4.5c0-3,2.5-4.7,6.7-4.7c4.7,0,7,1.6,7.3,5.1c0,0.1,0,0.2-0.1,0.3c-0.1,0.1-0.2,0.1-0.3,0.1h-1.9
				c-0.2,0-0.4-0.1-0.4-0.3c-0.4-2-1.6-2.7-4.6-2.7c-3.4,0-3.8,1.2-3.8,2.1c0,1.1,0.5,1.4,5,2c4.5,0.6,6.6,1.4,6.6,4.6
				C1408.1,922.5,1405.4,924.4,1400.8,924.4L1400.8,924.4z"/>
		</g>
		<g>
			<path class="st54" d="M1428.8,844.5h59.2v41h-59.2V844.5z"/>
			<path class="st55" d="M1446.9,877.6h-1.6c-0.1-2.7-0.2-5.2-0.5-7.6h0l-2.4,7.6h-1.2l-2.4-7.6h0c-0.2,2.3-0.3,4.8-0.3,7.6h-1.5
				c0.1-3.4,0.3-6.6,0.7-9.6h2l2.3,7h0l2.3-7h1.9C1446.6,871.6,1446.9,874.8,1446.9,877.6 M1453.9,870.6c-0.7,3.5-1.5,6.1-2.6,7.7
				c-0.8,1.2-1.7,1.9-2.7,1.9c-0.3,0-0.6-0.1-1-0.2v-0.9c0.2,0,0.4,0,0.7,0c0.5,0,0.8-0.1,1.1-0.4c0.3-0.3,0.5-0.7,0.5-1
				c0-0.3-0.1-0.8-0.4-1.6l-1.8-5.5h1.6l1.3,4.1c0.3,0.9,0.4,1.6,0.4,1.9c0.7-1.8,1.2-3.9,1.4-6L1453.9,870.6L1453.9,870.6
				L1453.9,870.6z"/>
			<path class="st56" d="M1475.2,877.6h-4.6v-9.6h1.5v8.4h3V877.6z M1469.5,877.9l-1.8-0.9c0.2-0.1,0.3-0.3,0.4-0.4
				c0.7-0.9,1.1-2.2,1.1-3.9c0-3.2-1.2-4.8-3.7-4.8c-1.2,0-2.2,0.4-2.9,1.2c-0.7,0.9-1.1,2.2-1.1,3.9c0,1.7,0.3,2.9,1,3.7
				c0.6,0.7,1.5,1.1,2.7,1.1c0.5,0,0.9-0.1,1.3-0.2l2.3,1.3L1469.5,877.9z M1463.8,875.7c-0.4-0.6-0.6-1.6-0.6-3
				c0-2.4,0.7-3.6,2.2-3.6c0.8,0,1.3,0.3,1.7,0.9c0.4,0.6,0.6,1.6,0.6,3c0,2.4-0.7,3.6-2.2,3.6
				C1464.7,876.6,1464.1,876.3,1463.8,875.7 M1460.9,875c0,0.8-0.3,1.5-0.9,2c-0.6,0.5-1.4,0.8-2.4,0.8c-0.9,0-1.8-0.3-2.7-0.9
				l0.4-0.8c0.8,0.4,1.4,0.6,2.1,0.6c0.6,0,1-0.1,1.4-0.4c0.3-0.3,0.5-0.6,0.5-1.1c0-0.6-0.4-1.1-1.1-1.5c-0.7-0.4-2-1.1-2-1.1
				c-0.7-0.5-1.1-1.1-1.1-2c0-0.8,0.3-1.4,0.8-1.9c0.5-0.5,1.2-0.7,2.1-0.7c0.9,0,1.7,0.2,2.4,0.7l-0.4,0.8
				c-0.6-0.3-1.2-0.4-1.8-0.4c-0.5,0-0.9,0.1-1.1,0.4c-0.3,0.2-0.4,0.5-0.4,0.9c0,0.6,0.4,1.1,1.2,1.5c0.7,0.4,2.1,1.2,2.1,1.2
				C1460.5,873.5,1460.9,874.1,1460.9,875"/>
			<path class="st55" d="M1477.1,864.9c-0.9,0-1.6,0.1-2.2,0.3c-0.2,0.1-0.4,0.1-0.5,0.3c0.1,0.1,0.1,0.2,0.2,0.4
				c0.1,0.2,0.4,0.5,0.6,0.7c0.2,0.2,0.5,0.4,0.7,0.5c0.4,0.3,1,0.4,1.4,0.7c0.3,0.2,0.5,0.4,0.8,0.5c0.1,0.1,0.2,0.2,0.4,0.3v0
				c-0.1-0.1-0.1-0.3-0.2-0.4l-0.3-0.3c-0.3-0.5-0.8-0.8-1.2-1.2c-0.4-0.3-1.2-0.6-1.3-1l0,0c0.3,0,0.6-0.1,0.8-0.2
				c0.4-0.1,0.8-0.1,1.2-0.2c0.2,0,0.4-0.1,0.6-0.2v-0.1c-0.2-0.2-0.4-0.5-0.6-0.7c-0.6-0.5-1.2-1-1.9-1.4c-0.4-0.2-0.8-0.4-1.2-0.6
				c-0.1-0.1-0.4-0.1-0.5-0.2c-0.2-0.3-0.3-0.6-0.5-0.9c-0.3-0.6-0.7-1.3-0.9-2c-0.2-0.5-0.3-0.9-0.6-1.3c-1.2-2-2.5-3.2-4.5-4.3
				c-0.4-0.2-0.9-0.3-1.5-0.5l-0.9,0c-0.2-0.1-0.4-0.3-0.5-0.4c-0.7-0.4-2.4-1.3-2.8-0.1c-0.3,0.8,0.5,1.5,0.7,1.9
				c0.2,0.3,0.5,0.6,0.6,0.9c0.1,0.2,0.1,0.4,0.2,0.6c0.2,0.5,0.4,1.1,0.6,1.6c0.1,0.2,0.3,0.5,0.4,0.7c0.1,0.1,0.3,0.2,0.3,0.4
				c-0.2,0.2-0.2,0.6-0.3,0.9c-0.4,1.3-0.3,2.9,0.3,3.9c0.2,0.3,0.6,0.9,1.2,0.7c0.5-0.2,0.4-0.9,0.6-1.4c0-0.1,0-0.2,0.1-0.3v0
				c0.2,0.3,0.3,0.6,0.5,1c0.4,0.6,1,1.2,1.5,1.5c0.3,0.2,0.5,0.6,0.8,0.7v0h0c-0.1-0.1-0.2-0.2-0.3-0.2c-0.2-0.2-0.4-0.5-0.6-0.7
				c-0.5-0.6-0.9-1.4-1.3-2.1c-0.2-0.4-0.3-0.8-0.5-1.1c-0.1-0.1-0.1-0.3-0.2-0.4c-0.2,0.3-0.4,0.5-0.6,0.8
				c-0.2,0.5-0.2,1.1-0.3,1.7l0,0c-0.4-0.1-0.5-0.5-0.6-0.8c-0.3-0.8-0.4-2.1-0.1-3.1c0.1-0.2,0.4-1,0.3-1.2
				c-0.1-0.2-0.3-0.3-0.4-0.5c-0.1-0.2-0.3-0.5-0.4-0.7c-0.3-0.6-0.4-1.4-0.7-2c-0.1-0.3-0.4-0.6-0.6-0.9c-0.2-0.3-0.5-0.5-0.6-0.9
				c-0.1-0.1-0.1-0.3,0-0.5c0-0.1,0.1-0.1,0.2-0.2c0.1-0.1,0.6,0,0.7,0.1c0.4,0.2,0.8,0.3,1.1,0.6c0.2,0.1,0.3,0.3,0.5,0.4h0.2
				c0.4,0.1,0.8,0,1.1,0.1c0.6,0.2,1.2,0.5,1.7,0.8c1.5,1,2.8,2.3,3.6,4c0.1,0.3,0.2,0.5,0.3,0.8c0.2,0.6,0.5,1.1,0.8,1.7
				c0.2,0.5,0.5,1.1,0.8,1.5c0.2,0.2,0.9,0.4,1.2,0.5c0.2,0.1,0.6,0.2,0.8,0.3c0.4,0.2,0.8,0.5,1.2,0.8
				C1476.5,864.3,1477.1,864.6,1477.1,864.9 M1465.3,854.8c-0.2,0-0.3,0-0.5,0.1v0h0c0.1,0.2,0.3,0.3,0.4,0.5
				c0.1,0.2,0.2,0.4,0.3,0.6l0,0c0.2-0.1,0.2-0.3,0.2-0.6c-0.1-0.1-0.1-0.2-0.1-0.2C1465.6,855,1465.4,854.9,1465.3,854.8"/>
			<path class="st56" d="M1478.2,877.6h0.2v-1.2h-0.4l-0.3,0.8l-0.3-0.8h-0.3v1.2h0.2v-0.9h0l0.3,0.9h0.2l0.3-0.9V877.6
				L1478.2,877.6z M1476.3,877.6h0.3v-1h0.3v-0.2h-0.9v0.2h0.3L1476.3,877.6L1476.3,877.6z"/>
		</g>
		<g>
			<path class="st57" d="M1626.2,867.8c0,0-0.1,0.2-0.1,0.3c0,0.7,0,2.4,0,3.6c0,0,0,0.1,0,0.1c0.1,0,0.4,0,0.6,0
				c0.3,0,0.5-0.1,0.6-0.2c0.3-0.3,0.4-0.9,0.4-1.6c0-1.6-0.5-2.2-1.3-2.2C1626.5,867.7,1626.3,867.7,1626.2,867.8L1626.2,867.8z
				 M1628.1,875.1c0-1.6-0.5-2.5-1.5-2.5c0,0-0.4,0-0.4,0c0,0-0.1,0-0.1,0.1c0,1.2,0,3,0,3.8c0,0.3,0.1,0.8,0.2,0.9
				c0.1,0.2,0.4,0.2,0.6,0.2C1627.6,877.5,1628.1,876.8,1628.1,875.1L1628.1,875.1z M1624.7,866.8c0.1,0,0.3,0,0.9,0
				c0.5,0,1,0,1.5,0c0.6,0,1.5,0.5,1.5,2.7c0,1.1-0.3,1.9-0.8,2.3c0,0,0,0,0,0.1c0.6,0.3,1.2,1.2,1.2,2.8c0,1.6-0.4,2.6-1.1,3.2
				c-0.4,0.4-0.9,0.5-1.4,0.5c-0.4,0-1.4-0.1-2-0.1c-0.1,0,0.1-0.6,0.1-0.7c0.1,0,0.2,0,0.4-0.1c0.2-0.1,0.2-0.2,0.3-0.9
				c0-0.6,0-2.6,0-4.1c0-2,0-3.3,0-4c0-0.5-0.1-0.7-0.3-0.8c-0.1,0-0.3-0.1-0.5-0.2C1624.5,867.5,1624.7,866.9,1624.7,866.8
				L1624.7,866.8z M1620.4,877.1c0.2,0.3,0.5,0.4,0.8,0.4c0.4,0,0.8-0.2,1.2-0.9c0.4-0.8,0.7-2,0.7-4c0-1.9-0.3-3.4-1-4.3
				c-0.4-0.5-0.8-0.7-1.4-0.7c-0.2,0-0.3,0-0.4,0.1c0,0-0.1,0.2-0.1,0.3c0,0.3,0,2.9,0,4.3c0,1.5,0,3.7,0,3.9
				C1620.3,876.5,1620.3,876.9,1620.4,877.1L1620.4,877.1z M1618.8,866.8c0.1,0,0.7,0,0.9,0c0.5,0,0.8,0,1.7,0
				c0.7,0,1.4,0.4,1.8,1.3c0.5,1,0.8,2.5,0.8,4.2c0,2.5-0.5,3.9-1,4.7c-0.5,0.8-1.2,1.3-2.1,1.3c-0.5,0-1.4,0-2.1,0h0
				c0-0.1,0.1-0.7,0.1-0.7c0.2,0,0.2-0.1,0.3-0.1c0.2-0.1,0.2-0.3,0.2-0.9c0-1.1,0-2.5,0-4.1c0-1.1,0-3.3,0-4c0-0.6-0.1-0.7-0.4-0.8
				c-0.1,0-0.3-0.1-0.5-0.2C1618.6,867.5,1618.7,866.9,1618.8,866.8L1618.8,866.8z"/>
			<path class="st58" d="M1609.8,877.7c-0.2,0-0.3-0.1-0.5-0.3c0,0-0.1-0.2-0.1-0.3c0-0.6,0-2.2,0-3.3c0-0.9-0.1-1.7-0.2-2.2
				c-0.2-0.6-0.5-1-0.9-1c-0.3,0-0.8,0.5-1.1,1.2c0,0-0.1,0.1-0.1,0c0-0.2,0-0.5,0-0.8c0-0.2-0.1-0.3-0.1-0.3
				c-0.2,0.3-0.9,0.6-1.1,0.7c-0.2,0.1-0.2,0.5,0,0.6h0c0.2,0.1,0.3,0.3,0.4,0.4c0.1,0.1,0.1,0.3,0.1,0.5c0,1.2,0,3.1,0,4.2
				c0,0.4-0.1,0.6-0.2,0.6l0,0c-0.1,0-0.2,0.1-0.3,0.1c0,0.1,0,0.6,0,0.7c0.1,0,0.5,0,0.9,0c0.5,0,0.7,0,0.9,0
				c0.1-0.1,0.1-0.6,0-0.7c-0.1,0-0.2,0-0.3-0.1c-0.1-0.1-0.2-0.2-0.2-0.6c0-0.9,0-2.7,0-4c0-0.3,0-0.5,0.1-0.6
				c0.2-0.3,0.4-0.6,0.7-0.6c0.2,0,0.4,0.2,0.5,0.4c0.2,0.3,0.2,0.7,0.2,1c0,0.7,0,2.1,0,3.3c0,0.7,0,0.8-0.1,0.9
				c-0.1,0-0.2,0.1-0.3,0.1c-0.1,0.1,0,0.6,0,0.7c0.2,0,0.5,0,0.8,0c0.5,0,0.8,0,0.9,0C1609.8,878.3,1609.8,877.9,1609.8,877.7
				L1609.8,877.7z M1611.9,871.4c-0.4,0-0.6,0.7-0.6,1.7c0,1.1,0.2,2.3,0.8,2.3c0.1,0,0.3-0.1,0.4-0.3c0.1-0.3,0.2-0.9,0.2-1.5
				C1612.7,872.3,1612.4,871.4,1611.9,871.4L1611.9,871.4z M1611.8,878.7c-0.1,0-0.3,0.1-0.3,0.2c-0.3,0.4-0.5,0.9-0.5,1.4
				c0,0.5,0.1,0.9,0.3,1.2c0.2,0.4,0.5,0.6,0.9,0.6c0.8,0,1.1-0.9,1.1-1.8c0-0.6-0.1-1-0.4-1.3
				C1612.6,878.8,1612.3,878.7,1611.8,878.7L1611.8,878.7z M1611.9,883c-0.5,0-0.8-0.2-1.1-0.7c-0.3-0.5-0.4-1.2-0.4-1.6
				c0-0.1,0-0.5,0.1-0.8c0.1-0.2,0.3-0.6,0.7-1.2c0,0,0,0,0-0.1c0,0,0-0.1,0-0.1c-0.3-0.3-0.5-0.8-0.5-1v0c0-0.1,0-0.2,0-0.3
				c0.1-0.1,0.1-0.2,0.2-0.3c0.1-0.2,0.3-0.3,0.3-0.5c0,0,0-0.1,0-0.1c0,0,0-0.1,0-0.1c-0.5-0.4-0.8-1.2-0.8-2.5
				c0-0.8,0.2-1.6,0.5-2.1c0.2-0.4,0.7-0.8,1.1-0.8h0c0.3,0,0.5,0.2,0.8,0.4c0.1,0.1,0.3,0.2,0.5,0.2c0.3,0,0.4-0.2,0.5-0.4
				c0,0,0,0.1,0,0.3c0,0.2,0,0.5-0.1,0.8c-0.1,0.2-0.2,0.3-0.3,0.3h0c-0.1,0-0.2-0.1-0.2-0.1l0,0c0,0,0,0.1,0,0.1l0,0
				c0,0.1,0,0.6,0,0.7c0,1.4-0.2,1.9-0.5,2.4c-0.3,0.4-0.5,0.7-0.9,0.7c0,0,0,0-0.1,0c0,0-0.1,0-0.1,0h0c-0.1,0-0.2,0.2-0.2,0.5
				c0,0.2,0.1,0.5,0.4,0.6c0.1,0,0.1,0,0.2,0c0.4,0.1,0.9,0.1,1.2,0.3c0.3,0.3,0.6,1,0.6,1.8c0,1.2-0.4,2.4-1,3.1
				C1612.5,882.8,1612.2,883,1611.9,883L1611.9,883z M1616.1,871.5c-0.2,0-0.3,0.1-0.4,0.2c-0.3,0.4-0.4,1.2-0.4,2.3
				c0,2.2,0.5,3.7,1.2,3.7c0.2,0,0.4-0.1,0.5-0.4c0.2-0.4,0.3-1.2,0.3-2.3C1617.3,873,1616.8,871.5,1616.1,871.5L1616.1,871.5z
				 M1616.2,878.6c-1.3,0-1.7-2.1-1.7-4c0-1.4,0.2-2.4,0.7-3.1c0.3-0.5,0.8-0.7,1.1-0.7c1,0,1.6,1.5,1.6,3.7c0,1.5-0.3,2.7-0.8,3.4
				C1617,878.2,1616.6,878.6,1616.2,878.6L1616.2,878.6L1616.2,878.6z M1603,871.5c-0.2,0-0.3,0.1-0.4,0.2c-0.3,0.4-0.4,1.2-0.4,2.3
				c0,2.2,0.5,3.7,1.2,3.7c0.2,0,0.4-0.1,0.5-0.4c0.2-0.4,0.3-1.2,0.3-2.3C1604.2,873,1603.7,871.5,1603,871.5L1603,871.5z
				 M1603.2,878.6c-1.3,0-1.7-2.1-1.7-4c0-1.4,0.2-2.4,0.7-3.1c0.3-0.5,0.8-0.7,1.1-0.7c1,0,1.6,1.5,1.6,3.7c0,1.5-0.3,2.7-0.8,3.4
				C1603.9,878.2,1603.5,878.6,1603.2,878.6L1603.2,878.6z M1594.7,878.4c0,0,0-0.2,0-0.4c0-0.1,0-0.2,0-0.2c0.2,0,0.2-0.1,0.3-0.1
				c0.1-0.1,0.2-0.3,0.2-0.7c0-1,0-2.9,0-4.2v0c0-0.1,0-0.3-0.1-0.5c-0.1-0.2-0.3-0.3-0.4-0.4c-0.1,0-0.1-0.1-0.1-0.2
				c0-0.1,0-0.2,0.1-0.2c0.2,0,0.9-0.4,1.1-0.6c0,0,0,0.1,0,0.3l0,0.2c0,0.2,0,0.4,0,0.6c0,0.1,0,0.1,0.1,0.1c0,0,0,0,0,0
				c0.5-0.8,0.9-1.1,1.1-1.1c0.4,0,0.6,0.4,0.9,1.2c0,0,0,0.1,0.1,0.1c0,0,0,0,0,0c0.4-0.7,0.9-1.2,1.2-1.2c0.7,0,1.1,1.1,1.1,3.1
				c0,0.5,0,1.3,0,1.9c0,0.6,0,1.1,0,1.5c0,0.1,0.1,0.3,0.1,0.4c0.1,0.1,0.2,0.2,0.4,0.2h0c0,0.1,0,0.5,0,0.6c0,0-0.1,0-0.2,0
				c-0.2,0-0.4,0-0.6,0c-0.5,0-0.7,0-0.9,0c0-0.1,0-0.5,0-0.6c0.1,0,0.2-0.1,0.3-0.1c0.1-0.1,0.2-0.2,0.2-0.7c0-0.3,0-3,0-3.6
				c0-0.7-0.3-1.4-0.8-1.4c-0.2,0-0.5,0.2-0.8,0.6c0,0,0,0.1,0,0.2v0c0,0.3,0,0.7,0,1.4v1.1c0,0.7,0,1.4,0,2c0,0.4,0.1,0.4,0.2,0.5
				c0,0,0.1,0,0.1,0c0.1,0,0.1,0.1,0.2,0.1c0,0.1,0,0.3,0,0.5c0,0.1,0,0.1,0,0.2c-0.3,0-0.5,0-0.9,0c-0.1,0-0.3,0-0.5,0
				c-0.1,0-0.3,0-0.3,0c0,0,0-0.1,0-0.3c0-0.1,0-0.3,0-0.3c0,0,0.1,0,0.1,0c0.1,0,0.2-0.1,0.2-0.1c0.1-0.1,0.2-0.2,0.2-0.6
				c0-0.8,0-3.2,0-3.8c-0.1-1-0.3-1.4-0.7-1.4c-0.2,0-0.5,0.2-0.8,0.6c0,0.1-0.1,0.2-0.1,0.4v1c0,1.2,0,2.7,0,3.3
				c0,0.2,0,0.4,0.2,0.5c0,0,0.1,0,0.2,0.1l0.1,0c0,0.1,0,0.5,0,0.6c-0.1,0-0.2,0-0.3,0c-0.2,0-0.4,0-0.6,0c-0.3,0-0.4,0-0.6,0
				C1594.9,878.4,1594.8,878.4,1594.7,878.4L1594.7,878.4z"/>
			<path class="st59" d="M1590.8,882.4l-0.3-0.2c0,0,0-3.4-0.5-3.7c-0.4-1,0.1-40.5,1.4-0.1c0,0-0.5,0.5-0.5,1.4
				C1590.8,880.5,1590.8,882.4,1590.8,882.4L1590.8,882.4z"/>
			<path class="st60" d="M1590.8,882.4l-0.3-0.2c0,0,0-3.4-0.5-3.7c-0.4-1,0.1-40.5,1.4-0.1c0,0-0.5,0.5-0.5,1.4
				C1590.8,880.5,1590.8,882.4,1590.8,882.4L1590.8,882.4z"/>
			<path class="st59" d="M1591,879c0,0,2.7-3.9,2-12c-0.6-5.9-2-7.8-2.2-8.5c-0.2-0.5-0.3-1.4-0.3-1.4l0.1,16.4
				C1590.6,873.4,1590.4,878.4,1591,879"/>
			<path class="st61" d="M1591,879c0,0,2.7-3.9,2-12c-0.6-5.9-2-7.8-2.2-8.5c-0.2-0.5-0.3-1.4-0.3-1.4l0.1,16.4
				C1590.6,873.4,1590.4,878.4,1591,879"/>
			<path class="st59" d="M1590.4,879.2c0,0-2.5-3.8-2.3-10.5c0.1-6.7,1.9-9.9,2.2-10.5c0.2-0.5,0.2-0.7,0.2-1.3
				c0.2,0.7,0.1,11.1,0.1,12.3C1590.7,874,1590.5,878.4,1590.4,879.2z"/>
			<path class="st62" d="M1590.4,879.2c0,0-2.5-3.8-2.3-10.5c0.1-6.7,1.9-9.9,2.2-10.5c0.2-0.5,0.2-0.7,0.2-1.3
				c0.2,0.7,0.1,11.1,0.1,12.3C1590.7,874,1590.5,878.4,1590.4,879.2z"/>
		</g>
		<g>
			<g>
				<polygon class="st63" points="1433.3,957.6 1419.8,980.8 1417.5,979.5 1431,956.3 				"/>
				<ellipse class="st63" cx="1419.7" cy="961.9" rx="4.1" ry="4.1"/>
				<ellipse class="st63" cx="1430.4" cy="973.2" rx="4.6" ry="4.6"/>
			</g>
		</g>
		<polygon class="st63" points="1411.8,952 1392.4,964.6 1392.4,969.9 1411.8,982.7 1411.8,975.8 1398.8,967.4 1411.8,958.9 		"/>
		<g>
			<g>
				<g>
					<polygon class="st64" points="1513.7,867.2 1512.1,866.3 1529.9,835.2 1531.5,836.2 					"/>
				</g>
			</g>
			<g>
				<g>
					<rect x="1511.8" y="863.8" class="st64" width="35.6" height="1.9"/>
				</g>
			</g>
			<g>
				<g>
					<polygon class="st64" points="1530.3,875.2 1512.5,864.8 1513.4,863.2 1531.2,873.6 					"/>
				</g>
			</g>
			<g>
				<g>
					<polygon class="st64" points="1545.7,848.2 1527.9,837.8 1528.9,836.2 1546.7,846.6 					"/>
				</g>
			</g>
			<g>
				<g>
					<polygon class="st64" points="1513.4,848.2 1512.5,846.6 1530.3,836.2 1531.2,837.8 					"/>
				</g>
			</g>
			<g>
				<g>
					<polygon class="st64" points="1545.4,867.2 1527.6,836.2 1529.2,835.2 1547,866.3 					"/>
				</g>
			</g>
			<g>
				<g>
					<rect x="1513.2" y="845.4" class="st64" width="1.8" height="20.7"/>
				</g>
			</g>
			<g>
				<g>
					<rect x="1544.1" y="845.4" class="st64" width="1.8" height="20.7"/>
				</g>
			</g>
			<g>
				<g>
					<polygon class="st64" points="1530,874.4 1529.2,873 1544.6,864 1545.5,865.4 					"/>
				</g>
			</g>
			<path class="st64" d="M1548.4,866.7c-1.1,1.9-3.4,2.5-5.3,1.4c-1.9-1.1-2.5-3.5-1.4-5.3s3.4-2.5,5.3-1.4
				C1548.9,862.4,1549.5,864.8,1548.4,866.7"/>
			<path class="st64" d="M1517.5,848.7c-1.1,1.9-3.4,2.5-5.3,1.4s-2.5-3.5-1.4-5.3c1.1-1.9,3.4-2.5,5.3-1.4
				C1517.9,844.4,1518.5,846.8,1517.5,848.7"/>
			<path class="st64" d="M1510.7,866.7c-1.1-1.9-0.4-4.3,1.4-5.3c1.9-1.1,4.2-0.4,5.3,1.4c1.1,1.9,0.4,4.3-1.4,5.3
				C1514.2,869.2,1511.8,868.5,1510.7,866.7"/>
			<path class="st64" d="M1541.7,848.7c-1.1-1.9-0.4-4.3,1.4-5.3c1.9-1.1,4.2-0.4,5.3,1.4c1.1,1.9,0.4,4.3-1.4,5.3
				C1545.1,851.2,1542.8,850.5,1541.7,848.7"/>
			<path class="st64" d="M1529.6,877.6c-2.1,0-3.9-1.7-3.9-3.9s1.7-3.9,3.9-3.9c2.1,0,3.9,1.7,3.9,3.9
				C1533.5,875.9,1531.7,877.6,1529.6,877.6"/>
			<path class="st64" d="M1529.6,841.6c-2.1,0-3.9-1.7-3.9-3.9c0-2.2,1.7-3.9,3.9-3.9c2.1,0,3.9,1.7,3.9,3.9
				C1533.5,839.9,1531.7,841.6,1529.6,841.6"/>
		</g>
		<g id="Page-1">
			<g id="_x30_02---API">
				<path id="Shape" class="st65" d="M1598.3,928.9c-1.6,4.3-5.8,7.2-10.4,7.2c-4.6,0-8.8-2.9-10.4-7.2l-2.3-2.4l-3.3,2.1l-2.8,1.2
					c-0.3,0.1-0.5,0.5-0.4,0.9l2.1,5c0.1,0.3,0.5,0.5,0.9,0.4l3.5-1.4c1,1.5,2.3,2.8,3.8,3.8l-1.4,3.5c-0.1,0.2-0.1,0.4,0,0.5
					c0.1,0.2,0.2,0.3,0.4,0.4l5,2.1c0.2,0.1,0.4,0.1,0.5,0s0.3-0.2,0.4-0.4l1.4-3.5c1.8,0.3,3.6,0.3,5.4,0l1.4,3.5
					c0.1,0.2,0.2,0.3,0.4,0.4c0.2,0.1,0.4,0.1,0.5,0l5-2.1c0.2-0.1,0.3-0.2,0.4-0.4c0.1-0.2,0.1-0.4,0-0.5l-1.4-3.5
					c1.5-1,2.8-2.3,3.8-3.8l3.5,1.4c0.2,0.1,0.4,0.1,0.5,0c0.2-0.1,0.3-0.2,0.4-0.4l2.1-5c0.1-0.2,0.1-0.4,0-0.5s-0.2-0.3-0.4-0.4
					l-2-0.9h0l-3.2-2.4L1598.3,928.9z"/>
				<path id="Shape_1_" class="st66" d="M1611,922.2c0,3.7-3,6.8-6.8,6.8h-29.9c-5.3,0-9.6-4.3-9.6-9.6c0-5.3,4.3-9.6,9.6-9.6
					c0.2,0,0.5,0,0.7,0c1.6-4.3,5.8-7.2,10.4-7.2c4.6,0,8.8,2.9,10.4,7.2c0.1,0,0.2,0,0.3,0c3.5,0,6.7,2.2,7.9,5.6h0.1
					C1608,915.4,1611,918.4,1611,922.2L1611,922.2z"/>
				<path id="Shape_2_" class="st67" d="M1569.4,924.1c-0.2,0-0.5-0.1-0.6-0.3c-1.4-1.7-1.9-4-1.4-6.1c0.5-2.1,1.9-3.9,3.9-4.9
					c0.4-0.2,0.9,0,1.1,0.4s0,0.9-0.4,1.1c-1.9,0.9-3.2,2.9-3.2,5c0,1.3,0.4,2.5,1.2,3.5c0.2,0.2,0.2,0.6,0.1,0.8
					S1569.7,924.1,1569.4,924.1z"/>
				<g>
					<path id="Shape_3_" class="st68" d="M1577.5,924.9c-0.3,0-0.5-0.1-0.6-0.3c-0.1-0.2-0.2-0.5-0.1-0.7l3.2-9.6
						c0.1-0.4,0.6-0.6,1-0.5s0.6,0.6,0.5,1l-3.2,9.6C1578.2,924.7,1577.9,924.9,1577.5,924.9L1577.5,924.9z"/>
					<path id="Shape_4_" class="st68" d="M1583.9,924.9c-0.3,0-0.6-0.2-0.8-0.5l-3.2-9.6c-0.1-0.4,0.1-0.9,0.5-1s0.9,0.1,1,0.5
						l3.2,9.6c0.1,0.2,0,0.5-0.1,0.7C1584.4,924.8,1584.2,924.9,1583.9,924.9L1583.9,924.9z"/>
					<path id="Shape_5_" class="st68" d="M1582.6,921h-3.7c-0.4,0-0.8-0.4-0.8-0.8s0.4-0.8,0.8-0.8h3.7c0.4,0,0.8,0.4,0.8,0.8
						S1583,921,1582.6,921z"/>
					<path id="Shape_6_" class="st68" d="M1586.3,924.9c-0.4,0-0.8-0.4-0.8-0.8v-9.6c0-0.4,0.4-0.8,0.8-0.8s0.8,0.4,0.8,0.8v9.6
						C1587.1,924.6,1586.7,924.9,1586.3,924.9z"/>
					<path id="Shape_7_" class="st68" d="M1589.5,920.2h-3.2c-0.4,0-0.8-0.4-0.8-0.8v-4.8c0-0.4,0.4-0.8,0.8-0.8h3.2
						c1.8,0,3.2,1.4,3.2,3.2C1592.7,918.7,1591.2,920.2,1589.5,920.2z M1587.1,918.6h2.4c0.9,0,1.6-0.7,1.6-1.6
						c0-0.9-0.7-1.6-1.6-1.6h-2.4V918.6z"/>
					<path id="Shape_8_" class="st68" d="M1595.9,924.9c-0.4,0-0.8-0.4-0.8-0.8v-9.6c0-0.4,0.4-0.8,0.8-0.8c0.4,0,0.8,0.4,0.8,0.8
						v9.6C1596.7,924.6,1596.3,924.9,1595.9,924.9z"/>
					<path id="Shape_9_" class="st68" d="M1598.3,915.4h-4.8c-0.4,0-0.8-0.4-0.8-0.8s0.4-0.8,0.8-0.8h4.8c0.4,0,0.8,0.4,0.8,0.8
						S1598.7,915.4,1598.3,915.4z"/>
					<path id="Shape_10_" class="st68" d="M1598.3,924.9h-4.8c-0.4,0-0.8-0.4-0.8-0.8s0.4-0.8,0.8-0.8h4.8c0.4,0,0.8,0.4,0.8,0.8
						S1598.7,924.9,1598.3,924.9z"/>
				</g>
				<path id="Shape_11_" class="st67" d="M1579.1,911.4c-0.3,0-0.5-0.1-0.6-0.3c-0.1-0.2-0.2-0.5-0.1-0.7c1.8-5.3,6.1-5.3,6.3-5.3
					c0.4,0,0.8,0.4,0.8,0.8c0,0.4-0.4,0.8-0.8,0.8c-0.2,0-3.4,0.1-4.8,4.2C1579.8,911.2,1579.5,911.4,1579.1,911.4L1579.1,911.4z"/>
			</g>
		</g>
	</g>
	<line class="st54" x1="1462" y1="1179.7" x2="1461.3" y2="1179.7"/>
</g>
</svg>
