<?xml version="1.0" encoding="utf-8"?>
<!-- Generator: Adobe Illustrator 24.1.1, SVG Export Plug-In . SVG Version: 6.00 Build 0)  -->
<svg version="1.1" id="Layer_1" xmlns="http://www.w3.org/2000/svg" xmlns:xlink="http://www.w3.org/1999/xlink" x="0px" y="0px"
	 viewBox="0 0 1920 1080" style="enable-background:new 0 0 1920 1080;" xml:space="preserve">
<style type="text/css">
	.st0{opacity:0.6;}
	.st1{fill:#393CB0;}
	.st2{opacity:0.5;}
	.st3{fill:none;stroke:#1B1464;stroke-width:2.5901;stroke-miterlimit:10;}
	.st4{fill:#1B1464;}
	.st5{fill:none;stroke:#1B1464;stroke-width:2.4518;stroke-miterlimit:10;}
</style>
<g class="st0">
	<path class="st1" d="M1908,871.54V1080H206.72V810.39c87.8-154.22,159.65-245.67,218.43-296.93c2.29-1.99,4.55-3.92,6.79-5.8
		c4.43-3.67,8.74-7.12,13.02-10.35c9.01-6.83,17.71-12.68,26.06-17.63c47.28-28.08,84.37-27.87,113.5-16.54
		c86.63,33.68,100.89,164.95,171.64,269.06c2.1,3.08,4.23,6.14,6.43,9.16c9.2,12.74,19.35,24.98,30.67,36.51
		c1.54,1.57,3.09,3.12,4.65,4.63c9.61,9.37,20.06,18.21,31.46,26.41c118.18,84.98,184.95-10.65,342.9-30.97
		c37.04,24.2,68.94,47.13,106.92,57.74c28.28,7.94,59.96,9.01,99.65-1.28c11.97-3.1,26.66-5.09,43.57-6.16
		c26.13,12.32,51.86,22.7,80.44,28.73c74.55,46.63,129.02,90.57,234.85,64.04c48.72-12.22,83.21-33.09,113.19-55.51
		C1870.82,867.79,1889.97,869.83,1908,871.54z"/>
</g>
<g>
	<path class="st1" d="M1920,871.54V1080H0V731.3c174.16-314.58,279.05-348.95,342.4-323.63c22.03,8.8,38.89,24.75,53.16,45.35
		c1.7,2.41,3.36,4.92,4.99,7.5c9.95,15.7,18.72,33.68,27.28,52.94c0.08,0.21,0.18,0.4,0.27,0.61
		c31.55,71.21,60.33,159.73,136.21,215.87c39.74,29.4,73.05,35.61,106.56,30.81c3.71-0.52,7.42-1.19,11.15-1.97
		c6.04-1.26,12.13-2.83,18.27-4.69c19.16-5.66,38.99-13.69,60.64-21.9c55.11-20.92,122.05-43.11,220-31.16
		c71.73,8.76,122.62,31.27,164.7,55.79c4.52,2.63,5.27,3.16,34.01,21.12c45.2,28.24,49.89,31.01,55.86,34.28
		c20.22,11.07,33.77,18.49,51.74,23.47c26.16,7.26,51.89,11.16,100.27-1.28c12.05-3.1,26.83-5.09,43.84-6.16
		c49.45-3.08,117.55,1.61,190.9,9.14c79.63,8.17,165.45,19.66,240.28,28.12C1882.58,867.79,1901.85,869.83,1920,871.54z"/>
</g>
<g class="st2">
	<g>
		<path class="st3" d="M1116.03,745.28c25.02-17.58,90.91-58.25,106.17-150.83c13.89-84.24,49.07-56.05,56.29-118.25
			c0.96-8.3,1.53-15.74,1.87-21.98"/>
		<g>
			<path class="st4" d="M1290.01,455.18c0.26-5.37-3.89-9.94-9.26-10.19s-9.94,3.89-10.19,9.26c-0.26,5.37,3.89,9.93,9.26,10.19
				C1285.19,464.7,1289.75,460.55,1290.01,455.18z"/>
		</g>
	</g>
</g>
<g class="st2">
	<g>
		<path class="st5" d="M1185.87,787.36c55.34-53.81,133.29-114.93,233.26-153.02c29.86-11.38,58.36-19.43,85.01-25.04"/>
		<g>
			
				<ellipse transform="matrix(0.9699 -0.2437 0.2437 0.9699 -103.1954 384.784)" class="st4" cx="1503.7" cy="609.51" rx="9.22" ry="9.22"/>
		</g>
	</g>
</g>
</svg>
