<?xml version="1.0" encoding="utf-8"?>
<!-- Generator: Adobe Illustrator 24.1.1, SVG Export Plug-In . SVG Version: 6.00 Build 0)  -->
<svg version="1.1" xmlns="http://www.w3.org/2000/svg" xmlns:xlink="http://www.w3.org/1999/xlink" x="0px" y="0px"
	 viewBox="0 0 375 812" style="enable-background:new 0 0 375 812;" xml:space="preserve">
<style type="text/css">
	.st0{fill:#3E77D9;}
	.st1{fill:#29D224;}
	.st2{fill:#FFC92E;}
	.st3{fill:#327623;}
	.st4{fill:#E473C3;}
	.st5{fill:none;stroke:#000000;stroke-miterlimit:10;}
	.st6{fill:#DB7423;}
</style>
<g id="Layer_1">
</g>
<g id="Layer_2">
	<path class="st0" d="M375,299.9V812h-14c3.8-9.3,7.7-18.7,11.5-28c-2.7-79-5.3-158-8-237c-20.5,2.4-39.2,5.8-56.3,9.8
		c-0.2-0.4-0.4-0.9-0.6-1.3c-0.1-0.1-0.1-0.3-0.2-0.4c0-0.1-0.1-0.2-0.2-0.3c-0.2-0.3-0.3-0.7-0.5-1c-0.4-0.7-0.7-1.4-1.1-2.1
		c-0.3-0.5-0.5-1-0.8-1.4c-0.2-0.4-0.5-0.8-0.7-1.3c-0.3-0.5-0.6-1-0.9-1.6c0,0,0-0.1-0.1-0.1c-0.3-0.5-0.6-1-0.9-1.6
		c0-0.1-0.1-0.1-0.1-0.2c-0.2-0.3-0.4-0.6-0.5-0.9c0,0,0,0,0,0c-0.2-0.4-0.4-0.7-0.7-1.1c0,0,0,0,0,0c-0.4-0.6-0.7-1.1-1.1-1.7v0
		c0,0,0,0,0-0.1c-0.1-0.2-0.2-0.4-0.4-0.5c-0.6-0.9-1.2-1.7-1.8-2.6c0,0,0,0-0.1-0.1c-0.2-0.3-0.4-0.7-0.7-1c-0.2-0.3-0.5-0.6-0.7-1
		c0,0,0-0.1-0.1-0.1c-0.1-0.2-0.3-0.4-0.4-0.6c-0.3-0.4-0.6-0.9-1-1.3c-0.4-0.6-0.9-1.2-1.3-1.7c-0.1-0.2-0.3-0.3-0.4-0.5
		c-0.3-0.4-0.6-0.8-0.9-1.2c-0.9-1.2-1.9-2.3-2.9-3.5c-0.3-0.4-0.6-0.7-1-1.1c-0.3-0.3-0.5-0.6-0.8-0.9c-0.5-0.6-1-1.2-1.6-1.7
		c0,0,0,0,0,0c0,0,0,0,0,0c0,0-0.1-0.1-0.1-0.1c-0.3-0.4-0.7-0.7-1-1.1c-0.1-0.1-0.1-0.1-0.2-0.2c-0.3-0.3-0.6-0.6-0.8-0.9
		c0-0.1-0.1-0.1-0.2-0.2c-0.3-0.3-0.6-0.6-0.9-0.9c0,0,0,0-0.1-0.1c-0.3-0.3-0.6-0.6-0.9-0.9c0,0,0,0,0,0c-0.1-0.1-0.2-0.2-0.2-0.2
		c-1-1-2-2-3-2.9c0-0.1-0.1-0.1-0.1-0.1c-0.5-0.5-1-0.9-1.4-1.3c-0.4-0.3-0.8-0.7-1.2-1c-0.4-0.4-0.8-0.7-1.3-1.1
		c-0.4-0.3-0.8-0.6-1.1-1c-0.4-0.3-0.8-0.7-1.2-1c-0.7-0.5-1.3-1.1-2-1.6c-1.4-1.1-2.8-2.2-4.2-3.2c-0.4-0.3-0.8-0.6-1.3-0.9
		c-0.4-0.3-0.8-0.6-1.3-0.9c-0.4-0.3-0.8-0.6-1.3-0.9c-0.5-0.3-1-0.7-1.6-1c-0.7-0.4-1.3-0.9-2-1.3c-2.4-1.5-4.8-2.9-7.3-4.2
		c-0.7-0.4-1.4-0.7-2.1-1.1c0,0-0.1,0-0.1,0c-0.7-0.4-1.5-0.7-2.2-1.1c-0.4-0.2-0.8-0.4-1.3-0.6c-0.6-0.3-1.3-0.6-1.9-0.9
		c-2.1-0.9-4.1-1.8-6.2-2.5c-0.3-0.1-0.7-0.2-1-0.4c-0.4-0.1-0.7-0.3-1.1-0.4C264.9,397,328.7,321.3,375,299.9z"/>
	<path class="st1" d="M307.9,556.8c-36.3,8.6-65.4,20.3-88.8,32.7c0-6,0.2-12.1,0.6-18.3c1.8-28,7.4-55.4,15.7-81.5
		C264.9,500.1,292.9,525.5,307.9,556.8z"/>
	<path class="st2" d="M235.3,489.8c-8.3,26.1-13.9,53.5-15.7,81.5c-0.4,6.2-0.6,12.3-0.6,18.3c-15.8,8.4-29,17.1-40,25.5
		c-23.7,17.9-54.4,46.8-107,63c-29,8.9-54.7,10.9-72.5,11V553.7c29.2-3.6,70.4-11.6,116.5-30.7c53.8-22.4,65.6-39.8,96-38
		C219.7,485.5,227.6,487.1,235.3,489.8z"/>
	<path class="st3" d="M318.7,615.3c-1.4,12.9-5.2,24.6-10.2,35.3c0,0,0,0,0,0c-7.2,15.3-16.9,28.6-25.5,40.3
		c-4.3,5.8-11.4,15.5-21.5,26.5l-4.6-6.9c-3,2.9-6.2,5.9-9.8,9c0.4,0.9,0.8,1.7,1.2,2.6c0.9,2,1.8,3.9,2.7,5.8l10.4-10.5
		c-3.2,3.4-6.6,7-10.4,10.6l0,0c0,0,0-0.1,0-0.1c-0.9-1.9-1.8-3.9-2.7-5.8c-0.4-0.9-0.8-1.7-1.2-2.6c-0.5-1.1-1-2.3-1.5-3.4
		c-0.5-1.1-1-2.3-1.5-3.5c-0.4-0.9-0.8-1.8-1.1-2.8c-0.1-0.2-0.2-0.4-0.2-0.5c0-0.1-0.1-0.2-0.1-0.3c0-0.1,0-0.1-0.1-0.2
		c-0.4-1.1-0.9-2.2-1.3-3.3c-0.4-1-0.8-2-1.1-3c-0.1-0.3-0.2-0.5-0.3-0.8c-0.5-1.3-1-2.6-1.5-4c-0.2-0.6-0.4-1.2-0.7-1.8
		c-0.3-0.9-0.6-1.8-0.9-2.6c-0.8-2.2-1.5-4.4-2.3-6.7c-0.2-0.5-0.3-1.1-0.5-1.6c-0.2-0.5-0.3-1.1-0.5-1.6c-0.3-1-0.6-2-0.9-3
		c-0.3-0.9-0.5-1.7-0.8-2.6c0-0.1-0.1-0.2-0.1-0.3c-0.3-0.9-0.5-1.8-0.8-2.7c0-0.1-0.1-0.3-0.1-0.4c-0.2-0.8-0.5-1.7-0.7-2.5
		c-0.3-1.1-0.6-2.2-0.9-3.3c0,0,0-0.1,0-0.1c0-0.1-0.1-0.2-0.1-0.3c-0.3-1.1-0.6-2.2-0.8-3.3c-0.2-0.6-0.3-1.3-0.5-1.9
		c-0.2-0.9-0.5-1.9-0.7-2.8c-0.3-1.1-0.5-2.3-0.8-3.4c-0.2-1-0.5-2-0.7-3.1c-0.1-0.3-0.1-0.6-0.2-1c0-0.2-0.1-0.3-0.1-0.4
		c-0.2-0.8-0.3-1.5-0.5-2.3c-0.1-0.6-0.3-1.2-0.4-1.8c-0.2-1-0.4-1.9-0.5-2.9c-0.1-0.3-0.1-0.7-0.2-1c0-0.1,0-0.2,0-0.2
		c-0.2-1-0.4-2-0.5-3c0-0.2-0.1-0.3-0.1-0.5c0-0.1-0.1-0.3-0.1-0.4c-0.2-0.9-0.3-1.9-0.5-2.8c-0.1-0.7-0.2-1.4-0.3-2.1
		c-0.2-1.3-0.4-2.5-0.5-3.8c-0.2-1.4-0.4-2.8-0.5-4.3c-0.2-1.2-0.3-2.4-0.4-3.7c0-0.1,0-0.3,0-0.4c0-0.2,0-0.4-0.1-0.5
		c-0.1-1.4-0.3-2.7-0.4-4.1c0-0.1,0-0.2,0-0.3c0-0.1,0-0.3,0-0.4c-0.1-0.9-0.2-1.8-0.2-2.7c0-0.1,0-0.3,0-0.4
		c-0.1-0.7-0.1-1.4-0.2-2c-0.1-1.2-0.2-2.4-0.3-3.6c-0.1-1.5-0.2-3.1-0.3-4.6c-0.1-1.6-0.1-3.1-0.2-4.7c0-1.1-0.1-2.1-0.1-3.2v-0.3
		c0-0.7,0-1.5,0-2.2c0-1.2,0-2.4,0-3.6v-1.1c23-12.3,51.6-23.8,87.1-32.3c0.1,0,0.1,0,0.2,0c0.5-0.1,1-0.3,1.5-0.4
		c0.1,0.3,0.3,0.5,0.4,0.8c2.1,4.5,4,9.1,5.5,13.8c1.7,5.1,3,10.4,3.9,15.7c0.6,3.6,1.1,7.3,1.3,10.9
		C319.4,604,319.3,609.8,318.7,615.3z"/>
	<path class="st0" d="M375,575.1V802c-1.7,3.4-3.3,6.7-5,10h-68.6c-16.5-16.2-39.7-41.9-60-75.2c0.7-0.6,1.3-1.1,2-1.7
		c2.7-2.3,5.2-4.6,7.6-6.9c0,0,0,0,0,0c0,0,0-0.1-0.1-0.1l10.4-10.5l0.1-0.1l-4.6-6.9c8.4-8.1,14.5-15.1,18.5-19.6
		c10.6-12,22.7-25.7,31.5-41.6c0,0,0,0,0,0c5.7-10.4,10.1-21.7,11.8-34.1c0.8-5.8,1-11.8,0.5-18c-0.3-3.5-0.8-6.9-1.5-10.3
		c-1.2-6-3-11.8-5.3-17.5c-1.7-4.2-3.7-8.3-5.9-12.3c0,0,0,0,0,0c-0.2-0.4-0.5-0.9-0.7-1.3c0.3-0.1,0.7-0.1,1-0.2
		c0.3,0,0.5-0.1,0.8-0.2h0c17.5-3.4,36.3-6.3,56.6-8.5c3.2-0.4,6.5-0.7,9.8-1C374.2,555.7,374.6,565.4,375,575.1z"/>
	<path class="st4" d="M305.1,812H-0.5V679c1.7,2.5,3.9,5.8,6.7,9.5c0.3,0.4,0.5,0.7,0.8,1.1c0.3,0.5,0.7,1,1.1,1.4
		c0.7,0.9,1.5,1.9,2.2,2.9c3.3,4.2,7.1,8.8,11.5,13.6c0.4,0.5,0.8,0.9,1.2,1.4c4.8,5.3,10.3,10.7,16.3,16c0.5,0.5,1,0.9,1.6,1.4
		c1.3,1.1,2.5,2.2,3.9,3.2c0.8,0.6,1.5,1.3,2.3,1.9c2.5,2,5.1,4,7.8,5.9c0.6,0.5,1.3,0.9,1.9,1.4c1.1,0.8,2.2,1.5,3.4,2.3
		c0.6,0.4,1.2,0.8,1.8,1.2c1.5,1,3,1.9,4.6,2.8c0.7,0.4,1.3,0.8,2,1.1c0.2,0.1,0.4,0.2,0.6,0.3c0.7,0.4,1.3,0.8,2,1.1
		c0.6,0.3,1.1,0.6,1.7,0.9c0.9,0.5,1.9,1,2.8,1.5c0.8,0.4,1.5,0.8,2.3,1.1c0.6,0.3,1.2,0.6,1.8,0.9c0.7,0.4,1.5,0.7,2.3,1
		c4.6,2,9.3,3.8,14.2,5.3c0.9,0.3,1.8,0.5,2.7,0.8c0.7,0.2,1.4,0.4,2.1,0.6c0.5,0.1,1,0.3,1.5,0.4c0.3,0.1,0.7,0.2,1,0.3
		c0.7,0.2,1.3,0.3,2,0.5c0.5,0.1,1,0.2,1.6,0.3c0.5,0.1,1,0.2,1.5,0.3c0.5,0.1,1,0.2,1.5,0.3c0.6,0.1,1.3,0.2,1.9,0.3
		c0.4,0.1,0.7,0.1,1.1,0.2c0.6,0.1,1.3,0.2,1.9,0.3c0.5,0.1,1.1,0.2,1.6,0.2c0.8,0.1,1.6,0.2,2.4,0.3c0.2,0,0.3,0,0.5,0.1
		c0.8,0.1,1.6,0.1,2.5,0.2c1.4,0.1,2.9,0.2,4.3,0.2c1.2,0,2.3,0.1,3.5,0.1c3,0,6.1-0.1,9.2-0.4c5.5-0.5,10.9-1.3,16.1-2.5
		c0.6-0.1,1.2-0.3,1.8-0.4c0.7-0.2,1.4-0.3,2.1-0.5c0.5-0.1,1-0.3,1.6-0.4c0.8-0.2,1.5-0.4,2.3-0.7c0.4-0.1,0.9-0.3,1.3-0.4
		c0.4-0.1,0.8-0.3,1.2-0.4c1.7-0.5,3.4-1.1,5-1.8c0.5-0.2,0.9-0.4,1.4-0.5c1.1-0.4,2.1-0.9,3.2-1.3c0.5-0.2,1.1-0.5,1.6-0.7
		c0.5-0.2,1.1-0.5,1.7-0.7c1.6-0.7,3.1-1.5,4.7-2.3c0.5-0.3,1-0.5,1.5-0.8c0.6-0.3,1.1-0.6,1.7-0.9c1-0.5,1.9-1,2.9-1.6
		c3.6-2.1,7.1-4.3,10.5-6.7c0.7-0.5,1.5-1,2.2-1.5c0.4-0.3,0.8-0.6,1.2-0.9c0.9-0.6,1.7-1.3,2.6-1.9c1-0.8,2.1-1.6,3.1-2.4
		c0.9-0.7,1.7-1.4,2.6-2.1c0.3-0.3,0.6-0.5,1-0.8c0.7-0.6,1.4-1.2,2.1-1.8c0.2-0.2,0.5-0.4,0.7-0.6c0.7-0.6,1.4-1.3,2.2-1.9
		c0.7-0.6,1.3-1.2,2-1.9c0.8-0.7,1.5-1.4,2.2-2.1c0.2-0.2,0.3-0.3,0.5-0.5c0.8-0.7,1.5-1.5,2.3-2.2c0.1-0.1,0.2-0.2,0.3-0.2
		c0.8-0.8,1.5-1.5,2.3-2.3c0.2-0.2,0.5-0.5,0.7-0.7c0.7-0.7,1.4-1.5,2.1-2.2c0.8-0.9,1.7-1.8,2.5-2.8c0.8-0.9,1.7-1.8,2.5-2.8
		c0.9-1,1.7-2,2.6-3c1-1.2,2-2.4,3-3.6c0.1,0.3,0.2,0.5,0.3,0.8c0.4,1,0.8,2,1.1,3c0.4,1.1,0.9,2.2,1.3,3.3c0,0.1,0,0.1,0.1,0.2
		c0,0.1,0.1,0.2,0.1,0.3c0.1,0.2,0.1,0.4,0.2,0.5c0.4,0.9,0.8,1.9,1.1,2.8c0.5,1.2,1,2.3,1.5,3.5c0.5,1.1,1,2.3,1.5,3.4
		c0.4,0.9,0.8,1.7,1.2,2.6c0.9,2,1.8,4,2.8,5.9c3.8-3.6,7.3-7.2,10.4-10.6C276.8,759,293.2,791.1,305.1,812z"/>
	<path class="st5" d="M674.5,386.5"/>
	<path class="st6" d="M251,716.3c-2.4,2.1-5,4.2-7.6,6.3c-0.7,0.5-1.3,1-2,1.5c-0.1,0.1-0.2,0.2-0.3,0.3c-1.4,1-2.7,2.1-4.2,3.1
		c-0.8,0.6-1.7,1.2-2.6,1.8c-0.8,0.6-1.6,1.2-2.5,1.7s-1.7,1.1-2.5,1.7c-0.7,0.5-1.4,0.9-2.1,1.4c-0.2,0.2-0.5,0.3-0.7,0.4
		c-0.8,0.5-1.5,1-2.3,1.4c-0.1,0.1-0.2,0.1-0.3,0.1c-0.7,0.5-1.5,0.9-2.3,1.4c-0.2,0.1-0.3,0.2-0.5,0.3c-0.7,0.4-1.5,0.9-2.2,1.3
		c-0.7,0.4-1.3,0.8-2,1.1c-0.7,0.4-1.4,0.8-2.2,1.2c-0.2,0.1-0.5,0.2-0.7,0.4c-0.7,0.4-1.4,0.7-2.1,1.1c-0.3,0.2-0.6,0.3-1,0.5
		c-0.8,0.4-1.7,0.9-2.6,1.3c-1,0.5-2.1,1-3.1,1.5c-0.8,0.4-1.7,0.8-2.6,1.2c-0.4,0.2-0.8,0.4-1.2,0.5c-0.7,0.3-1.5,0.6-2.2,1
		c-3.4,1.5-6.9,2.8-10.5,4.1c-0.9,0.3-1.9,0.7-2.9,1c-0.6,0.2-1.1,0.4-1.7,0.6c-0.5,0.2-1,0.3-1.5,0.5c-1.5,0.5-3.1,1-4.7,1.4
		c-0.6,0.2-1.1,0.3-1.7,0.5c-0.5,0.1-1.1,0.3-1.6,0.4c-1.1,0.3-2.1,0.5-3.2,0.8c-0.5,0.1-0.9,0.2-1.4,0.3c-1.7,0.4-3.3,0.7-5,1.1
		c-0.4,0.1-0.8,0.2-1.2,0.2c-0.4,0.1-0.9,0.2-1.3,0.2c-0.8,0.1-1.5,0.3-2.3,0.4c-0.5,0.1-1,0.2-1.6,0.3c-0.7,0.1-1.4,0.2-2.1,0.3
		c-0.6,0.1-1.2,0.2-1.8,0.3c-5.2,0.7-10.6,1.3-16.1,1.5c-3.1,0.2-6.2,0.2-9.2,0.2c-1.2,0-2.4,0-3.5,0c-1.5,0-2.9-0.1-4.3-0.1
		c-0.8,0-1.7-0.1-2.5-0.1c-0.2,0-0.3,0-0.5,0c-0.8,0-1.6-0.1-2.4-0.2c-0.5,0-1.1-0.1-1.6-0.1c-0.6,0-1.3-0.1-1.9-0.2
		c-0.4,0-0.7-0.1-1.1-0.1c-0.6-0.1-1.3-0.1-1.9-0.2c-0.5,0-1-0.1-1.5-0.2c-0.5-0.1-1-0.1-1.5-0.2c-0.5-0.1-1-0.1-1.6-0.2
		c-0.7-0.1-1.3-0.2-2-0.3c-0.3,0-0.7-0.1-1-0.2c-0.5-0.1-1-0.1-1.5-0.2c-0.7-0.1-1.4-0.2-2.1-0.3c-0.9-0.2-1.8-0.3-2.7-0.5
		c-4.9-0.9-9.6-2-14.2-3.3c-0.8-0.2-1.5-0.4-2.3-0.6c-0.6-0.2-1.2-0.3-1.8-0.5c-0.8-0.2-1.5-0.4-2.3-0.7c-0.9-0.3-1.9-0.6-2.8-0.9
		c-0.6-0.2-1.2-0.4-1.7-0.6c-0.7-0.2-1.3-0.4-2-0.7c-0.2-0.1-0.4-0.1-0.6-0.2c-0.7-0.2-1.3-0.5-2-0.7c-1.5-0.6-3.1-1.1-4.6-1.7
		c-0.6-0.2-1.2-0.5-1.8-0.7c-1.1-0.4-2.3-0.9-3.4-1.4c-0.6-0.3-1.3-0.5-1.9-0.8c-2.7-1.2-5.3-2.4-7.8-3.6c-0.8-0.4-1.5-0.8-2.3-1.1
		c-1.3-0.7-2.6-1.3-3.9-2c-0.5-0.3-1-0.6-1.6-0.8c-6-3.3-11.5-6.6-16.3-9.8c-0.4-0.3-0.8-0.5-1.2-0.8c-4.4-3-8.2-5.8-11.5-8.4
		c-0.8-0.6-1.5-1.2-2.2-1.8c-0.4-0.3-0.7-0.6-1.1-0.9c-0.3-0.2-0.6-0.4-0.8-0.7c-2.8-2.3-5-4.3-6.7-5.9v-30.7
		c17.8-0.1,43.5-1.9,72.5-10c52.6-14.8,83.3-41.2,107-57.6c11-7.6,24.2-15.6,40-23.3v1c0,1.1,0,2.2,0,3.3c0,0.7,0,1.3,0,2v0.2
		c0,1,0,2,0.1,2.9c0,1.4,0.1,2.8,0.2,4.3c0.1,1.4,0.1,2.8,0.3,4.2c0.1,1.1,0.1,2.2,0.3,3.3c0,0.6,0.1,1.3,0.2,1.9c0,0.1,0,0.3,0,0.4
		c0.1,0.8,0.1,1.6,0.2,2.4c0,0.1,0,0.2,0,0.3c0,0.1,0,0.2,0,0.3c0.1,1.3,0.3,2.5,0.4,3.7c0,0.2,0,0.3,0.1,0.5c0,0.1,0,0.2,0,0.4
		c0.1,1.1,0.3,2.2,0.4,3.4c0.2,1.3,0.4,2.6,0.5,3.9c0.2,1.2,0.4,2.3,0.5,3.5c0.1,0.6,0.2,1.3,0.3,1.9c0.1,0.9,0.3,1.7,0.5,2.6
		c0,0.1,0,0.3,0.1,0.4c0,0.1,0.1,0.3,0.1,0.4c0.2,0.9,0.3,1.9,0.5,2.8c0,0.1,0,0.1,0,0.2c0,0.3,0.1,0.6,0.2,0.9
		c0.2,0.9,0.4,1.8,0.5,2.6c0.1,0.6,0.2,1.1,0.4,1.7c0.1,0.7,0.3,1.4,0.5,2.1c0,0.1,0.1,0.3,0.1,0.4c0.1,0.3,0.1,0.6,0.2,0.9
		c0.2,1,0.4,1.9,0.7,2.8c0.3,1,0.5,2.1,0.8,3.1c0.2,0.9,0.4,1.7,0.7,2.6c0.2,0.6,0.3,1.1,0.5,1.7c0.3,1,0.6,2,0.8,3
		c0,0.1,0,0.2,0.1,0.3c0,0,0,0.1,0,0.1c0.3,1,0.6,2,0.9,3c0.2,0.8,0.5,1.5,0.7,2.3c0,0.1,0.1,0.3,0.1,0.4c0.3,0.8,0.5,1.6,0.8,2.4
		c0,0.1,0.1,0.2,0.1,0.3c0.3,0.8,0.5,1.6,0.8,2.4c0.3,0.9,0.6,1.8,0.9,2.8c0.2,0.5,0.3,1,0.5,1.5c0.2,0.5,0.3,1,0.5,1.5
		c0.7,2.1,1.5,4.1,2.3,6.1c0.3,0.8,0.6,1.6,0.9,2.4c0.2,0.6,0.4,1.1,0.7,1.7c0.6,1.5,1.2,2.9,1.8,4.3c0.4,0.9,0.8,1.8,1.1,2.7
		c0.4,1,0.9,2,1.3,3c0,0.1,0,0.1,0.1,0.2c0,0.1,0.1,0.2,0.1,0.2c0.1,0.2,0.1,0.3,0.2,0.5c0.4,0.9,0.8,1.7,1.1,2.5
		c0.5,1.1,1,2.1,1.5,3.2c0.5,1,1,2.1,1.5,3.1c0.4,0.8,0.8,1.6,1.2,2.4C249.2,712.7,250.1,714.5,251,716.3z"/>
	<path class="st4" d="M261.5,717.5L261.5,717.5L251,728c-0.9-1.9-1.8-3.8-2.7-5.8c-0.4-0.9-0.8-1.7-1.2-2.6c3.5-3.1,6.8-6.1,9.8-9
		L261.5,717.5z"/>
	<image style="overflow:visible;" width="91" height="76" xlink:href="25808D11.jpg"  transform="matrix(1 0 0 1 -221 224)">
	</image>
	<image style="overflow:visible;" width="85" height="80" xlink:href="25808D13.jpg"  transform="matrix(1 0 0 1 -271 277)">
	</image>
</g>
</svg>
