<?xml version="1.0" encoding="utf-8"?>
<!-- Generator: Adobe Illustrator 24.1.1, SVG Export Plug-In . SVG Version: 6.00 Build 0)  -->
<svg version="1.1" id="Layer_1" xmlns="http://www.w3.org/2000/svg" xmlns:xlink="http://www.w3.org/1999/xlink" x="0px" y="0px"
	 viewBox="0 0 1024 768" style="enable-background:new 0 0 1024 768;" xml:space="preserve">
<style type="text/css">
	.st0{opacity:0.6;}
	.st1{fill:#393CB0;}
	.st2{opacity:0.5;}
	.st3{fill:none;stroke:#1B1464;stroke-width:1.5971;stroke-miterlimit:10;}
	.st4{fill:#1B1464;}
	.st5{fill:none;stroke:#1B1464;stroke-width:1.5117;stroke-miterlimit:10;}
</style>
<g class="st0">
	<path class="st1" d="M1024,620.33V768H110.95V577.01c47.12-109.25,85.68-174.03,117.23-210.34c1.23-1.41,2.44-2.78,3.64-4.11
		c2.38-2.6,4.69-5.04,6.99-7.33c4.84-4.84,9.51-8.98,13.99-12.49c25.38-19.89,45.28-19.74,60.92-11.72
		c46.49,23.86,54.15,116.85,92.12,190.6c1.12,2.18,2.27,4.35,3.45,6.49c4.94,9.02,10.38,17.7,16.46,25.87
		c0.82,1.11,1.66,2.21,2.5,3.28c5.16,6.64,10.76,12.9,16.88,18.71c63.43,60.2,99.26-7.55,184.03-21.94
		c19.88,17.14,37,33.39,57.38,40.91c15.18,5.62,32.18,6.38,53.48-0.91c6.42-2.2,14.31-3.6,23.38-4.36
		c14.03,8.73,27.83,16.08,43.17,20.35c40.01,33.03,69.24,64.16,126.04,45.36c26.15-8.66,44.66-23.44,60.75-39.32
		C1004.04,617.67,1014.32,619.12,1024,620.33z"/>
</g>
<g>
	<path class="st1" d="M1024,620.33V768H0V520.98c92.89-222.85,148.82-247.2,182.61-229.26c11.75,6.23,20.74,17.53,28.35,32.13
		c0.91,1.71,1.79,3.48,2.66,5.31c5.31,11.12,9.99,23.86,14.55,37.5c0.04,0.15,0.1,0.28,0.14,0.43
		c16.83,50.44,32.17,113.15,72.65,152.92c21.19,20.83,38.96,25.23,56.83,21.83c1.98-0.37,3.96-0.84,5.94-1.4
		c3.22-0.89,6.47-2.01,9.75-3.32c10.22-4.01,20.79-9.7,32.34-15.51c29.39-14.82,65.09-30.54,117.33-22.07
		c38.25,6.21,65.4,22.15,87.84,39.52c2.41,1.87,2.81,2.24,18.14,14.96c24.11,20.01,26.61,21.97,29.79,24.28
		c10.78,7.84,18.01,13.09,27.59,16.63c13.95,5.14,27.68,7.91,53.48-0.91c6.42-2.2,14.31-3.6,23.38-4.36
		c26.37-2.18,62.69,1.14,101.82,6.48c42.47,5.79,88.24,13.93,128.15,19.92C1004.04,617.67,1014.32,619.12,1024,620.33z"/>
</g>
<g class="st2">
	<g>
		<path class="st3" d="M598.96,530.89c13.43-12.46,48.79-41.27,56.98-106.84c7.46-59.68,26.34-39.71,30.21-83.77
			c0.55-6.26,0.86-11.83,1.04-16.41"/>
		<g>
			<path class="st4" d="M693.14,324.38c0.12-3.31-2.47-6.1-5.78-6.22c-3.31-0.12-6.1,2.47-6.22,5.78c-0.12,3.31,2.47,6.1,5.78,6.22
				S693.02,327.69,693.14,324.38z"/>
		</g>
	</g>
</g>
<g class="st2">
	<g>
		<path class="st5" d="M636.44,560.69c29.7-38.12,71.54-81.42,125.19-108.4c15.8-7.95,30.89-13.6,45.01-17.57"/>
		<g>
			<path class="st4" d="M807.94,440.35c3.02-0.86,4.77-4,3.91-7.02c-0.86-3.02-4-4.77-7.02-3.91c-3.02,0.86-4.77,4-3.91,7.02
				C801.78,439.46,804.92,441.21,807.94,440.35z"/>
		</g>
	</g>
</g>
</svg>
