<?xml version="1.0" encoding="utf-8"?>
<!-- Generator: Adobe Illustrator 24.1.1, SVG Export Plug-In . SVG Version: 6.00 Build 0)  -->
<svg version="1.1" id="Layer_1" xmlns="http://www.w3.org/2000/svg" xmlns:xlink="http://www.w3.org/1999/xlink" x="0px" y="0px"
	 viewBox="0 0 1366 768" style="enable-background:new 0 0 1366 768;" xml:space="preserve">
<style type="text/css">
	.st0{fill:#6B28D8;}
	.st1{fill:#4D19A2;}
	.st2{fill:#8833FE;}
	.st3{fill:none;stroke:#47EAFE;stroke-width:12.6496;stroke-linecap:round;stroke-miterlimit:10;}
	.st4{fill:none;stroke:#FD5CA4;stroke-width:9.8952;stroke-linecap:round;stroke-linejoin:round;stroke-miterlimit:10;}
	.st5{fill:none;stroke:#FFFF00;stroke-width:27.063;stroke-miterlimit:10;}
	.st6{fill:none;stroke:#47EAFE;stroke-width:11.8863;stroke-linecap:round;stroke-miterlimit:10;}
	.st7{fill:#F1BE46;}
	.st8{fill:none;stroke:#FFD88C;stroke-width:2.8595;stroke-linecap:round;stroke-linejoin:round;}
	.st9{fill:#C38685;}
	.st10{fill:#DAA09D;}
	.st11{fill:#E1A839;}
	.st12{fill:#43549A;}
	.st13{fill:#35428B;}
	.st14{fill:#E9AF3D;}
	.st15{fill:#D5E4EC;}
	.st16{fill:#FDC6A2;}
	.st17{fill:#D98A77;}
	.st18{fill:#F8B894;}
	.st19{fill:#F1AE8B;}
	.st20{fill:#DAE5F2;}
	.st21{fill:#C4D7E9;}
	.st22{opacity:0.2;fill:#E89E85;enable-background:new    ;}
	.st23{fill:#FFFFFF;}
	.st24{fill:#E99F86;}
	
		.st25{opacity:0.77;fill:none;stroke:#FFFFFF;stroke-width:2.8595;stroke-linecap:round;stroke-linejoin:round;enable-background:new    ;}
	.st26{fill:#FFB29C;}
	.st27{opacity:0.45;fill:#E48C7C;enable-background:new    ;}
	.st28{fill:#D27E72;}
	.st29{fill:#E48C7C;}
	.st30{opacity:0.72;fill:#FFFFFF;enable-background:new    ;}
	.st31{opacity:0.42;fill:#FFFFFF;enable-background:new    ;}
	.st32{fill:none;stroke:#BE8116;stroke-width:2.8595;stroke-linecap:round;stroke-linejoin:round;}
	.st33{fill:#253246;}
	.st34{opacity:0.44;fill:#FFFFFF;enable-background:new    ;}
	.st35{opacity:0.67;fill:#FFFFFF;enable-background:new    ;}
	.st36{opacity:0.47;fill:#FFFFFF;enable-background:new    ;}
	.st37{fill:#F3CDC8;}
	.st38{fill:#E4B4B0;}
	.st39{fill:#CD9190;}
	.st40{opacity:0.4;fill:#FFFFFF;enable-background:new    ;}
	.st41{opacity:0.34;fill:#FFFFFF;enable-background:new    ;}
	.st42{opacity:0.2;fill:#FFF4F9;enable-background:new    ;}
	.st43{opacity:0.49;fill:#FFF4F9;enable-background:new    ;}
	.st44{fill:#FFD88C;}
	.st45{fill:none;stroke:#FF9FC7;stroke-width:2.8595;stroke-miterlimit:10;}
	.st46{fill:#61DAFB;}
	.st47{fill:#F2CCC7;enable-background:new    ;}
	.st48{fill:#ECC0BD;enable-background:new    ;}
	.st49{fill:#539E43;}
	.st50{fill:none;}
	.st51{fill:#5D87A1;}
	.st52{fill:#F8981D;}
	.st53{fill-rule:evenodd;clip-rule:evenodd;fill:#8E714E;}
	.st54{fill-rule:evenodd;clip-rule:evenodd;fill:#442D22;}
	.st55{fill-rule:evenodd;clip-rule:evenodd;fill:#FFFFFF;}
	.st56{fill-rule:evenodd;clip-rule:evenodd;fill:#A6A385;}
	.st57{fill-rule:evenodd;clip-rule:evenodd;fill:#499D4A;}
	.st58{fill-rule:evenodd;clip-rule:evenodd;fill:#58AA50;}
	.st59{fill:#343434;}
	.st60{fill:#E535AB;}
	.st61{fill:#3F5C6C;}
	.st62{fill:#B0D3F0;}
	.st63{fill:#ECF0F1;}
	.st64{fill:#3B97D3;}
</style>
<g>
	<g>
		<rect class="st0" width="980.4" height="768"/>
		<path class="st1" d="M1365.6,0.4L532.2,768h833.5C1365.6,768,1365.6,0.7,1365.6,0.4z"/>
		<polygon class="st2" points="691.5,0.4 972.6,363.4 1366,0.7 		"/>
	</g>
	<polygon class="st3" points="246.8,671 199,655.7 219.5,608.7 267.3,624.1 	"/>
	<path class="st4" d="M109.6,308c1.7-8.4,9.2-15.6,18.4-18.8c9.2-3.2,19.9-2.7,29.2,0.4c9.3,3.1,17.2,8.7,23.6,15.3
		c0.4-10.1,0.9-20.4,4.7-29.9c3.8-9.6,11.3-18.5,22.3-22.3c12.5-4.3,28.1-0.6,36.1,8.7"/>
	<polyline class="st5" points="512.4,-3.8 480.9,112 628.1,-8.7 	"/>
	<ellipse class="st6" cx="1154" cy="367.6" rx="73.9" ry="63.3"/>
	<g>
		<g>
			<g id="Layer_1-2">
				<path class="st7" d="M816.7,735.1c0,4.5-0.5,9.3-3.7,12.7c-4.2,4.6-11.5,5.1-18,5.5l-57.2,1.9c-10.2,0.7-20.5,0.3-30.6-1.1
					c-10.2-1.4-19.6-5.9-26.7-12.8c-4.3-4.8-7.4-10.4-9-16.4c-2.4-7.7-2.8-15.8-1.4-23.6c5.1-26.7,35.5-45.8,64.6-39.3
					c12.6,2.7,23.1,9.7,34.6,14.9c12.3,5.5,25.1,1.8,36.6,6.7l5.5,2.3C815.4,702.1,817.2,718.6,816.7,735.1z"/>
				<path class="st8" d="M674.1,693c9.6-21.4,35.9-35.5,61.6-29.7"/>
				<path class="st9" d="M1330.8,629.1h-9.9l0.2-16.1c0.1-4.7,4.3-8.5,9.5-8.6l0,0L1330.8,629.1z"/>
				<path class="st10" d="M1257.8,615.6h75.9c2.5,0,4.5,1.8,4.5,4.1v9l0,0h-84.9l0,0v-9C1253.3,617.4,1255.3,615.6,1257.8,615.6z"/>
				<path class="st7" d="M826.3,652c-1.7-1-30.3-16.9-56.9-15.9c0,0,16.8,31.3,14.6,53.6"/>
				<path class="st11" d="M810.1,666.2l-5.6,5L784,689.5c1.6-15.5-6.1-35.5-11-46c-1.9-4.2-3.3-6.9-3.6-7.4
					C779.2,637.3,799.7,642.8,810.1,666.2z"/>
				<path class="st12" d="M1181.2,607.6L1181.2,607.6c-1,0.4-2,0.7-3,1l-0.6,0.1c-20.2,4.5-104.9,8.8-121,8.9h-0.5
					c-12.7,0-68.3-2.7-101-6.1l-3.3-0.2c-4.5-0.5-8.4-1-11.6-1.5c-1.8-0.3-3.4-0.6-4.8-0.8l-0.8-0.2l0,0c-3-0.7-4.4-1.4-3.4-2.2l0,0
					c0.3-0.2,0.5-0.3,0.8-0.4c2.2-0.8,4.3-1.9,6.2-3.2l0,0c1.4-0.9,2.6-1.9,3.8-3.1c0.1-0.1,0.2-0.2,0.3-0.2
					c0.9-0.8,1.7-1.7,2.4-2.6c0.1-0.1,0.2-0.2,0.3-0.4l0,0c4.3-5.9,7.4-12.6,9-19.6c1.7-6,3-12.2,5.4-18.1c1.5-4.1,3.7-8,6.4-11.6
					c0.8-1.1,1.7-2.1,2.7-3c0.5-0.5,1.1-1,1.7-1.6c4.1-3.5,8.8-6.5,13.8-8.9c1.8-0.9,3.7-1.7,5.6-2.4c9.7-3.7,19.9-6.2,30.3-7.5
					c3-0.4,5.7-0.7,8.6-1.1c9-1,18.3-1.6,27.7-1.7h0.5c12.1,0.2,24.2,1.1,36.2,2.7c12.5,1.5,24.6,4.9,35.9,10.1l0,0
					c1.2,0.6,2.4,1.2,3.6,1.9c1.8,1,3.5,2,5.2,3.2c1.7,1.2,3.4,2.4,5,3.7c5.5,4.9,9.5,11,11.6,17.8c1.7,4.8,3,9.9,4.3,14.8
					c1.6,7.5,4.7,14.7,9.3,21.1c0.8,1,1.7,2,2.7,2.9c1.3,1.2,2.6,2.4,4.1,3.4c1,0.6,2,1.2,3,1.7c1,0.5,2.1,1,3.1,1.4l0.5,0.2
					C1182.2,606.6,1182.2,607.1,1181.2,607.6z"/>
				<path class="st13" d="M1178,608.5c-13.2,2.3-26.5,3.9-39.9,4.6c6.9-32.8-2-62.2-9.4-79.2c4.9,2.4,9.5,5.3,13.6,8.7
					c19.2,16.4,11.2,45.8,32,59.9c1.9,1.3,4,2.4,6.2,3.2C1182.9,606.8,1181.7,607.6,1178,608.5z"/>
				<path class="st13" d="M934.8,608.2c13.2,2.3,26.5,3.9,39.9,4.6c-6.9-32.8,2-62.2,9.4-79.2c-4.9,2.4-9.5,5.3-13.6,8.7
					c-19.2,16.4-11.2,45.8-32,59.9c-1.9,1.4-4,2.6-6.2,3.4C929.8,606.5,931.1,607.4,934.8,608.2z"/>
				<ellipse class="st13" cx="980.6" cy="583.1" rx="4.2" ry="3.9"/>
				<ellipse class="st13" cx="982.6" cy="575.8" rx="1.9" ry="1.7"/>
				<ellipse class="st13" cx="988.7" cy="582.5" rx="1.7" ry="1.5"/>
				<ellipse class="st13" cx="990.6" cy="575.6" rx="3" ry="2.8"/>
				<ellipse class="st13" cx="987.6" cy="590.2" rx="3" ry="2.7"/>
				<path class="st7" d="M887.5,685.8l-42.7-28.1c3.8-5.4,8.7-10.2,14.3-14.1c7.1-5.1,15-9.1,23.5-11.8c4.5-1.5,9.2-2.6,13.9-3.4
					C896.5,628.4,885.2,670.4,887.5,685.8z"/>
				<path class="st11" d="M896.5,628.4c0,0-23.9,13.7-25.1,30.1l13,26.6l2.1-0.8C886.5,684.2,894.8,633.1,896.5,628.4z"/>
				<path class="st14" d="M743.7,750.9c0-12.7,10.9-23.2,24.9-23.9l92.4-4.3c17.1,0,30.9,12.6,30.9,28.2l0,0L743.7,750.9
					L743.7,750.9z"/>
				<path class="st15" d="M931,606.2c2.8-1,5.3-2.4,7.6-4.2c-1.2,2.5-2.6,4.8-4.3,7C930,608.1,928.5,607.1,931,606.2z"/>
				<path class="st15" d="M1177.7,608.8c-1.4-1.8-2.6-3.8-3.6-5.8c1.9,1.3,4,2.4,6.2,3.2C1182.6,607.1,1181.4,608,1177.7,608.8z"/>
				<path d="M996.5,382.3c-36.2-33.9-25.3-83.1-25.3-83.1l21.9,10.4c0,0-16.8-39.9,16.4-64.2c0,0-6.7,18.1,8.4,27.7
					c0,0,6-34.2,39.6-38.9c0,0-4.2,21.5,5.5,28.9c0,0,43.8-37.7,128.1-11.1c0,0-14.3,16.9-27.4,25c15.5-0.2,31,1.6,45.9,5.5
					c-34.3,6.7-70.5,23.1-87.1,52.5c-5.6,9.2-9.3,19.3-11.1,29.8"/>
				<path class="st16" d="M1075.4,520.3c0.6,1.9,0.1,4-1.4,5.5c-4.3,4.6-10.4,7.4-16.9,7.8h-0.2c-6.6-0.4-12.7-3.3-16.9-7.8
					c-1.4-1.5-2-3.5-1.4-5.5c4-14.5,2.5-44.9,2.5-44.9l15.8-4.9h0.2l15.8,4.9C1072.9,475.4,1071.4,505.7,1075.4,520.3z"/>
				<path d="M1136.3,298.8c0,4.3,11.4,50.8-20.7,73.1v-73.1C1115.7,298.8,1136.3,298.4,1136.3,298.8z"/>
				<ellipse class="st16" cx="995.7" cy="388.8" rx="22.5" ry="20.6"/>
				<ellipse class="st16" cx="1116" cy="388.2" rx="22.5" ry="20.6"/>
				<ellipse class="st17" cx="994.7" cy="389.7" rx="10.4" ry="9.5"/>
				<ellipse class="st17" cx="1119.7" cy="388.1" rx="10.7" ry="9.7"/>
				<path class="st16" d="M1120.9,461.9c-14.8,13.9-44.3,42.3-64.5,42.3c0,0,0-0.4-0.1-1v1c-20.2,0-49.7-28.5-64.5-42.3
					c-11.2-10.5-5.8-24.1-1.9-36.3c2.8-8.6,4.6-17.4,5.2-26.4c1-17-0.9-33.7,1.4-50.8c4.7-35,53.1-33.7,59.9-33.4
					c6.8-0.4,55.2-1.6,59.9,33.4c3.6,26.7-2.2,53.8,7.2,79.8C1127.6,439.6,1131.4,452,1120.9,461.9z"/>
				<path class="st18" d="M1115,342.7c-15.4-19.6-52.5-18.7-58.6-18.4c-6-0.3-43.2-1.2-58.7,18.3c9-29.1,52.2-27.9,58.7-27.6
					C1062.8,314.7,1106.1,313.4,1115,342.7z"/>
				<path d="M1117.7,359.5v2.7c0-4.7-0.4-9.3-1.3-13.9c-4.7-35-53.1-33.7-59.9-33.4c-6.8-0.4-55.2-1.6-59.9,33.4
					c-0.8,5.6-1.2,11.3-1.3,16.9c-0.3-9.4,0-18.9,1.1-28.3c1.8-13.3,10.9-22.3,22.9-27.5c4.4-7.1,10.5-13.2,18-17.8
					c-2.8,3.9-4.1,8.5-4,13.2c3.7-6.5,9.4-11.8,16.5-15.2l-1.9,5.8c-1,2.7-1.7,5.4-2.1,8.2c7.4-0.5,14.8-0.4,22.2,0.1
					c8,0.5,15.9,2.1,23.4,4.9c13.4,4.6,22.9,15.5,24.7,28.5C1117.4,344.6,1117.9,352.1,1117.7,359.5z"/>
				<path class="st19" d="M1073.5,506.9c-15.6,1.3-26.1-1.7-32.7-4.9c0-0.6,0-1.3,0-1.9c4.7,2.4,9.9,3.8,15.2,4v-1
					c0,0.7,0.1,1,0.1,1c4.5-0.2,8.9-1.2,12.9-3c1.2-0.5,2.5-1.1,3.7-1.7c0,0.7,0,1.5,0,2.2C1073.2,503.5,1073.5,505.2,1073.5,506.9z
					"/>
				<path class="st20" d="M1186.2,615v132.3H925.7V615c0-7.1,4.5-13.7,11.5-16.7c2.4-1.1,5.1-1.7,7.8-1.8l0,0c0.4,0,0.7,0,1.1,0
					h219.7c0.6,0,1.2,0,1.9,0l0,0c2.6,0.2,5.1,0.9,7.3,1.9C1181.8,601.5,1186.2,607.9,1186.2,615z"/>
				<path class="st21" d="M1186.2,692.7v61.8H925.6v-50.7C980.4,718.3,1081.9,734.2,1186.2,692.7z"/>
				<ellipse cx="1074.6" cy="295.4" rx="4.3" ry="3.9"/>
				<ellipse cx="1086" cy="291.7" rx="2.3" ry="2.1"/>
				<ellipse cx="1078.9" cy="288.7" rx="2.3" ry="2.1"/>
				<ellipse cx="1138.9" cy="246.8" rx="3.9" ry="3.6"/>
				<path class="st22" d="M1127.7,448.5c-0.4,5.1-2.8,9.8-6.7,13.4c-14.8,13.9-44.3,42.3-64.5,42.3c0,0,0-0.4-0.1-1v1
					c-20.2,0-49.7-28.5-64.5-42.3c-3.9-3.6-6.3-8.3-6.6-13.4C1024.8,483.9,1088.1,483.9,1127.7,448.5L1127.7,448.5z"/>
				<path class="st23" d="M1084.9,434.6c3.5,0,6.4,2.6,6.4,5.9c0,0.5-0.1,0.9-0.2,1.4c-4,16.2-21.7,26.3-39.4,22.6
					c-12.3-2.6-22-11.4-24.8-22.6c-0.9-3.1,1.2-6.3,4.7-7.1c0.5-0.1,1-0.2,1.5-0.2H1084.9z"/>
				<ellipse class="st23" cx="1000.7" cy="358.9" rx="1.7" ry="1.5"/>
				<ellipse class="st23" cx="1007.4" cy="356.6" rx="1.5" ry="1.3"/>
				<path d="M1045.2,367.5c-0.7,1.9-3,3-5.2,2.3c0,0,0,0-0.1,0h-0.4c-15-5.5-23.3,1.3-23.7,1.6c-0.8,0.6-1.8,1-2.8,1h-0.2
					c-2.3-0.1-4-1.9-3.9-3.9c0,0,0,0,0,0c0-1,0.5-1.9,1.3-2.5c0.5-0.4,12.4-10.4,32.4-3C1044.7,363.5,1045.8,365.6,1045.2,367.5z"/>
				<path d="M1069.4,367.5c0.7,1.9,3,3,5.2,2.3c0,0,0,0,0.1,0h0.4c15-5.5,23.3,1.3,23.7,1.6c0.8,0.6,1.8,1,2.8,1h0.2
					c2.3-0.1,4-1.9,3.9-3.9c0,0,0,0,0,0c-0.1-1-0.5-1.9-1.3-2.5c-0.5-0.4-12.4-10.4-32.4-3C1069.8,363.5,1068.7,365.6,1069.4,367.5z
					"/>
				<path class="st24" d="M1057.2,395.7L1057.2,395.7c3.4,0,6.1,2.5,6.1,5.5v21.4c0,3.1-2.7,5.5-6.1,5.5l0,0c-3.4,0-6.1-2.5-6.1-5.5
					v-21.4C1051.2,398.2,1053.9,395.7,1057.2,395.7z"/>
				<ellipse cx="1029.1" cy="385.2" rx="8.1" ry="9.3"/>
				<ellipse cx="1083.5" cy="385.2" rx="8.1" ry="9.3"/>
				<path class="st25" d="M996.5,369.4c0.6,12.5,0.4,25.1-0.6,37.6"/>
				<path class="st26" d="M679.5,747.7h675.7c5.1,0,9.2,4.3,9.2,9.5v0c0,5.3-4.1,9.5-9.2,9.5H679.5c-5.1,0-9.2-4.3-9.2-9.5v0
					C670.3,752,674.4,747.7,679.5,747.7z"/>
				<path class="st27" d="M1355.1,757.3c0,5.3-4.1,9.5-9,9.5H679.3c-5,0-9-4.3-9-9.5l0,0c0-1.8,0.5-3.6,1.4-5.1
					c1.7,2.7,4.5,4.4,7.6,4.4h666.8c2.4,0,4.7-1,6.4-2.7c0.5-0.5,0.9-1,1.2-1.6C1354.6,753.7,1355.1,755.5,1355.1,757.3z"/>
				<path class="st28" d="M1082.6,760.4h90c1.7,0,3.1,1.3,3.1,2.8l0,0c0,1.6-1.4,2.8-3.1,2.8h-90c-1.7,0-3.1-1.3-3.1-2.8l0,0
					C1079.5,761.7,1080.9,760.4,1082.6,760.4z"/>
				<path class="st28" d="M1187.1,760.4h12.2c1.7,0,3.1,1.3,3.1,2.8l0,0c0,1.6-1.4,2.8-3.1,2.8h-12.2c-1.7,0-3.1-1.3-3.1-2.8l0,0
					C1184,761.7,1185.4,760.4,1187.1,760.4z"/>
				<path class="st23" d="M706.9,747.6h90c1.7,0,3.1,1.3,3.1,2.8l0,0c0,1.6-1.4,2.8-3.1,2.8h-90c-1.7,0-3.1-1.3-3.1-2.8l0,0
					C703.8,748.9,705.2,747.6,706.9,747.6z"/>
				<path class="st23" d="M811.4,747.6h12.2c1.7,0,3.1,1.3,3.1,2.8l0,0c0,1.6-1.4,2.8-3.1,2.8h-12.2c-1.7,0-3.1-1.3-3.1-2.8l0,0
					C808.3,748.9,809.7,747.6,811.4,747.6z"/>
				<path class="st28" d="M1332.3,760.4h10.5c1.5,0,2.7,1.3,2.7,2.8l0,0c0,1.6-1.2,2.8-2.7,2.8h-10.5c-1.5,0-2.7-1.3-2.7-2.8l0,0
					C1329.6,761.7,1330.8,760.4,1332.3,760.4z"/>
				<ellipse class="st21" cx="1132.5" cy="702.1" rx="4.6" ry="4.2"/>
				<ellipse class="st21" cx="1009.7" cy="630.1" rx="17.2" ry="15.7"/>
				<ellipse class="st21" cx="1124.7" cy="691.6" rx="2.4" ry="2.2"/>
				<ellipse class="st21" cx="1124.2" cy="711.7" rx="5.7" ry="5.2"/>
				<ellipse class="st21" cx="1143.3" cy="698.6" rx="2.8" ry="2.6"/>
				<ellipse class="st21" cx="1147.4" cy="685.4" rx="6.6" ry="6"/>
				<path class="st23" d="M1001.6,601.8h-52.8v-5.5h58.8C1007.6,599.4,1004.9,601.8,1001.6,601.8z"/>
				<path class="st23" d="M1025.2,601.8h-4.8c-3.3,0-6-2.4-6-5.5h16.8C1031.2,599.4,1028.5,601.8,1025.2,601.8z"/>
				<ellipse class="st29" cx="918.9" cy="757.2" rx="4.4" ry="4"/>
				<ellipse class="st29" cx="931.7" cy="752.4" rx="1.6" ry="1.4"/>
				<ellipse class="st29" cx="899.6" cy="756.7" rx="4.3" ry="3.9"/>
				<ellipse class="st29" cx="907.8" cy="752.4" rx="1.3" ry="1.1"/>
				<ellipse class="st29" cx="910.7" cy="758.5" rx="1.9" ry="1.7"/>
				<ellipse class="st29" cx="930.1" cy="760.6" rx="2.3" ry="2.1"/>
				<ellipse class="st29" cx="924.7" cy="751.9" rx="1.4" ry="1.3"/>
				<ellipse class="st7" cx="836.1" cy="691.7" rx="52" ry="45.3"/>
				<path class="st11" d="M888.1,692.2c0,25-23.3,45.3-52,45.3s-52-20.3-52-45.3c0-1,0-2,0-3.1c2,23.6,24.5,42.3,52,42.3
					s50-18.7,51.8-42.3C887.9,690.1,888.1,691.1,888.1,692.2z"/>
				<ellipse class="st23" cx="948.8" cy="602.7" rx="7.1" ry="6.4"/>
				<ellipse class="st30" cx="953.3" cy="612.6" rx="2.2" ry="2"/>
				<ellipse class="st31" cx="949.3" cy="620.1" rx="3.5" ry="3.2"/>
				<ellipse class="st23" cx="937.9" cy="608.7" rx="2.5" ry="2.3"/>
				<ellipse class="st23" cx="945" cy="612.7" rx="1.2" ry="1.1"/>
				<line class="st32" x1="802.6" y1="696.8" x2="766.7" y2="689.1"/>
				<line class="st32" x1="802.6" y1="708.1" x2="763.7" y2="718.6"/>
				<line class="st32" x1="802.6" y1="702.5" x2="778.3" y2="702.5"/>
				<line class="st32" x1="866.1" y1="696.8" x2="902" y2="689.1"/>
				<line class="st32" x1="866.1" y1="708.1" x2="905" y2="718.6"/>
				<line class="st32" x1="866.1" y1="702.5" x2="890.4" y2="702.5"/>
				<path class="st23" d="M818.7,664.3L818.7,664.3c7.9,0,14.3,5.8,14.3,13v5.7c0,7.2-6.4,13-14.2,13h0c-7.9,0-14.2-5.8-14.2-13
					v-5.7C804.4,670.1,810.8,664.3,818.7,664.3z"/>
				<ellipse class="st33" cx="818.7" cy="680.8" rx="5.2" ry="4.7"/>
				<path class="st23" d="M854,664.7L854,664.7c8,0,14.5,5.9,14.5,13.2v5.8c0,7.3-6.5,13.2-14.5,13.2h0c-8,0-14.5-5.9-14.5-13.2
					v-5.8C839.6,670.6,846,664.7,854,664.7z"/>
				<path class="st33" d="M834.5,695.9c-1.1,0-2,0.8-2,1.8c0,0.5,0.2,0.9,0.5,1.2c1.1,1.9,3.7,2.6,5.7,1.6c0.7-0.4,1.3-0.9,1.7-1.6
					c0.7-0.8,0.6-1.9-0.2-2.6c-0.4-0.3-0.8-0.4-1.3-0.5H834.5z"/>
				<path class="st34" d="M832.8,646.2c-23.9,0.5-38.9,18.7-39.7,19.5l-0.9,1.1l2.4,1.6l0.9-1.1c0-0.2,15-17.9,37.3-18.4
					C832.9,649,832.7,646.2,832.8,646.2z"/>
				<ellipse class="st23" cx="828" cy="651" rx="2.9" ry="2.6"/>
				<ellipse class="st35" cx="826.9" cy="655.4" rx="1" ry="0.9"/>
				<ellipse class="st36" cx="828" cy="659.1" rx="1.5" ry="1.3"/>
				<ellipse class="st35" cx="833.4" cy="654.4" rx="1.4" ry="1.3"/>
				<ellipse class="st23" cx="833.8" cy="649" rx="1.6" ry="1.4"/>
				<path class="st37" d="M1340.8,629.5l-0.9,4.8h-88.4l-0.9-4.8c-0.2-1.4,0.8-2.6,2.2-2.9c0.1,0,0.3,0,0.4,0h84.8
					c1.5,0,2.7,1.1,2.7,2.4C1340.8,629.2,1340.8,629.3,1340.8,629.5z"/>
				<rect x="1244.7" y="621.2" class="st38" width="102" height="13.1"/>
				<rect x="1253.3" y="619.8" class="st39" width="84.8" height="1.4"/>
				<ellipse class="st39" cx="1261.5" cy="619.5" rx="1.6" ry="1.4"/>
				<ellipse class="st39" cx="1266.9" cy="617.9" rx="1.1" ry="1"/>
				<ellipse class="st39" cx="1263.5" cy="617.4" rx="0.8" ry="0.8"/>
				<path class="st38" d="M1258.5,616.8"/>
				<rect x="1251.6" y="621.2" class="st40" width="32.7" height="2.4"/>
				<ellipse class="st33" cx="854.5" cy="680.8" rx="5.2" ry="4.7"/>
				<path class="st41" d="M870.1,638.9c4.6-2.4,9.4-4.4,14.4-6l-1.9-1.1c-8.5,2.7-16.4,6.7-23.5,11.8l1.8,1.6c0,0,0.4-0.4,1.4-1.2
					c-0.1,0.3-0.2,0.7-0.2,1c-0.1,1.5,1.2,2.8,2.8,2.9c1.7,0.1,3.1-1.1,3.1-2.6c0.1-1.5-1.2-2.8-2.8-2.9c0,0-0.1,0-0.1,0
					c-0.2,0-0.4,0-0.6,0c1.1-0.8,2.5-1.6,4.1-2.6c0.1,0.4,0.5,0.7,1,0.7c0.6,0,1-0.4,1-0.9c0,0,0,0,0-0.1
					C870.5,639.2,870.4,639,870.1,638.9z"/>
				<ellipse class="st23" cx="870.3" cy="643.4" rx="1" ry="0.9"/>
				<path class="st42" d="M1027.3,528h-0.4c0.4,0.5,0.7,1.2,0.7,1.8c0.1,1.9-1.5,3.6-3.6,3.7c-2.1,0.1-4-1.4-4.1-3.3
					c0-0.5,0-0.9,0.2-1.3c-9.3,1.5-18.4,3.7-27.2,6.8c-0.3,0.1-0.7,0.2-1,0.2c-1.7,0-3-1.2-3-2.7c0-0.6,0.2-1.2,0.6-1.7
					c9.7-3.7,19.9-6.2,30.3-7.5c3-0.4,5.7-0.7,8.6-1.1c0.8,0.4,1.4,1.2,1.5,2.1C1030.2,526.4,1029.1,527.8,1027.3,528
					C1027.4,528,1027.4,528,1027.3,528z"/>
				<ellipse class="st43" cx="1014.1" cy="541.6" rx="2" ry="1.8"/>
				<ellipse class="st43" cx="1024" cy="546.4" rx="1.7" ry="1.5"/>
				<ellipse class="st43" cx="1028.7" cy="540.7" rx="3.2" ry="3"/>
				<ellipse class="st43" cx="1020.9" cy="538.4" rx="2" ry="1.8"/>
				<ellipse class="st43" cx="1035.7" cy="534.1" rx="2.6" ry="2.4"/>
				<ellipse class="st44" cx="697.4" cy="676.4" rx="6.8" ry="6.2"/>
				<ellipse class="st44" cx="708.3" cy="667.9" rx="2.9" ry="2.7"/>
				<ellipse class="st44" cx="708.9" cy="679.2" rx="2.4" ry="2.2"/>
				<ellipse class="st44" cx="722.3" cy="664.4" rx="2.2" ry="2"/>
				<ellipse class="st44" cx="716.8" cy="671" rx="2.6" ry="2.4"/>
				<ellipse class="st44" cx="725.1" cy="670.3" rx="3.1" ry="2.9"/>
				<ellipse class="st23" cx="1054.7" cy="675.7" rx="32.6" ry="29.8"/>
				<ellipse class="st21" cx="962.8" cy="658.9" rx="17.2" ry="15.7"/>
				<ellipse class="st21" cx="976.7" cy="692.8" rx="17.2" ry="15.7"/>
				<ellipse class="st21" cx="1125" cy="631.6" rx="17.2" ry="15.7"/>
				<ellipse class="st21" cx="1065.1" cy="620.1" rx="17.2" ry="15.7"/>
				<ellipse class="st21" cx="1107.9" cy="665.6" rx="17.2" ry="15.7"/>
			</g>
			<path class="st45" d="M1262.1,607.9c4.5,1.1,9.1-2.2,10.7-6.2s0.6-8.4-0.6-12.5c-1.2-4.1-2.7-8.2-2.4-12.5
				c0.3-4.2,2.9-8.7,7.4-9.8"/>
			<path class="st45" d="M1286.5,608.5c4.7-1.2,9.5-2.4,13.5-5.1c3.9-2.6,6.8-7,6.1-11.5c-0.6-3.6-3.6-6.5-6.5-9
				c-2.9-2.5-6.2-5-7.7-8.3c-1.6-3.4-0.8-8,2.8-9.7"/>
			<path class="st45" d="M1310.9,606.1c5.8-2.2,9.7-8.1,9.1-13.9c-0.5-4.9-3.8-9.1-5.4-13.9c-1.6-4.7-0.4-11.1,4.7-12.6"/>
			<g>
				<path class="st46" d="M1083,677.7c0-3.4-4.7-6.7-11.9-8.7c1.7-6.7,0.9-12-2.3-13.7c-0.7-0.4-1.6-0.6-2.6-0.6v2.3
					c0.5,0,1,0.1,1.3,0.3c1.6,0.8,2.2,3.9,1.7,8c-0.1,1-0.3,2-0.6,3.1c-2.3-0.5-4.7-0.9-7.3-1.1c-1.6-1.9-3.2-3.7-4.8-5.3
					c3.8-3.2,7.3-4.9,9.7-4.9v-2.3l0,0c-3.2,0-7.3,2.1-11.5,5.6c-4.2-3.6-8.3-5.6-11.5-5.6v2.3c2.4,0,5.9,1.7,9.7,4.9
					c-1.6,1.5-3.2,3.3-4.8,5.3c-2.6,0.3-5.1,0.6-7.3,1.2c-0.3-1.1-0.5-2.1-0.6-3.1c-0.5-4,0.1-7.1,1.7-8c0.3-0.2,0.8-0.3,1.3-0.3
					v-2.3l0,0c-1,0-1.8,0.2-2.6,0.6c-3.2,1.7-4,7-2.3,13.7c-7.2,2-11.8,5.3-11.8,8.7c0,3.4,4.7,6.7,11.9,8.7
					c-1.7,6.7-0.9,12,2.3,13.7c0.7,0.4,1.6,0.6,2.6,0.6c3.2,0,7.3-2.1,11.5-5.6c4.2,3.6,8.3,5.6,11.5,5.6c1,0,1.8-0.2,2.6-0.6
					c3.2-1.7,4-7,2.3-13.7C1078.3,684.3,1083,681.1,1083,677.7z M1068,670.7c-0.4,1.4-1,2.8-1.6,4.2c-0.5-0.8-1-1.7-1.5-2.5
					c-0.5-0.8-1.1-1.7-1.7-2.5C1064.9,670.1,1066.5,670.3,1068,670.7z M1062.7,681.9c-0.9,1.4-1.8,2.8-2.8,4
					c-1.7,0.1-3.5,0.2-5.2,0.2c-1.7,0-3.5-0.1-5.2-0.2c-1-1.3-1.9-2.6-2.8-4c-0.9-1.4-1.7-2.8-2.4-4.2c0.7-1.4,1.5-2.8,2.4-4.2
					c0.9-1.4,1.8-2.8,2.8-4c1.7-0.1,3.5-0.2,5.2-0.2c1.7,0,3.5,0.1,5.2,0.2c1,1.3,1.9,2.6,2.8,4c0.9,1.4,1.7,2.8,2.4,4.2
					C1064.4,679.1,1063.6,680.5,1062.7,681.9z M1066.4,680.5c0.6,1.4,1.2,2.8,1.6,4.2c-1.5,0.3-3.1,0.6-4.7,0.8
					c0.6-0.8,1.1-1.6,1.7-2.5C1065.5,682.2,1066,681.3,1066.4,680.5z M1054.7,691.7c-1.1-1-2.1-2.1-3.2-3.4c1,0,2.1,0.1,3.2,0.1
					c1.1,0,2.2,0,3.2-0.1C1056.9,689.6,1055.8,690.7,1054.7,691.7z M1046.2,685.5c-1.6-0.2-3.2-0.5-4.7-0.8c0.4-1.4,1-2.8,1.6-4.2
					c0.5,0.8,1,1.7,1.5,2.5C1045.1,683.9,1045.6,684.7,1046.2,685.5z M1054.7,663.6c1.1,1,2.1,2.1,3.2,3.4c-1,0-2.1-0.1-3.2-0.1
					c-1.1,0-2.2,0-3.2,0.1C1052.6,665.8,1053.6,664.6,1054.7,663.6z M1046.2,669.8c-0.6,0.8-1.1,1.6-1.7,2.5c-0.5,0.8-1,1.7-1.5,2.5
					c-0.6-1.4-1.2-2.8-1.6-4.2C1042.9,670.3,1044.5,670.1,1046.2,669.8z M1035.7,683c-4.1-1.6-6.7-3.7-6.7-5.3s2.6-3.7,6.7-5.3
					c1-0.4,2.1-0.7,3.2-1.1c0.7,2.1,1.5,4.2,2.6,6.4c-1.1,2.2-1.9,4.3-2.6,6.4C1037.8,683.8,1036.7,683.4,1035.7,683z M1041.9,698
					c-1.6-0.8-2.2-3.9-1.7-8c0.1-1,0.3-2,0.6-3.1c2.3,0.5,4.7,0.9,7.3,1.1c1.6,1.9,3.2,3.7,4.8,5.3c-3.8,3.2-7.3,4.9-9.7,4.9
					C1042.7,698.3,1042.3,698.2,1041.9,698z M1069.3,690c0.5,4-0.1,7.1-1.7,8c-0.3,0.2-0.8,0.3-1.3,0.3c-2.4,0-5.9-1.7-9.7-4.9
					c1.6-1.5,3.2-3.3,4.8-5.3c2.6-0.3,5.1-0.6,7.3-1.2C1068.9,688,1069.1,689,1069.3,690z M1073.7,683c-1,0.4-2.1,0.7-3.2,1.1
					c-0.7-2.1-1.5-4.2-2.6-6.4c1.1-2.2,1.9-4.3,2.6-6.4c1.1,0.3,2.2,0.7,3.2,1.1c4.1,1.6,6.7,3.7,6.7,5.3
					C1080.4,679.3,1077.8,681.4,1073.7,683z"/>
				<path class="st46" d="M1043.2,654.7L1043.2,654.7L1043.2,654.7z"/>
				<ellipse class="st46" cx="1054.7" cy="677.7" rx="5.3" ry="4.8"/>
				<path class="st46" d="M1066.2,654.7L1066.2,654.7L1066.2,654.7z"/>
			</g>
			<polygon class="st47" points="1339.8,634.1 1325,748 1266.9,748 1250.8,634 			"/>
			<polygon class="st48" points="1339.2,633.2 1338.8,636.2 1251,636.1 1250.6,633.2 			"/>
		</g>
		<g>
			<path class="st49" d="M963,673.4c-0.4,0-0.8-0.1-1.2-0.3l-3.7-1.9c-0.6-0.3-0.3-0.4-0.1-0.4c0.8-0.2,0.9-0.3,1.7-0.7
				c0.1,0,0.2,0,0.3,0l2.9,1.5c0.1,0,0.3,0,0.3,0l11.2-5.6c0.1,0,0.2-0.1,0.2-0.3v-11.1c0-0.1-0.1-0.2-0.2-0.3l-11.2-5.5
				c-0.1,0-0.3,0-0.3,0l-11.2,5.5c-0.1,0-0.2,0.2-0.2,0.3v11.1c0,0.1,0.1,0.2,0.2,0.3l3.1,1.5c1.7,0.7,2.7-0.1,2.7-1v-11
				c0-0.1,0.1-0.3,0.3-0.3h1.4c0.2,0,0.3,0.1,0.3,0.3v11c0,1.9-1.2,3-3.3,3c-0.6,0-1.2,0-2.6-0.6l-3-1.4c-0.7-0.4-1.2-1-1.2-1.8
				v-11.1c0-0.7,0.5-1.4,1.2-1.8l11.2-5.6c0.7-0.3,1.7-0.3,2.4,0l11.2,5.6c0.7,0.4,1.2,1,1.2,1.8v11.1c0,0.7-0.5,1.4-1.2,1.8
				l-11.2,5.6C963.8,673.4,963.4,673.4,963,673.4L963,673.4z M966.4,665.8c-4.9,0-5.9-1.9-5.9-3.6c0-0.1,0.1-0.3,0.3-0.3h1.5
				c0.2,0,0.3,0.1,0.3,0.2c0.2,1.3,0.9,1.9,3.9,1.9c2.4,0,3.4-0.5,3.4-1.5c0-0.6-0.3-1.1-4-1.4c-3.1-0.3-5-0.8-5-2.9
				c0-2,1.9-3.1,5.1-3.1c3.6,0,5.4,1.1,5.6,3.4c0,0.1,0,0.1-0.1,0.2c-0.1,0-0.1,0.1-0.2,0.1h-1.5c-0.1,0-0.3-0.1-0.3-0.2
				c-0.3-1.3-1.2-1.8-3.5-1.8c-2.6,0-2.9,0.8-2.9,1.4c0,0.7,0.4,0.9,3.9,1.3c3.5,0.4,5.1,0.9,5.1,3C972,664.6,970,665.8,966.4,665.8
				L966.4,665.8z"/>
		</g>
		<g>
			<path class="st50" d="M987.9,613.3h45.4v27h-45.4V613.3z"/>
			<path class="st51" d="M1001.8,635.1h-1.2c0-1.8-0.2-3.5-0.4-5h0l-1.9,5h-0.9l-1.9-5h0c-0.1,1.5-0.2,3.2-0.3,5h-1.1
				c0.1-2.2,0.3-4.3,0.5-6.3h1.5l1.8,4.6h0l1.8-4.6h1.5C1001.6,631.1,1001.8,633.2,1001.8,635.1 M1007.2,630.4c-0.5,2.3-1.2,4-2,5.1
				c-0.6,0.8-1.3,1.2-2.1,1.2c-0.2,0-0.5-0.1-0.8-0.2V636c0.1,0,0.3,0,0.5,0c0.4,0,0.6-0.1,0.9-0.3c0.3-0.2,0.4-0.4,0.4-0.7
				c0-0.2-0.1-0.5-0.3-1.1l-1.3-3.6h1.2l1,2.7c0.2,0.6,0.3,1,0.3,1.3c0.5-1.2,0.9-2.5,1.1-4L1007.2,630.4L1007.2,630.4L1007.2,630.4
				z"/>
			<path class="st52" d="M1023.5,635.1h-3.5v-6.3h1.2v5.5h2.3V635.1z M1019.1,635.2l-1.4-0.6c0.1-0.1,0.2-0.2,0.3-0.3
				c0.6-0.6,0.9-1.4,0.9-2.6c0-2.1-1-3.1-2.9-3.1c-0.9,0-1.7,0.3-2.2,0.8c-0.6,0.6-0.9,1.4-0.9,2.6c0,1.1,0.3,1.9,0.8,2.4
				c0.5,0.5,1.2,0.7,2.1,0.7c0.3,0,0.7,0,1-0.1l1.8,0.9L1019.1,635.2z M1014.8,633.8c-0.3-0.4-0.4-1.1-0.4-2c0-1.6,0.6-2.4,1.7-2.4
				c0.6,0,1,0.2,1.3,0.6c0.3,0.4,0.4,1.1,0.4,2c0,1.6-0.6,2.4-1.7,2.4C1015.5,634.4,1015,634.2,1014.8,633.8 M1012.6,633.3
				c0,0.5-0.2,1-0.7,1.3c-0.5,0.3-1.1,0.5-1.8,0.5c-0.7,0-1.4-0.2-2.1-0.6l0.3-0.5c0.6,0.2,1.1,0.4,1.6,0.4c0.4,0,0.8-0.1,1-0.3
				c0.3-0.2,0.4-0.4,0.4-0.7c0-0.4-0.3-0.7-0.9-1c-0.5-0.2-1.5-0.7-1.5-0.7c-0.6-0.3-0.8-0.7-0.8-1.3c0-0.5,0.2-0.9,0.6-1.2
				c0.4-0.3,1-0.5,1.6-0.5c0.7,0,1.3,0.2,1.9,0.5l-0.3,0.5c-0.5-0.2-0.9-0.3-1.4-0.3c-0.4,0-0.7,0.1-0.9,0.2
				c-0.2,0.2-0.3,0.4-0.3,0.6c0,0.4,0.3,0.7,0.9,1c0.5,0.2,1.6,0.8,1.6,0.8C1012.3,632.3,1012.6,632.7,1012.6,633.3"/>
			<path class="st51" d="M1025,626.7c-0.7,0-1.3,0-1.7,0.2c-0.1,0-0.3,0-0.4,0.2c0.1,0.1,0.1,0.2,0.1,0.2c0.1,0.2,0.3,0.4,0.5,0.5
				c0.2,0.1,0.4,0.2,0.6,0.3c0.3,0.2,0.7,0.3,1.1,0.5c0.2,0.1,0.4,0.2,0.6,0.4c0.1,0.1,0.2,0.2,0.3,0.2v0c-0.1-0.1-0.1-0.2-0.1-0.2
				l-0.3-0.2c-0.3-0.3-0.6-0.6-0.9-0.8c-0.3-0.2-0.9-0.4-1-0.7l0,0c0.2,0,0.4-0.1,0.6-0.1c0.3-0.1,0.6-0.1,0.9-0.1
				c0.1,0,0.3-0.1,0.4-0.1v-0.1c-0.2-0.1-0.3-0.3-0.4-0.4c-0.5-0.3-0.9-0.7-1.5-0.9c-0.3-0.2-0.6-0.3-0.9-0.4
				c-0.1,0-0.3-0.1-0.3-0.1c-0.2-0.2-0.2-0.4-0.4-0.6c-0.3-0.4-0.5-0.9-0.7-1.3c-0.2-0.3-0.3-0.6-0.5-0.9c-0.9-1.3-1.9-2.1-3.4-2.8
				c-0.3-0.2-0.7-0.2-1.1-0.3l-0.7,0c-0.1-0.1-0.3-0.2-0.4-0.3c-0.5-0.3-1.8-0.9-2.2-0.1c-0.2,0.5,0.4,1,0.6,1.2
				c0.2,0.2,0.3,0.4,0.5,0.6c0.1,0.1,0.1,0.3,0.1,0.4c0.1,0.3,0.3,0.7,0.5,1c0.1,0.2,0.2,0.3,0.3,0.5c0.1,0.1,0.2,0.1,0.2,0.3
				c-0.1,0.2-0.1,0.4-0.2,0.6c-0.3,0.9-0.2,1.9,0.3,2.6c0.1,0.2,0.5,0.6,0.9,0.4c0.4-0.1,0.3-0.6,0.4-1c0-0.1,0-0.2,0.1-0.2v0
				c0.1,0.2,0.2,0.4,0.4,0.6c0.3,0.4,0.8,0.8,1.2,1c0.2,0.1,0.4,0.4,0.6,0.5v0h0c-0.1-0.1-0.1-0.1-0.2-0.2c-0.2-0.1-0.3-0.3-0.5-0.5
				c-0.4-0.4-0.7-0.9-1-1.4c-0.1-0.2-0.3-0.5-0.4-0.7c-0.1-0.1-0.1-0.2-0.1-0.3c-0.1,0.2-0.3,0.3-0.4,0.5c-0.2,0.3-0.2,0.7-0.2,1.1
				l0,0c-0.3-0.1-0.4-0.3-0.5-0.5c-0.3-0.5-0.3-1.4-0.1-2c0.1-0.2,0.3-0.7,0.2-0.8c-0.1-0.1-0.2-0.2-0.3-0.3
				c-0.1-0.1-0.2-0.3-0.3-0.5c-0.2-0.4-0.3-0.9-0.5-1.3c-0.1-0.2-0.3-0.4-0.4-0.6c-0.2-0.2-0.4-0.3-0.5-0.6c0-0.1-0.1-0.2,0-0.3
				c0-0.1,0.1-0.1,0.1-0.1c0.1-0.1,0.4,0,0.6,0.1c0.3,0.1,0.6,0.2,0.9,0.4c0.1,0.1,0.3,0.2,0.4,0.3h0.2c0.3,0.1,0.6,0,0.9,0.1
				c0.5,0.1,0.9,0.3,1.3,0.5c1.2,0.6,2.1,1.5,2.8,2.6c0.1,0.2,0.2,0.3,0.2,0.5c0.2,0.4,0.4,0.8,0.6,1.1c0.2,0.4,0.4,0.7,0.6,1
				c0.1,0.2,0.7,0.2,0.9,0.3c0.2,0.1,0.5,0.1,0.6,0.2c0.3,0.2,0.6,0.3,0.9,0.5C1024.5,626.3,1025,626.5,1025,626.7 M1016,620.1
				c-0.1,0-0.2,0-0.4,0v0h0c0.1,0.1,0.2,0.2,0.3,0.3c0.1,0.1,0.1,0.2,0.2,0.4l0,0c0.1-0.1,0.2-0.2,0.2-0.4c-0.1-0.1-0.1-0.1-0.1-0.2
				C1016.1,620.2,1016,620.1,1016,620.1"/>
			<path class="st52" d="M1025.9,635.1h0.2v-0.8h-0.3l-0.2,0.5l-0.2-0.5h-0.3v0.8h0.2v-0.6h0l0.3,0.6h0.1l0.3-0.6V635.1
				L1025.9,635.1z M1024.4,635.1h0.2v-0.6h0.3v-0.1h-0.7v0.1h0.3L1024.4,635.1L1024.4,635.1z"/>
		</g>
		<g>
			<path class="st53" d="M1139.4,628.6c0,0-0.1,0.1-0.1,0.2c0,0.4,0,1.6,0,2.4c0,0,0,0.1,0,0.1c0.1,0,0.3,0,0.5,0
				c0.2,0,0.4-0.1,0.5-0.1c0.2-0.2,0.3-0.6,0.3-1.1c0-1.1-0.4-1.5-1-1.5C1139.6,628.5,1139.5,628.5,1139.4,628.6L1139.4,628.6z
				 M1140.9,633.4c0-1.1-0.4-1.7-1.2-1.7c0,0-0.3,0-0.3,0c0,0,0,0,0,0.1c0,0.8,0,2,0,2.5c0,0.2,0.1,0.5,0.2,0.6
				c0.1,0.1,0.3,0.1,0.5,0.1C1140.5,635,1140.9,634.5,1140.9,633.4L1140.9,633.4z M1138.3,628c0.1,0,0.2,0,0.7,0c0.4,0,0.7,0,1.1,0
				c0.5,0,1.2,0.3,1.2,1.7c0,0.7-0.3,1.2-0.6,1.5c0,0,0,0,0,0c0.5,0.2,0.9,0.8,0.9,1.9c0,1-0.3,1.7-0.8,2.1
				c-0.3,0.2-0.7,0.3-1.1,0.3c-0.3,0-1.1-0.1-1.5,0c0,0,0-0.4,0.1-0.5c0.1,0,0.2,0,0.3-0.1c0.2-0.1,0.2-0.2,0.2-0.6
				c0-0.4,0-1.7,0-2.7c0-1.3,0-2.2,0-2.6c0-0.3-0.1-0.4-0.2-0.5c-0.1,0-0.3-0.1-0.4-0.1C1138.1,628.4,1138.2,628,1138.3,628
				L1138.3,628z M1135,634.7c0.1,0.2,0.4,0.3,0.6,0.3c0.3,0,0.6-0.1,0.9-0.6c0.3-0.5,0.5-1.3,0.5-2.6c0-1.2-0.2-2.2-0.7-2.8
				c-0.3-0.3-0.6-0.5-1.1-0.5c-0.1,0-0.2,0-0.3,0.1c0,0-0.1,0.1-0.1,0.2c0,0.2,0,1.9,0,2.9c0,1,0,2.4,0,2.6
				C1134.9,634.3,1134.9,634.6,1135,634.7L1135,634.7z M1133.7,628c0.1,0,0.5,0,0.7,0c0.4,0,0.6,0,1.3,0c0.6,0,1,0.3,1.4,0.8
				c0.4,0.7,0.6,1.6,0.6,2.8c0,1.6-0.4,2.6-0.8,3.1c-0.4,0.6-0.9,0.9-1.6,0.9c-0.4,0-1.1,0-1.6,0h0c0-0.1,0-0.5,0.1-0.5
				c0.1,0,0.2,0,0.3-0.1c0.1-0.1,0.1-0.2,0.2-0.6c0-0.7,0-1.6,0-2.7c0-0.7,0-2.1,0-2.6c0-0.4-0.1-0.5-0.3-0.5
				c-0.1,0-0.2-0.1-0.4-0.1C1133.6,628.4,1133.7,628,1133.7,628L1133.7,628z"/>
			<path class="st54" d="M1126.8,635.1c-0.1,0-0.2-0.1-0.4-0.2c0,0,0-0.1,0-0.2c0-0.4,0-1.5,0-2.2c0-0.6-0.1-1.1-0.2-1.5
				c-0.2-0.4-0.4-0.6-0.7-0.6c-0.2,0-0.6,0.3-0.9,0.8c0,0-0.1,0.1,0,0c0-0.1,0-0.4,0-0.5c0-0.2,0-0.2,0-0.2
				c-0.2,0.2-0.7,0.4-0.9,0.4c-0.1,0.1-0.2,0.3,0,0.4h0c0.2,0.1,0.3,0.2,0.3,0.3c0.1,0.1,0.1,0.2,0.1,0.3c0,0.8,0,2.1,0,2.7
				c0,0.3,0,0.4-0.1,0.4l0,0c-0.1,0-0.1,0.1-0.2,0.1c0,0.1,0,0.4,0,0.5c0.1,0,0.4,0,0.7,0c0.4,0,0.6,0,0.7,0c0-0.1,0.1-0.4,0-0.5
				c-0.1,0-0.2,0-0.3-0.1c-0.1,0-0.1-0.1-0.1-0.4c0-0.6,0-1.8,0-2.6c0-0.2,0-0.3,0.1-0.4c0.1-0.2,0.3-0.4,0.5-0.4
				c0.2,0,0.3,0.1,0.4,0.2c0.1,0.2,0.2,0.5,0.2,0.7c0,0.5,0,1.4,0,2.2c0,0.4,0,0.5-0.1,0.6c0,0-0.1,0.1-0.3,0.1c0,0.1,0,0.4,0,0.5
				c0.2,0,0.4,0,0.6,0c0.4,0,0.6,0,0.7,0C1126.8,635.5,1126.9,635.2,1126.8,635.1L1126.8,635.1z M1128.4,631c-0.3,0-0.5,0.4-0.5,1.1
				c0,0.7,0.2,1.5,0.6,1.5c0.1,0,0.2-0.1,0.3-0.2c0.1-0.2,0.2-0.6,0.2-1C1129,631.5,1128.8,631,1128.4,631L1128.4,631z
				 M1128.4,635.8c-0.1,0-0.2,0.1-0.2,0.1c-0.2,0.3-0.3,0.6-0.3,0.9c0,0.3,0.1,0.6,0.2,0.8c0.2,0.3,0.4,0.4,0.7,0.4
				c0.6,0,0.8-0.6,0.8-1.2c0-0.4-0.1-0.7-0.3-0.8C1129,635.8,1128.7,635.8,1128.4,635.8L1128.4,635.8z M1128.4,638.6
				c-0.3,0-0.6-0.1-0.8-0.5c-0.2-0.3-0.3-0.8-0.3-1.1c0-0.1,0-0.3,0.1-0.5c0.1-0.1,0.2-0.4,0.5-0.8c0,0,0,0,0,0c0,0,0,0,0-0.1
				c-0.3-0.2-0.3-0.5-0.4-0.7v0c0-0.1,0-0.1,0-0.2c0-0.1,0.1-0.1,0.2-0.2c0.1-0.1,0.2-0.2,0.3-0.3c0,0,0,0,0-0.1c0,0,0,0,0-0.1
				c-0.4-0.2-0.6-0.8-0.6-1.7c0-0.6,0.1-1.1,0.4-1.4c0.2-0.2,0.6-0.5,0.8-0.5h0c0.3,0,0.4,0.1,0.6,0.3c0.1,0.1,0.2,0.1,0.4,0.1
				c0.2,0,0.3-0.1,0.4-0.3c0,0,0,0.1,0,0.2c0,0.1,0,0.3-0.1,0.5c0,0.1-0.1,0.2-0.2,0.2h0c-0.1,0-0.1,0-0.1,0l0,0c0,0,0,0,0,0.1l0,0
				c0,0.1,0,0.4,0,0.5c0,0.9-0.2,1.3-0.4,1.6c-0.2,0.3-0.4,0.4-0.7,0.5c0,0,0,0-0.1,0c0,0-0.1,0-0.1,0h0c0,0-0.2,0.1-0.2,0.3
				c0,0.2,0.1,0.4,0.3,0.4c0.1,0,0.1,0,0.2,0c0.3,0,0.7,0.1,0.9,0.2c0.3,0.2,0.4,0.6,0.4,1.2c0,0.8-0.3,1.5-0.8,2
				C1128.9,638.5,1128.7,638.6,1128.4,638.6L1128.4,638.6z M1131.6,631c-0.1,0-0.2,0.1-0.3,0.2c-0.2,0.3-0.3,0.8-0.3,1.5
				c0,1.4,0.4,2.4,0.9,2.4c0.2,0,0.3-0.1,0.4-0.3c0.2-0.3,0.2-0.8,0.2-1.5C1132.6,632,1132.2,631,1131.6,631L1131.6,631z
				 M1131.7,635.7c-1,0-1.3-1.4-1.3-2.6c0-0.9,0.2-1.6,0.6-2.1c0.3-0.3,0.6-0.5,0.9-0.5c0.7,0,1.3,1,1.3,2.5c0,1-0.2,1.8-0.6,2.2
				C1132.3,635.4,1132,635.7,1131.7,635.7L1131.7,635.7L1131.7,635.7z M1121.6,631c-0.1,0-0.2,0.1-0.3,0.2c-0.2,0.3-0.3,0.8-0.3,1.5
				c0,1.4,0.4,2.4,0.9,2.4c0.2,0,0.3-0.1,0.4-0.3c0.2-0.3,0.2-0.8,0.2-1.5C1122.5,632,1122.2,631,1121.6,631L1121.6,631z
				 M1121.7,635.7c-1,0-1.3-1.4-1.3-2.6c0-0.9,0.2-1.6,0.6-2.1c0.3-0.3,0.6-0.5,0.9-0.5c0.7,0,1.3,1,1.3,2.5c0,1-0.2,1.8-0.6,2.2
				C1122.3,635.4,1122,635.7,1121.7,635.7L1121.7,635.7z M1115.2,635.6c0,0,0-0.1,0-0.2c0-0.1,0-0.1,0-0.2c0.1,0,0.2-0.1,0.2-0.1
				c0.1-0.1,0.2-0.2,0.2-0.4c0-0.6,0-1.9,0-2.7v0c0-0.1,0-0.2-0.1-0.3c-0.1-0.1-0.2-0.2-0.3-0.3c-0.1,0-0.1-0.1-0.1-0.2
				c0-0.1,0-0.1,0.1-0.2c0.2,0,0.7-0.3,0.9-0.4c0,0,0,0.1,0,0.2l0,0.1c0,0.1,0,0.3,0,0.4c0,0,0,0.1,0,0.1c0,0,0,0,0,0
				c0.4-0.5,0.7-0.7,0.9-0.7c0.3,0,0.5,0.2,0.7,0.8c0,0,0,0,0,0c0,0,0,0,0,0c0.3-0.5,0.7-0.8,0.9-0.8c0.5,0,0.8,0.7,0.8,2
				c0,0.4,0,0.8,0,1.2c0,0.4,0,0.7,0,1c0,0.1,0,0.2,0.1,0.3c0.1,0.1,0.2,0.1,0.3,0.2h0c0,0.1,0,0.4,0,0.4c0,0-0.1,0-0.1,0
				c-0.1,0-0.3,0-0.4,0c-0.4,0-0.5,0-0.7,0c0-0.1,0-0.3,0-0.4c0.1,0,0.2-0.1,0.2-0.1c0.1-0.1,0.1-0.2,0.1-0.4c0-0.2,0-2,0-2.4
				c0-0.4-0.2-0.9-0.6-0.9c-0.1,0-0.4,0.1-0.6,0.4c0,0,0,0.1,0,0.1v0c0,0.2,0,0.5,0,0.9v0.7c0,0.5,0,0.9,0,1.3
				c0,0.2,0.1,0.3,0.1,0.3c0,0,0.1,0,0.1,0c0.1,0,0.1,0,0.2,0.1c0,0,0,0.2,0,0.3c0,0.1,0,0.1,0,0.1c-0.2,0-0.4,0-0.7,0
				c-0.1,0-0.2,0-0.4,0c-0.1,0-0.2,0-0.3,0c0,0,0-0.1,0-0.2c0-0.1,0-0.2,0-0.2c0,0,0.1,0,0.1,0c0.1,0,0.1,0,0.2-0.1
				c0.1-0.1,0.1-0.2,0.1-0.4c0-0.5,0-2.1,0-2.5c-0.1-0.6-0.3-0.9-0.6-0.9c-0.2,0-0.4,0.2-0.6,0.4c0,0-0.1,0.2-0.1,0.2v0.6
				c0,0.8,0,1.8,0,2.2c0,0.1,0,0.3,0.2,0.3c0,0,0.1,0,0.1,0l0.1,0c0,0.1,0,0.3,0,0.4c-0.1,0-0.1,0-0.2,0c-0.1,0-0.3,0-0.4,0
				c-0.2,0-0.3,0-0.5,0C1115.4,635.6,1115.3,635.6,1115.2,635.6L1115.2,635.6z"/>
			<path class="st55" d="M1112.3,638.2l-0.2-0.2c0,0,0-2.3-0.4-2.4c-0.3-0.6,0-26.6,1.1-0.1c0,0-0.4,0.3-0.4,0.9
				C1112.2,637,1112.3,638.2,1112.3,638.2L1112.3,638.2z"/>
			<path class="st56" d="M1112.3,638.2l-0.2-0.2c0,0,0-2.3-0.4-2.4c-0.3-0.6,0-26.6,1.1-0.1c0,0-0.4,0.3-0.4,0.9
				C1112.2,637,1112.3,638.2,1112.3,638.2L1112.3,638.2z"/>
			<path class="st55" d="M1112.4,636c0,0,2-2.6,1.6-7.9c-0.5-3.9-1.5-5.1-1.7-5.6c-0.1-0.3-0.3-1-0.3-1l0.1,10.8
				C1112.1,632.3,1111.9,635.6,1112.4,636"/>
			<path class="st57" d="M1112.4,636c0,0,2-2.6,1.6-7.9c-0.5-3.9-1.5-5.1-1.7-5.6c-0.1-0.3-0.3-1-0.3-1l0.1,10.8
				C1112.1,632.3,1111.9,635.6,1112.4,636"/>
			<path class="st55" d="M1111.9,636.1c0,0-1.9-2.5-1.8-6.9c0.1-4.4,1.5-6.5,1.7-6.9c0.2-0.3,0.2-0.5,0.2-0.8
				c0.1,0.5,0.1,7.3,0.1,8.1C1112.2,632.7,1112,635.5,1111.9,636.1z"/>
			<path class="st58" d="M1111.9,636.1c0,0-1.9-2.5-1.8-6.9c0.1-4.4,1.5-6.5,1.7-6.9c0.2-0.3,0.2-0.5,0.2-0.8
				c0.1,0.5,0.1,7.3,0.1,8.1C1112.2,632.7,1112,635.5,1111.9,636.1z"/>
		</g>
		<g>
			<g>
				<polygon class="st59" points="991.3,687.6 981,702.9 979.3,702.1 989.6,686.8 				"/>
				<ellipse class="st59" cx="981" cy="690.5" rx="3.2" ry="2.7"/>
				<ellipse class="st59" cx="989.1" cy="697.9" rx="3.5" ry="3"/>
			</g>
		</g>
		<polygon class="st59" points="974.9,684 960,692.2 960,695.7 974.9,704.1 974.9,699.6 964.9,694.1 974.9,688.5 		"/>
		<g>
			<g>
				<g>
					<polygon class="st60" points="1053.1,628.2 1051.9,627.6 1065.5,607.2 1066.8,607.8 					"/>
				</g>
			</g>
			<g>
				<g>
					<rect x="1051.6" y="626" class="st60" width="27.3" height="1.2"/>
				</g>
			</g>
			<g>
				<g>
					<polygon class="st60" points="1065.8,633.4 1052.1,626.6 1052.9,625.6 1066.5,632.4 					"/>
				</g>
			</g>
			<g>
				<g>
					<polygon class="st60" points="1077.7,615.7 1064,608.9 1064.7,607.8 1078.4,614.6 					"/>
				</g>
			</g>
			<g>
				<g>
					<polygon class="st60" points="1052.9,615.7 1052.1,614.6 1065.8,607.8 1066.5,608.9 					"/>
				</g>
			</g>
			<g>
				<g>
					<polygon class="st60" points="1077.4,628.2 1063.8,607.8 1065,607.2 1078.6,627.6 					"/>
				</g>
			</g>
			<g>
				<g>
					<rect x="1052.7" y="613.8" class="st60" width="1.4" height="13.6"/>
				</g>
			</g>
			<g>
				<g>
					<rect x="1076.4" y="613.8" class="st60" width="1.4" height="13.6"/>
				</g>
			</g>
			<g>
				<g>
					<polygon class="st60" points="1065.6,632.9 1064.9,632 1076.8,626.1 1077.4,627 					"/>
				</g>
			</g>
			<path class="st60" d="M1079.7,627.8c-0.8,1.2-2.6,1.6-4.1,0.9s-1.9-2.3-1.1-3.5c0.8-1.2,2.6-1.6,4.1-0.9
				C1080.1,625,1080.5,626.6,1079.7,627.8"/>
			<path class="st60" d="M1056,616c-0.8,1.2-2.6,1.6-4.1,0.9s-1.9-2.3-1.1-3.5s2.6-1.6,4.1-0.9C1056.3,613.2,1056.8,614.8,1056,616"
				/>
			<path class="st60" d="M1050.8,627.8c-0.8-1.2-0.3-2.8,1.1-3.5c1.4-0.7,3.2-0.3,4.1,0.9c0.8,1.2,0.3,2.8-1.1,3.5
				C1053.4,629.5,1051.6,629.1,1050.8,627.8"/>
			<path class="st60" d="M1074.6,616c-0.8-1.2-0.3-2.8,1.1-3.5c1.4-0.7,3.2-0.3,4.1,0.9c0.8,1.2,0.3,2.8-1.1,3.5
				C1077.2,617.7,1075.4,617.2,1074.6,616"/>
			<path class="st60" d="M1065.3,635c-1.6,0-3-1.1-3-2.6s1.3-2.6,3-2.6s3,1.1,3,2.6C1068.2,633.9,1066.9,635,1065.3,635"/>
			<path class="st60" d="M1065.3,611.4c-1.6,0-3-1.1-3-2.6c0-1.4,1.3-2.6,3-2.6s3,1.1,3,2.6C1068.2,610.2,1066.9,611.4,1065.3,611.4
				"/>
		</g>
		<g id="Page-1">
			<g id="_x30_02---API">
				<path id="Shape" class="st61" d="M1115.2,668.8c-1.1,2.8-4,4.7-7.1,4.7c-3.2,0-6-1.9-7.1-4.7l-1.6-1.6l-2.2,1.4l-1.9,0.8
					c-0.2,0.1-0.3,0.4-0.2,0.6l1.4,3.3c0.1,0.2,0.4,0.3,0.6,0.2l2.4-0.9c0.7,1,1.6,1.8,2.6,2.5l-1,2.3c0,0.1,0,0.2,0,0.3
					c0,0.1,0.1,0.2,0.3,0.2l3.4,1.4c0.1,0,0.2,0,0.4,0c0.1,0,0.2-0.1,0.3-0.2l1-2.3c1.2,0.2,2.5,0.2,3.7,0l1,2.3
					c0,0.1,0.1,0.2,0.3,0.2c0.1,0,0.2,0,0.4,0l3.4-1.4c0.1,0,0.2-0.1,0.3-0.2c0-0.1,0-0.2,0-0.3l-1-2.3c1-0.7,1.9-1.5,2.6-2.5
					l2.4,0.9c0.1,0,0.2,0,0.4,0c0.1,0,0.2-0.1,0.3-0.2l1.4-3.3c0-0.1,0-0.2,0-0.3s-0.1-0.2-0.3-0.2l-1.4-0.6h0l-2.2-1.6
					L1115.2,668.8z"/>
				<path id="Shape_1_" class="st62" d="M1123.9,664.3c0,2.5-2.1,4.5-4.6,4.5h-20.4c-3.6,0-6.5-2.8-6.5-6.3s2.9-6.3,6.5-6.3
					c0.2,0,0.3,0,0.5,0c1.1-2.8,4-4.7,7.1-4.7c3.2,0,6,1.9,7.1,4.7c0.1,0,0.2,0,0.2,0c2.4,0,4.6,1.5,5.4,3.7h0.1
					C1121.8,659.9,1123.9,661.9,1123.9,664.3L1123.9,664.3z"/>
				<path id="Shape_2_" class="st63" d="M1095.4,665.6c-0.2,0-0.3-0.1-0.4-0.2c-0.9-1.1-1.3-2.6-1-4c0.3-1.4,1.3-2.6,2.7-3.2
					c0.3-0.1,0.6,0,0.7,0.2s0,0.6-0.3,0.7c-1.3,0.6-2.2,1.9-2.2,3.3c0,0.8,0.3,1.6,0.8,2.3c0.1,0.2,0.2,0.4,0.1,0.6
					C1095.8,665.5,1095.6,665.6,1095.4,665.6z"/>
				<g>
					<path id="Shape_3_" class="st64" d="M1101,666.2c-0.2,0-0.3-0.1-0.4-0.2c-0.1-0.1-0.1-0.3-0.1-0.5l2.2-6.3
						c0.1-0.3,0.4-0.4,0.7-0.3s0.4,0.4,0.3,0.7l-2.2,6.3C1101.5,666,1101.2,666.2,1101,666.2L1101,666.2z"/>
					<path id="Shape_4_" class="st64" d="M1105.4,666.2c-0.2,0-0.4-0.1-0.5-0.4l-2.2-6.3c-0.1-0.3,0.1-0.6,0.3-0.7
						c0.3-0.1,0.6,0.1,0.7,0.3l2.2,6.3c0.1,0.2,0,0.3-0.1,0.5C1105.7,666.1,1105.5,666.2,1105.4,666.2L1105.4,666.2z"/>
					<path id="Shape_5_" class="st64" d="M1104.5,663.5h-2.5c-0.3,0-0.5-0.2-0.5-0.5s0.2-0.5,0.5-0.5h2.5c0.3,0,0.5,0.2,0.5,0.5
						S1104.8,663.5,1104.5,663.5z"/>
					<path id="Shape_6_" class="st64" d="M1107,666.2c-0.3,0-0.5-0.2-0.5-0.5v-6.3c0-0.3,0.2-0.5,0.5-0.5s0.5,0.2,0.5,0.5v6.3
						C1107.6,665.9,1107.3,666.2,1107,666.2z"/>
					<path id="Shape_7_" class="st64" d="M1109.2,663h-2.2c-0.3,0-0.5-0.2-0.5-0.5v-3.1c0-0.3,0.2-0.5,0.5-0.5h2.2
						c1.2,0,2.2,0.9,2.2,2.1S1110.4,663,1109.2,663z M1107.6,662h1.6c0.6,0,1.1-0.5,1.1-1s-0.5-1-1.1-1h-1.6V662z"/>
					<path id="Shape_8_" class="st64" d="M1113.5,666.2c-0.3,0-0.5-0.2-0.5-0.5v-6.3c0-0.3,0.2-0.5,0.5-0.5c0.3,0,0.5,0.2,0.5,0.5
						v6.3C1114.1,665.9,1113.9,666.2,1113.5,666.2z"/>
					<path id="Shape_9_" class="st64" d="M1115.2,659.9h-3.3c-0.3,0-0.5-0.2-0.5-0.5s0.2-0.5,0.5-0.5h3.3c0.3,0,0.5,0.2,0.5,0.5
						S1115.5,659.9,1115.2,659.9z"/>
					<path id="Shape_10_" class="st64" d="M1115.2,666.2h-3.3c-0.3,0-0.5-0.2-0.5-0.5s0.2-0.5,0.5-0.5h3.3c0.3,0,0.5,0.2,0.5,0.5
						S1115.5,666.2,1115.2,666.2z"/>
				</g>
				<path id="Shape_11_" class="st63" d="M1102.1,657.3c-0.2,0-0.3-0.1-0.4-0.2c-0.1-0.1-0.1-0.3-0.1-0.5c1.2-3.5,4.2-3.5,4.3-3.5
					c0.3,0,0.5,0.2,0.5,0.5c0,0.3-0.2,0.5-0.5,0.5c-0.1,0-2.4,0.1-3.3,2.8C1102.5,657.1,1102.3,657.3,1102.1,657.3L1102.1,657.3z"/>
			</g>
		</g>
	</g>
	<line class="st50" x1="1120" y1="774.8" x2="1119.5" y2="774.8"/>
</g>
</svg>
