<?xml version="1.0" encoding="utf-8"?>
<!-- Generator: Adobe Illustrator 24.1.1, SVG Export Plug-In . SVG Version: 6.00 Build 0)  -->
<svg version="1.1" id="Layer_1" xmlns="http://www.w3.org/2000/svg" xmlns:xlink="http://www.w3.org/1999/xlink" x="0px" y="0px"
	 viewBox="0 0 768 1024" style="enable-background:new 0 0 768 1024;" xml:space="preserve">
<style type="text/css">
	.st0{fill:#6B28D8;}
	.st1{fill:#4D19A2;}
	.st2{fill:#8833FE;}
	.st3{fill:none;stroke:#47EAFE;stroke-width:12.6496;stroke-linecap:round;stroke-miterlimit:10;}
	.st4{fill:none;stroke:#FD5CA4;stroke-width:9.8952;stroke-linecap:round;stroke-linejoin:round;stroke-miterlimit:10;}
	.st5{fill:none;stroke:#FFFF00;stroke-width:27.063;stroke-miterlimit:10;}
	.st6{fill:none;stroke:#47EAFE;stroke-width:12.841;stroke-linecap:round;stroke-miterlimit:10;}
	.st7{fill:#F1BE46;}
	.st8{fill:none;stroke:#FFD88C;stroke-width:2.1604;stroke-linecap:round;stroke-linejoin:round;}
	.st9{fill:#C38685;}
	.st10{fill:#DAA09D;}
	.st11{fill:#E1A839;}
	.st12{fill:#43549A;}
	.st13{fill:#35428B;}
	.st14{fill:#E9AF3D;}
	.st15{fill:#D5E4EC;}
	.st16{fill:#FDC6A2;}
	.st17{fill:#D98A77;}
	.st18{fill:#F8B894;}
	.st19{fill:#F1AE8B;}
	.st20{fill:#DAE5F2;}
	.st21{fill:#C4D7E9;}
	.st22{opacity:0.2;fill:#E89E85;enable-background:new    ;}
	.st23{fill:#FFFFFF;}
	.st24{fill:#E99F86;}
	
		.st25{opacity:0.77;fill:none;stroke:#FFFFFF;stroke-width:2.1604;stroke-linecap:round;stroke-linejoin:round;enable-background:new    ;}
	.st26{fill:#FFB29C;}
	.st27{opacity:0.45;fill:#E48C7C;enable-background:new    ;}
	.st28{fill:#D27E72;}
	.st29{fill:#E48C7C;}
	.st30{opacity:0.72;fill:#FFFFFF;enable-background:new    ;}
	.st31{opacity:0.42;fill:#FFFFFF;enable-background:new    ;}
	.st32{fill:none;stroke:#BE8116;stroke-width:2.1604;stroke-linecap:round;stroke-linejoin:round;}
	.st33{fill:#253246;}
	.st34{opacity:0.44;fill:#FFFFFF;enable-background:new    ;}
	.st35{opacity:0.67;fill:#FFFFFF;enable-background:new    ;}
	.st36{opacity:0.47;fill:#FFFFFF;enable-background:new    ;}
	.st37{fill:#F3CDC8;}
	.st38{fill:#E4B4B0;}
	.st39{fill:#CD9190;}
	.st40{opacity:0.4;fill:#FFFFFF;enable-background:new    ;}
	.st41{opacity:0.34;fill:#FFFFFF;enable-background:new    ;}
	.st42{opacity:0.2;fill:#FFF4F9;enable-background:new    ;}
	.st43{opacity:0.49;fill:#FFF4F9;enable-background:new    ;}
	.st44{fill:#FFD88C;}
	.st45{fill:none;stroke:#FF9FC7;stroke-width:2.1604;stroke-miterlimit:10;}
	.st46{fill:#61DAFB;}
	.st47{fill:#F2CCC7;enable-background:new    ;}
	.st48{fill:#ECC0BD;enable-background:new    ;}
	.st49{fill:#539E43;}
	.st50{fill:none;}
	.st51{fill:#5D87A1;}
	.st52{fill:#F8981D;}
	.st53{fill-rule:evenodd;clip-rule:evenodd;fill:#8E714E;}
	.st54{fill-rule:evenodd;clip-rule:evenodd;fill:#442D22;}
	.st55{fill-rule:evenodd;clip-rule:evenodd;fill:#FFFFFF;}
	.st56{fill-rule:evenodd;clip-rule:evenodd;fill:#A6A385;}
	.st57{fill-rule:evenodd;clip-rule:evenodd;fill:#499D4A;}
	.st58{fill-rule:evenodd;clip-rule:evenodd;fill:#58AA50;}
	.st59{fill:#343434;}
	.st60{fill:#E535AB;}
	.st61{fill:#3F5C6C;}
	.st62{fill:#B0D3F0;}
	.st63{fill:#ECF0F1;}
	.st64{fill:#3B97D3;}
</style>
<g>
	<g>
		<rect class="st0" width="383.3" height="1024"/>
		<path class="st1" d="M768.6,0.5L-64.9,1024h833.5C768.6,1024,768.6,0.9,768.6,0.5z"/>
		<polygon class="st2" points="94.5,0.5 375.6,484.5 768.9,0.9 		"/>
	</g>
	<polygon class="st3" points="99.6,732.3 51.8,716.9 72.3,670 120.1,685.4 	"/>
	<path class="st4" d="M42.1,363.5c1.7-8.4,9.2-15.6,18.4-18.8s19.9-2.7,29.2,0.4s17.2,8.7,23.6,15.3c0.4-10.1,0.9-20.4,4.7-29.9
		c3.8-9.6,11.3-18.5,22.3-22.3c12.5-4.3,28.1-0.6,36.1,8.7"/>
	<polyline class="st5" points="235.8,-16.7 204.3,99.2 351.5,-21.5 	"/>
	<circle class="st6" cx="593.8" cy="628.8" r="73.9"/>
	<g>
		<g>
			<g id="Layer_1-2">
				<path class="st7" d="M352.7,997.7c0,3.4-0.4,7-2.8,9.6c-3.1,3.5-8.7,3.9-13.6,4.1l-43.2,1.4c-7.7,0.5-15.5,0.2-23.1-0.8
					c-7.7-1.1-14.8-4.5-20.1-9.7c-3.2-3.6-5.6-7.8-6.8-12.4c-1.8-5.8-2.1-11.9-1.1-17.9c3.9-20.2,26.8-34.6,48.8-29.7
					c9.5,2.1,17.5,7.3,26.1,11.2c9.3,4.1,18.9,1.4,27.7,5.1l4.1,1.8C351.7,972.8,353.1,985.3,352.7,997.7z"/>
				<path class="st8" d="M245,965.9c7.3-16.2,27.1-26.8,46.5-22.4"/>
				<path class="st9" d="M741.1,917.7h-7.5l0.2-12.1c0.1-3.6,3.2-6.5,7.2-6.5l0,0L741.1,917.7z"/>
				<path class="st10" d="M685.9,907.4h57.3c1.9,0,3.4,1.4,3.4,3.1v6.8l0,0h-64.1l0,0v-6.8C682.6,908.8,684.1,907.4,685.9,907.4z"/>
				<path class="st7" d="M359.9,934.9c-1.3-0.8-22.9-12.8-43-12c0,0,12.7,23.6,11,40.5"/>
				<path class="st11" d="M347.7,945.6l-4.2,3.8L328,963.3c1.2-11.7-4.6-26.8-8.3-34.8c-1.4-3.1-2.5-5.2-2.7-5.6
					C324.3,923.8,339.8,928,347.7,945.6z"/>
				<path class="st12" d="M628.1,901.3L628.1,901.3c-0.7,0.3-1.5,0.6-2.3,0.7l-0.4,0.1c-15.3,3.4-79.3,6.6-91.4,6.7h-0.4
					c-9.6,0-51.6-2.1-76.3-4.6l-2.5-0.1c-3.4-0.4-6.4-0.7-8.8-1.1c-1.4-0.2-2.6-0.4-3.6-0.6l-0.6-0.2l0,0c-2.3-0.6-3.3-1.1-2.6-1.7
					l0,0c0.2-0.1,0.4-0.2,0.6-0.3c1.7-0.6,3.2-1.4,4.7-2.4l0,0c1-0.7,2-1.5,2.9-2.3c0.1-0.1,0.1-0.1,0.2-0.2c0.6-0.6,1.3-1.3,1.8-2
					c0.1-0.1,0.2-0.2,0.2-0.3l0,0c3.3-4.5,5.6-9.5,6.8-14.8c1.3-4.6,2.3-9.2,4.1-13.7c1.1-3.1,2.8-6.1,4.9-8.7
					c0.6-0.8,1.3-1.6,2.1-2.3c0.4-0.4,0.8-0.8,1.3-1.2c3.1-2.7,6.6-4.9,10.4-6.7c1.4-0.7,2.8-1.3,4.2-1.8c7.3-2.8,15-4.7,22.9-5.7
					c2.3-0.3,4.3-0.6,6.5-0.8c6.8-0.7,13.9-1.2,20.9-1.3h0.4c9.2,0.1,18.3,0.8,27.4,2.1c9.4,1.1,18.6,3.7,27.1,7.6l0,0
					c0.9,0.5,1.8,0.9,2.7,1.4c1.4,0.7,2.7,1.5,3.9,2.4c1.3,0.9,2.6,1.8,3.8,2.8c4.1,3.7,7.1,8.3,8.7,13.4c1.3,3.6,2.3,7.5,3.3,11.2
					c1.2,5.7,3.6,11.1,7,15.9c0.6,0.8,1.3,1.5,2,2.2c1,0.9,2,1.8,3.1,2.5c0.7,0.5,1.5,0.9,2.3,1.3c0.8,0.4,1.6,0.8,2.4,1.1l0.4,0.2
					C628.9,900.6,628.8,901,628.1,901.3z"/>
				<path class="st13" d="M625.7,902c-9.9,1.7-20,2.9-30.1,3.5c5.2-24.8-1.5-47-7.1-59.9c3.7,1.8,7.2,4,10.3,6.6
					c14.5,12.4,8.4,34.6,24.2,45.3c1.4,1,3,1.8,4.7,2.4C629.4,900.7,628.5,901.4,625.7,902z"/>
				<path class="st13" d="M441.9,901.9c10,1.7,20,2.9,30.1,3.5c-5.2-24.8,1.5-47,7.1-59.9c-3.7,1.8-7.2,4-10.3,6.6
					c-14.5,12.4-8.4,34.6-24.2,45.3c-1.4,1.1-3,1.9-4.7,2.6C438.2,900.5,439.1,901.2,441.9,901.9z"/>
				<ellipse class="st13" cx="476.5" cy="882.9" rx="3.2" ry="2.9"/>
				<ellipse class="st13" cx="478.1" cy="877.3" rx="1.4" ry="1.3"/>
				<ellipse class="st13" cx="482.7" cy="882.4" rx="1.3" ry="1.2"/>
				<ellipse class="st13" cx="484.1" cy="877.2" rx="2.3" ry="2.1"/>
				<ellipse class="st13" cx="481.8" cy="888.2" rx="2.2" ry="2"/>
				<path class="st7" d="M406.2,960.5l-32.2-21.3c2.9-4.1,6.6-7.7,10.8-10.7c5.3-3.8,11.3-6.8,17.7-8.9c3.4-1.1,7-1.9,10.5-2.5
					C413,917.1,404.5,948.8,406.2,960.5z"/>
				<path class="st11" d="M413,917.1c0,0-18.1,10.3-19,22.7l9.9,20.1l1.6-0.6C405.4,959.3,411.7,920.6,413,917.1z"/>
				<path class="st14" d="M297.5,1009.7c0-9.6,8.3-17.6,18.8-18l69.8-3.3c12.9,0,23.3,9.5,23.3,21.3l0,0H297.5L297.5,1009.7z"/>
				<path class="st15" d="M439,900.3c2.1-0.8,4-1.8,5.7-3.2c-0.9,1.9-2,3.6-3.3,5.3C438.3,901.7,437.2,901,439,900.3z"/>
				<path class="st15" d="M625.4,902.3c-1-1.4-2-2.9-2.7-4.4c1.4,1,3,1.8,4.7,2.4C629.1,901,628.2,901.7,625.4,902.3z"/>
				<path d="M488.5,731.1c-27.4-25.6-19.1-62.8-19.1-62.8l16.6,7.8c0,0-12.7-30.1,12.4-48.5c0,0-5.1,13.7,6.4,20.9
					c0,0,4.5-25.9,29.9-29.4c0,0-3.2,16.3,4.1,21.8c0,0,33.1-28.5,96.8-8.4c0,0-10.8,12.8-20.7,18.9c11.7-0.2,23.4,1.2,34.7,4.1
					c-25.9,5.1-53.3,17.5-65.8,39.7c-4.2,7-7.1,14.6-8.4,22.5"/>
				<path class="st16" d="M548.2,835.4c0.4,1.4,0,3-1,4.1c-3.2,3.5-7.8,5.6-12.8,5.9h-0.2c-5-0.3-9.6-2.5-12.8-5.9
					c-1.1-1.1-1.5-2.7-1-4.1c3-11,1.9-33.9,1.9-33.9l11.9-3.7h0.2l11.9,3.7C546.3,801.5,545.1,824.4,548.2,835.4z"/>
				<path d="M594.2,668.1c0,3.2,8.6,38.4-15.6,55.2v-55.2C578.6,668.1,594.2,667.8,594.2,668.1z"/>
				<ellipse class="st16" cx="487.9" cy="736.1" rx="17" ry="15.5"/>
				<ellipse class="st16" cx="578.8" cy="735.6" rx="17" ry="15.5"/>
				<ellipse class="st17" cx="487.2" cy="736.8" rx="7.9" ry="7.2"/>
				<ellipse class="st17" cx="581.6" cy="735.6" rx="8" ry="7.3"/>
				<path class="st16" d="M582.5,791.3c-11.1,10.5-33.4,32-48.7,32c0,0,0-0.3-0.1-0.8v0.8c-15.3,0-37.6-21.5-48.7-32
					c-8.5-7.9-4.4-18.2-1.5-27.5c2.1-6.5,3.4-13.2,3.9-19.9c0.8-12.9-0.7-25.5,1-38.4c3.5-26.5,40.1-25.5,45.2-25.2
					c5.1-0.3,41.7-1.2,45.2,25.2c2.7,20.2-1.7,40.6,5.5,60.3C587.6,774.4,590.5,783.8,582.5,791.3z"/>
				<path class="st18" d="M578.1,701.2c-11.6-14.8-39.7-14.1-44.3-13.9c-4.5-0.2-32.6-0.9-44.3,13.9c6.8-22,39.5-21.1,44.3-20.8
					C538.6,680.1,571.3,679.1,578.1,701.2z"/>
				<path d="M580.1,714v2.1c0-3.5-0.3-7-1-10.5c-3.5-26.5-40.1-25.5-45.2-25.2c-5.2-0.3-41.7-1.2-45.2,25.2c-0.6,4.2-0.9,8.5-1,12.8
					c-0.3-7.1,0-14.3,0.8-21.3c1.4-10.1,8.2-16.9,17.3-20.8c3.3-5.4,8-10,13.6-13.5c-2.1,3-3.1,6.4-3,9.9c2.8-4.9,7.1-8.9,12.4-11.5
					l-1.5,4.4c-0.8,2-1.3,4.1-1.6,6.2c5.6-0.4,11.2-0.3,16.8,0.1c6.1,0.4,12,1.6,17.7,3.7c10.1,3.4,17.3,11.7,18.7,21.5
					C579.9,702.7,580.2,708.3,580.1,714z"/>
				<path class="st19" d="M546.7,825.3c-11.8,1-19.7-1.3-24.7-3.7c0-0.5,0-0.9,0-1.4c3.5,1.8,7.5,2.9,11.5,3.1v-0.8
					c0,0.5,0.1,0.8,0.1,0.8c3.4-0.1,6.7-0.9,9.7-2.3c0.9-0.4,1.9-0.8,2.8-1.3c0,0.6,0,1.1,0,1.7C546.5,822.7,546.7,824,546.7,825.3z
					"/>
				<path class="st20" d="M631.9,907v100H435V907c0-5.4,3.4-10.3,8.7-12.7c1.8-0.8,3.8-1.3,5.9-1.4l0,0c0.3,0,0.6,0,0.8,0h166
					c0.5,0,0.9,0,1.4,0l0,0c1.9,0.1,3.8,0.6,5.5,1.5C628.6,896.8,631.9,901.6,631.9,907z"/>
				<path class="st21" d="M631.9,965.7v46.7H435V974C476.3,985,553,997,631.9,965.7z"/>
				<ellipse cx="547.6" cy="665.5" rx="3.3" ry="3"/>
				<ellipse cx="556.2" cy="662.7" rx="1.7" ry="1.6"/>
				<ellipse cx="550.8" cy="660.4" rx="1.7" ry="1.6"/>
				<ellipse cx="596.1" cy="628.8" rx="3" ry="2.7"/>
				<path class="st22" d="M587.6,781.2c-0.3,3.8-2.1,7.4-5.1,10.1c-11.1,10.5-33.4,32-48.7,32c0,0,0-0.3-0.1-0.8v0.8
					c-15.3,0-37.6-21.5-48.7-32c-3-2.7-4.7-6.3-5-10.1C509.9,807.9,557.7,807.9,587.6,781.2L587.6,781.2z"/>
				<path class="st23" d="M555.3,770.6c2.7,0,4.8,2,4.8,4.4c0,0.4,0,0.7-0.1,1.1c-3.1,12.2-16.4,19.9-29.8,17.1
					c-9.3-1.9-16.6-8.6-18.7-17.1c-0.6-2.4,0.9-4.8,3.5-5.4c0.4-0.1,0.8-0.1,1.2-0.1H555.3z"/>
				<ellipse class="st23" cx="491.7" cy="713.5" rx="1.3" ry="1.2"/>
				<ellipse class="st23" cx="496.8" cy="711.7" rx="1.1" ry="1"/>
				<path d="M525.3,720c-0.5,1.5-2.3,2.3-3.9,1.8c0,0,0,0,0,0h-0.3c-11.3-4.1-17.6,0.9-17.9,1.2c-0.6,0.5-1.3,0.8-2.1,0.7h-0.2
					c-1.7-0.1-3-1.4-2.9-3c0,0,0,0,0,0c0-0.7,0.4-1.4,0.9-1.9c0.4-0.3,9.4-7.8,24.5-2.3C525,717,525.8,718.5,525.3,720z"/>
				<path d="M543.6,720c0.5,1.5,2.3,2.3,3.9,1.8c0,0,0,0,0,0h0.3c11.3-4.1,17.6,0.9,17.9,1.2c0.6,0.5,1.3,0.8,2.1,0.7h0.2
					c1.7-0.1,3-1.4,2.9-3c0,0,0,0,0,0c0-0.7-0.4-1.4-1-1.9c-0.4-0.3-9.4-7.8-24.4-2.3C543.9,717,543.1,718.5,543.6,720z"/>
				<path class="st24" d="M534.4,741.3L534.4,741.3c2.5,0,4.6,1.9,4.6,4.2v16.2c0,2.3-2.1,4.2-4.6,4.2l0,0c-2.5,0-4.6-1.9-4.6-4.2
					v-16.2C529.8,743.2,531.9,741.3,534.4,741.3z"/>
				<ellipse cx="513.2" cy="733.4" rx="6.1" ry="7.1"/>
				<ellipse cx="554.3" cy="733.4" rx="6.1" ry="7.1"/>
				<path class="st25" d="M488.6,721.4c0.5,9.5,0.3,19-0.5,28.4"/>
				<path class="st26" d="M249,1007.2h510.5c3.8,0,6.9,3.2,6.9,7.2l0,0c0,4-3.1,7.2-6.9,7.2H249c-3.8,0-6.9-3.2-6.9-7.2l0,0
					C242.1,1010.5,245.2,1007.2,249,1007.2z"/>
				<path class="st27" d="M759.5,1014.5c0,4-3.1,7.2-6.8,7.2H248.9c-3.8,0-6.8-3.2-6.8-7.2l0,0c0-1.4,0.4-2.7,1.1-3.9
					c1.2,2.1,3.4,3.3,5.7,3.3h503.7c1.8,0,3.5-0.7,4.8-2.1c0.3-0.4,0.7-0.8,0.9-1.2C759.1,1011.8,759.5,1013.1,759.5,1014.5z"/>
				<path class="st28" d="M553.6,1016.9h68c1.3,0,2.3,1,2.3,2.1l0,0c0,1.2-1,2.1-2.3,2.1h-68c-1.3,0-2.3-1-2.3-2.1l0,0
					C551.3,1017.8,552.3,1016.9,553.6,1016.9z"/>
				<path class="st28" d="M632.5,1016.9h9.2c1.3,0,2.3,1,2.3,2.1l0,0c0,1.2-1,2.1-2.3,2.1h-9.2c-1.3,0-2.3-1-2.3-2.1l0,0
					C630.2,1017.8,631.3,1016.9,632.5,1016.9z"/>
				<path class="st23" d="M269.7,1007.2h68c1.3,0,2.3,1,2.3,2.1l0,0c0,1.2-1,2.1-2.3,2.1h-68c-1.3,0-2.3-1-2.3-2.1l0,0
					C267.4,1008.1,268.5,1007.2,269.7,1007.2z"/>
				<path class="st23" d="M348.7,1007.2h9.2c1.3,0,2.3,1,2.3,2.1l0,0c0,1.2-1,2.1-2.3,2.1h-9.2c-1.3,0-2.3-1-2.3-2.1l0,0
					C346.4,1008.1,347.4,1007.2,348.7,1007.2z"/>
				<path class="st28" d="M742.2,1016.9h7.9c1.1,0,2,1,2,2.1l0,0c0,1.2-0.9,2.1-2,2.1h-7.9c-1.1,0-2-1-2-2.1l0,0
					C740.2,1017.8,741.1,1016.9,742.2,1016.9z"/>
				<ellipse class="st21" cx="591.3" cy="972.8" rx="3.5" ry="3.2"/>
				<ellipse class="st21" cx="498.5" cy="918.4" rx="13" ry="11.9"/>
				<ellipse class="st21" cx="585.4" cy="964.8" rx="1.8" ry="1.7"/>
				<ellipse class="st21" cx="585.1" cy="980" rx="4.3" ry="4"/>
				<ellipse class="st21" cx="599.5" cy="970.2" rx="2.1" ry="1.9"/>
				<ellipse class="st21" cx="602.6" cy="960.2" rx="5" ry="4.6"/>
				<path class="st23" d="M492.4,897h-39.9v-4.1h44.4C496.9,895.2,494.9,897,492.4,897z"/>
				<path class="st23" d="M510.2,897h-3.6c-2.5,0-4.5-1.8-4.5-4.1h12.7C514.8,895.2,512.7,897,510.2,897z"/>
				<ellipse class="st29" cx="429.9" cy="1014.4" rx="3.3" ry="3.1"/>
				<ellipse class="st29" cx="439.6" cy="1010.8" rx="1.2" ry="1.1"/>
				<ellipse class="st29" cx="415.4" cy="1014" rx="3.3" ry="3"/>
				<ellipse class="st29" cx="421.5" cy="1010.7" rx="0.9" ry="0.9"/>
				<ellipse class="st29" cx="423.7" cy="1015.4" rx="1.4" ry="1.3"/>
				<ellipse class="st29" cx="438.4" cy="1017" rx="1.7" ry="1.6"/>
				<ellipse class="st29" cx="434.3" cy="1010.4" rx="1" ry="0.9"/>
				<ellipse class="st7" cx="367.3" cy="964.9" rx="39.3" ry="34.2"/>
				<path class="st11" d="M406.6,965.3c0,18.9-17.6,34.2-39.3,34.2s-39.3-15.3-39.3-34.2c0-0.8,0-1.5,0-2.3
					c1.5,17.8,18.5,32,39.3,32s37.8-14.2,39.2-32C406.5,963.7,406.6,964.5,406.6,965.3z"/>
				<ellipse class="st23" cx="452.5" cy="897.7" rx="5.3" ry="4.9"/>
				<ellipse class="st30" cx="455.9" cy="905.1" rx="1.6" ry="1.5"/>
				<ellipse class="st31" cx="452.9" cy="910.8" rx="2.6" ry="2.4"/>
				<ellipse class="st23" cx="444.3" cy="902.2" rx="1.9" ry="1.7"/>
				<ellipse class="st23" cx="449.7" cy="905.3" rx="0.9" ry="0.8"/>
				<line class="st32" x1="342.1" y1="968.8" x2="314.9" y2="963"/>
				<line class="st32" x1="342.1" y1="977.3" x2="312.6" y2="985.2"/>
				<line class="st32" x1="342.1" y1="973.1" x2="323.7" y2="973.1"/>
				<line class="st32" x1="390" y1="968.8" x2="417.2" y2="963"/>
				<line class="st32" x1="390" y1="977.3" x2="419.4" y2="985.2"/>
				<line class="st32" x1="390" y1="973.1" x2="408.4" y2="973.1"/>
				<path class="st23" d="M354.2,944.2L354.2,944.2c6,0,10.8,4.4,10.8,9.8v4.3c0,5.4-4.8,9.8-10.8,9.8h0c-5.9,0-10.8-4.4-10.8-9.8
					V954C343.4,948.6,348.2,944.2,354.2,944.2z"/>
				<ellipse class="st33" cx="354.2" cy="956.6" rx="3.9" ry="3.6"/>
				<path class="st23" d="M380.9,944.5L380.9,944.5c6.1,0,10.9,4.5,10.9,10v4.4c0,5.5-4.9,10-10.9,10h0c-6,0-10.9-4.5-10.9-10v-4.4
					C370,949,374.9,944.5,380.9,944.5z"/>
				<path class="st33" d="M366.1,968.1c-0.8,0-1.5,0.6-1.5,1.4c0,0.3,0.1,0.7,0.4,0.9c0.8,1.4,2.8,1.9,4.3,1.2
					c0.5-0.3,1-0.7,1.3-1.2c0.5-0.6,0.5-1.5-0.2-2c-0.3-0.2-0.6-0.3-0.9-0.4H366.1z"/>
				<path class="st34" d="M364.9,930.6c-18.1,0.4-29.4,14.2-30,14.8l-0.7,0.8l1.8,1.2l0.7-0.8c0-0.1,11.3-13.5,28.2-13.9
					C364.9,932.6,364.8,930.6,364.9,930.6z"/>
				<ellipse class="st23" cx="361.2" cy="934.2" rx="2.2" ry="2"/>
				<ellipse class="st35" cx="360.4" cy="937.5" rx="0.7" ry="0.7"/>
				<ellipse class="st36" cx="361.2" cy="940.3" rx="1.1" ry="1"/>
				<ellipse class="st35" cx="365.3" cy="936.7" rx="1.1" ry="1"/>
				<ellipse class="st23" cx="365.6" cy="932.7" rx="1.2" ry="1.1"/>
				<path class="st37" d="M748.7,917.9l-0.7,3.6h-66.8l-0.7-3.6c-0.2-1,0.6-2,1.7-2.2c0.1,0,0.2,0,0.3,0h64.1c1.1,0,2,0.8,2,1.8
					C748.7,917.7,748.7,917.8,748.7,917.9z"/>
				<rect x="676.1" y="911.7" class="st38" width="77" height="9.9"/>
				<rect x="682.5" y="910.6" class="st39" width="64.1" height="1.1"/>
				<ellipse class="st39" cx="688.7" cy="910.4" rx="1.2" ry="1.1"/>
				<ellipse class="st39" cx="692.9" cy="909.1" rx="0.9" ry="0.8"/>
				<ellipse class="st39" cx="690.2" cy="908.8" rx="0.6" ry="0.6"/>
				<path class="st38" d="M686.5,908.4"/>
				<rect x="681.2" y="911.6" class="st40" width="24.7" height="1.8"/>
				<ellipse class="st33" cx="381.2" cy="956.6" rx="3.9" ry="3.6"/>
				<path class="st41" d="M393,925c3.5-1.8,7.1-3.4,10.9-4.5l-1.5-0.8c-6.4,2-12.4,5.1-17.7,8.9l1.3,1.2c0,0,0.3-0.3,1.1-0.9
					c-0.1,0.2-0.2,0.5-0.2,0.8c-0.1,1.1,0.9,2.1,2.1,2.2s2.3-0.8,2.4-2c0.1-1.1-0.9-2.1-2.1-2.2c0,0-0.1,0-0.1,0c-0.1,0-0.3,0-0.4,0
					c0.8-0.6,1.9-1.2,3.1-2c0.1,0.3,0.4,0.6,0.7,0.6c0.4,0,0.8-0.3,0.8-0.7c0,0,0,0,0,0C393.4,925.3,393.2,925.1,393,925z"/>
				<ellipse class="st23" cx="393.2" cy="928.5" rx="0.7" ry="0.7"/>
				<path class="st42" d="M511.8,841.3h-0.3c0.3,0.4,0.5,0.9,0.5,1.4c0.1,1.5-1.1,2.7-2.7,2.8s-3-1-3.1-2.5c0-0.3,0-0.7,0.1-1
					c-7,1.1-13.9,2.8-20.6,5.1c-0.3,0.1-0.5,0.1-0.8,0.1c-1.2,0-2.3-0.9-2.3-2.1c0-0.5,0.2-0.9,0.5-1.3c7.3-2.8,15-4.7,22.9-5.7
					c2.3-0.3,4.3-0.6,6.5-0.8c0.6,0.3,1.1,0.9,1.2,1.6C514,840.1,513.1,841.1,511.8,841.3C511.9,841.3,511.9,841.3,511.8,841.3z"/>
				<ellipse class="st43" cx="501.9" cy="851.5" rx="1.5" ry="1.4"/>
				<ellipse class="st43" cx="509.3" cy="855.1" rx="1.3" ry="1.2"/>
				<ellipse class="st43" cx="512.9" cy="850.9" rx="2.4" ry="2.2"/>
				<ellipse class="st43" cx="507" cy="849.1" rx="1.5" ry="1.4"/>
				<ellipse class="st43" cx="518.2" cy="845.9" rx="2" ry="1.8"/>
				<ellipse class="st44" cx="262.6" cy="953.3" rx="5.1" ry="4.7"/>
				<ellipse class="st44" cx="270.8" cy="946.9" rx="2.2" ry="2"/>
				<ellipse class="st44" cx="271.2" cy="955.5" rx="1.8" ry="1.7"/>
				<ellipse class="st44" cx="281.4" cy="944.3" rx="1.7" ry="1.5"/>
				<ellipse class="st44" cx="277.2" cy="949.3" rx="2" ry="1.8"/>
				<ellipse class="st44" cx="283.5" cy="948.7" rx="2.4" ry="2.2"/>
				<ellipse class="st23" cx="532.5" cy="952.8" rx="24.6" ry="22.5"/>
				<ellipse class="st21" cx="463.1" cy="940.2" rx="13" ry="11.9"/>
				<ellipse class="st21" cx="473.6" cy="965.8" rx="13" ry="11.9"/>
				<ellipse class="st21" cx="585.6" cy="919.5" rx="13" ry="11.9"/>
				<ellipse class="st21" cx="540.4" cy="910.8" rx="13" ry="11.9"/>
				<ellipse class="st21" cx="572.7" cy="945.2" rx="13" ry="11.9"/>
			</g>
			<path class="st45" d="M689.2,901.6c3.4,0.8,6.9-1.7,8-4.7c1.1-3,0.5-6.4-0.4-9.5c-0.9-3.1-2-6.2-1.8-9.4c0.2-3.2,2.2-6.6,5.6-7.4
				"/>
			<path class="st45" d="M707.6,902.1c3.6-0.9,7.2-1.8,10.2-3.8c3-2,5.2-5.3,4.6-8.7c-0.5-2.7-2.7-4.9-4.9-6.8s-4.6-3.7-5.8-6.3
				s-0.6-6,2.1-7.3"/>
			<path class="st45" d="M726,900.3c4.4-1.7,7.3-6.2,6.9-10.5c-0.4-3.7-2.9-6.9-4.1-10.5c-1.2-3.6-0.3-8.4,3.6-9.5"/>
			<g>
				<path class="st46" d="M553.9,954.3c0-2.6-3.5-5-9-6.6c1.3-5.1,0.7-9.1-1.8-10.4c-0.6-0.3-1.2-0.4-2-0.4v1.8c0.4,0,0.7,0.1,1,0.2
					c1.2,0.6,1.7,3,1.3,6c-0.1,0.7-0.3,1.5-0.4,2.3c-1.7-0.4-3.6-0.7-5.5-0.9c-1.2-1.5-2.4-2.8-3.6-4c2.8-2.4,5.5-3.7,7.3-3.7V937
					l0,0c-2.4,0-5.5,1.6-8.7,4.3c-3.2-2.7-6.3-4.2-8.7-4.2v1.8c1.8,0,4.5,1.3,7.3,3.7c-1.2,1.2-2.4,2.5-3.6,4
					c-2,0.2-3.8,0.5-5.5,0.9c-0.2-0.8-0.3-1.6-0.5-2.3c-0.4-3,0.1-5.4,1.3-6c0.3-0.1,0.6-0.2,1-0.2V937l0,0c-0.7,0-1.4,0.1-2,0.4
					c-2.4,1.3-3,5.3-1.7,10.3c-5.4,1.5-8.9,4-8.9,6.5c0,2.6,3.5,5,9,6.6c-1.3,5.1-0.7,9.1,1.8,10.4c0.6,0.3,1.2,0.4,2,0.4
					c2.4,0,5.5-1.6,8.7-4.3c3.2,2.7,6.3,4.2,8.7,4.2c0.7,0,1.4-0.1,2-0.4c2.4-1.3,3-5.3,1.7-10.3
					C550.4,959.4,553.9,956.9,553.9,954.3z M542.6,949c-0.3,1-0.7,2.1-1.2,3.1c-0.4-0.6-0.7-1.3-1.1-1.9c-0.4-0.6-0.8-1.3-1.3-1.9
					C540.2,948.6,541.4,948.8,542.6,949z M538.6,957.5c-0.7,1.1-1.4,2.1-2.1,3c-1.3,0.1-2.6,0.2-3.9,0.2c-1.3,0-2.6-0.1-3.9-0.2
					c-0.7-0.9-1.4-2-2.1-3c-0.7-1-1.3-2.1-1.8-3.2c0.5-1.1,1.1-2.1,1.8-3.2c0.7-1.1,1.4-2.1,2.1-3c1.3-0.1,2.6-0.2,3.9-0.2
					c1.3,0,2.6,0.1,3.9,0.2c0.7,0.9,1.4,2,2.1,3c0.7,1,1.3,2.1,1.8,3.2C539.8,955.4,539.2,956.5,538.6,957.5z M541.4,956.5
					c0.5,1.1,0.9,2.1,1.2,3.2c-1.1,0.3-2.3,0.5-3.6,0.6c0.4-0.6,0.9-1.2,1.3-1.9C540.6,957.7,541,957.1,541.4,956.5z M532.5,964.9
					c-0.8-0.8-1.6-1.6-2.4-2.5c0.8,0,1.6,0.1,2.4,0.1c0.8,0,1.6,0,2.4-0.1C534.2,963.3,533.3,964.2,532.5,964.9z M526.1,960.3
					c-1.2-0.2-2.4-0.4-3.6-0.6c0.3-1,0.7-2.1,1.2-3.1c0.4,0.6,0.7,1.3,1.1,1.9C525.2,959,525.6,959.7,526.1,960.3z M532.5,943.7
					c0.8,0.8,1.6,1.6,2.4,2.5c-0.8,0-1.6-0.1-2.4-0.1c-0.8,0-1.6,0-2.4,0.1C530.9,945.3,531.7,944.5,532.5,943.7z M526.1,948.4
					c-0.4,0.6-0.9,1.2-1.3,1.9c-0.4,0.6-0.8,1.3-1.1,1.9c-0.5-1.1-0.9-2.1-1.2-3.2C523.6,948.8,524.8,948.6,526.1,948.4z
					 M518.2,958.4c-3.1-1.2-5.1-2.8-5.1-4s2-2.8,5.1-4c0.7-0.3,1.6-0.6,2.4-0.8c0.5,1.6,1.1,3.2,2,4.8c-0.8,1.7-1.4,3.3-1.9,4.8
					C519.8,958.9,518.9,958.6,518.2,958.4z M522.9,969.7c-1.2-0.6-1.7-3-1.3-6c0.1-0.7,0.3-1.5,0.4-2.3c1.7,0.4,3.6,0.7,5.5,0.9
					c1.2,1.5,2.4,2.8,3.6,4c-2.8,2.4-5.5,3.7-7.3,3.7C523.5,969.9,523.1,969.8,522.9,969.7z M543.5,963.7c0.4,3-0.1,5.4-1.3,6
					c-0.3,0.1-0.6,0.2-1,0.2c-1.8,0-4.5-1.3-7.3-3.7c1.2-1.2,2.4-2.5,3.6-4c2-0.2,3.8-0.5,5.5-0.9
					C543.3,962.1,543.4,962.9,543.5,963.7z M546.9,958.4c-0.7,0.3-1.6,0.6-2.4,0.8c-0.5-1.6-1.1-3.2-2-4.8c0.8-1.7,1.4-3.3,1.9-4.8
					c0.9,0.2,1.7,0.5,2.4,0.8c3.1,1.2,5.1,2.8,5.1,4C551.9,955.6,550,957.2,546.9,958.4z"/>
				<path class="st46" d="M523.8,937L523.8,937L523.8,937z"/>
				<ellipse class="st46" cx="532.5" cy="954.3" rx="4" ry="3.6"/>
				<path class="st46" d="M541.2,937L541.2,937L541.2,937z"/>
			</g>
			<polygon class="st47" points="747.9,921.4 736.7,1007.4 692.8,1007.4 680.7,921.3 			"/>
			<polygon class="st48" points="747.5,920.7 747.2,923 680.8,922.9 680.5,920.7 			"/>
		</g>
		<g>
			<path class="st49" d="M469.2,951.1c-0.3,0-0.6-0.1-0.9-0.2l-2.8-1.4c-0.4-0.2-0.2-0.3-0.1-0.3c0.6-0.2,0.7-0.2,1.3-0.5
				c0.1,0,0.1,0,0.2,0l2.2,1.1c0.1,0,0.2,0,0.3,0l8.5-4.2c0.1,0,0.1-0.1,0.1-0.2V937c0-0.1,0-0.2-0.1-0.2l-8.5-4.2
				c-0.1,0-0.2,0-0.3,0l-8.5,4.2c-0.1,0-0.1,0.1-0.1,0.2v8.4c0,0.1,0,0.2,0.1,0.2l2.3,1.1c1.3,0.5,2-0.1,2-0.7v-8.3
				c0-0.1,0.1-0.2,0.3-0.2h1.1c0.1,0,0.3,0.1,0.3,0.2v8.3c0,1.4-0.9,2.3-2.5,2.3c-0.5,0-0.9,0-2-0.5l-2.2-1.1
				c-0.6-0.3-0.9-0.8-0.9-1.3V937c0-0.5,0.3-1.1,0.9-1.3l8.5-4.2c0.5-0.3,1.3-0.3,1.8,0l8.5,4.2c0.6,0.3,0.9,0.8,0.9,1.3v8.4
				c0,0.5-0.3,1.1-0.9,1.3l-8.5,4.2C469.9,951.1,469.5,951.1,469.2,951.1L469.2,951.1z M471.9,945.3c-3.7,0-4.5-1.5-4.5-2.7
				c0-0.1,0.1-0.2,0.3-0.2h1.1c0.1,0,0.2,0.1,0.2,0.2c0.2,1,0.7,1.4,2.9,1.4c1.8,0,2.6-0.3,2.6-1.2c0-0.5-0.2-0.8-3-1.1
				c-2.3-0.2-3.8-0.6-3.8-2.2c0-1.5,1.4-2.4,3.9-2.4c2.7,0,4.1,0.8,4.2,2.6c0,0.1,0,0.1-0.1,0.2c0,0-0.1,0.1-0.2,0.1h-1.1
				c-0.1,0-0.2-0.1-0.2-0.2c-0.3-1-0.9-1.3-2.7-1.3c-2,0-2.2,0.6-2.2,1c0,0.5,0.3,0.7,2.9,1c2.6,0.3,3.9,0.7,3.9,2.3
				C476.1,944.4,474.6,945.3,471.9,945.3L471.9,945.3z"/>
		</g>
		<g>
			<path class="st50" d="M488.1,905.7h34.3v20.4h-34.3V905.7z"/>
			<path class="st51" d="M498.6,922.1h-0.9c0-1.3-0.1-2.6-0.3-3.8h0l-1.4,3.8h-0.7l-1.4-3.8h0c-0.1,1.1-0.2,2.4-0.2,3.8h-0.8
				c0.1-1.7,0.2-3.3,0.4-4.8h1.2l1.3,3.5h0l1.3-3.5h1.1C498.4,919.1,498.6,920.7,498.6,922.1 M502.6,918.6c-0.4,1.8-0.9,3-1.5,3.8
				c-0.5,0.6-1,0.9-1.6,0.9c-0.2,0-0.3,0-0.6-0.1v-0.4c0.1,0,0.2,0,0.4,0c0.3,0,0.5-0.1,0.6-0.2c0.2-0.2,0.3-0.3,0.3-0.5
				c0-0.1-0.1-0.4-0.2-0.8l-1-2.7h0.9l0.7,2c0.2,0.5,0.2,0.8,0.2,1c0.4-0.9,0.7-1.9,0.8-3L502.6,918.6L502.6,918.6L502.6,918.6z"/>
			<path class="st52" d="M515,922.1h-2.6v-4.8h0.9v4.2h1.8V922.1z M511.7,922.2l-1-0.4c0.1-0.1,0.2-0.1,0.3-0.2
				c0.4-0.4,0.7-1.1,0.7-1.9c0-1.6-0.7-2.4-2.2-2.4c-0.7,0-1.3,0.2-1.7,0.6c-0.4,0.4-0.6,1.1-0.6,1.9c0,0.8,0.2,1.4,0.6,1.8
				c0.4,0.4,0.9,0.5,1.6,0.5c0.3,0,0.5,0,0.7-0.1l1.3,0.7L511.7,922.2z M508.4,921.2c-0.2-0.3-0.3-0.8-0.3-1.5
				c0-1.2,0.4-1.8,1.3-1.8c0.4,0,0.8,0.1,1,0.4c0.2,0.3,0.3,0.8,0.3,1.5c0,1.2-0.4,1.8-1.3,1.8C508.9,921.6,508.6,921.5,508.4,921.2
				 M506.7,920.8c0,0.4-0.2,0.7-0.5,1c-0.3,0.3-0.8,0.4-1.4,0.4c-0.5,0-1.1-0.1-1.6-0.4l0.2-0.4c0.4,0.2,0.8,0.3,1.2,0.3
				c0.3,0,0.6-0.1,0.8-0.2c0.2-0.1,0.3-0.3,0.3-0.5c0-0.3-0.2-0.5-0.7-0.7c-0.4-0.2-1.2-0.6-1.2-0.6c-0.4-0.3-0.6-0.5-0.6-1
				c0-0.4,0.2-0.7,0.5-0.9c0.3-0.2,0.7-0.4,1.2-0.4c0.5,0,1,0.1,1.4,0.4l-0.2,0.4c-0.4-0.1-0.7-0.2-1.1-0.2c-0.3,0-0.5,0.1-0.7,0.2
				c-0.2,0.1-0.2,0.3-0.2,0.5c0,0.3,0.2,0.5,0.7,0.7c0.4,0.2,1.2,0.6,1.2,0.6C506.5,920.1,506.7,920.4,506.7,920.8"/>
			<path class="st51" d="M516.1,915.8c-0.5,0-1,0-1.3,0.2c-0.1,0-0.3,0-0.3,0.1c0.1,0,0.1,0.1,0.1,0.2c0.1,0.1,0.2,0.3,0.3,0.4
				c0.1,0.1,0.3,0.2,0.4,0.3c0.3,0.1,0.6,0.2,0.8,0.4c0.1,0.1,0.3,0.2,0.4,0.3c0.1,0,0.1,0.1,0.2,0.1v0c0-0.1-0.1-0.1-0.1-0.2
				l-0.2-0.2c-0.2-0.2-0.4-0.4-0.7-0.6c-0.2-0.1-0.7-0.3-0.8-0.5l0,0c0.1,0,0.3-0.1,0.5-0.1c0.2-0.1,0.4,0,0.7-0.1
				c0.1,0,0.2-0.1,0.3-0.1v-0.1c-0.1-0.1-0.2-0.2-0.3-0.3c-0.3-0.3-0.7-0.5-1.1-0.7c-0.2-0.1-0.5-0.2-0.7-0.3
				c-0.1,0-0.2-0.1-0.3-0.1c-0.1-0.1-0.2-0.3-0.3-0.4c-0.2-0.3-0.4-0.7-0.5-1c-0.1-0.2-0.2-0.4-0.3-0.7c-0.7-1-1.4-1.6-2.6-2.1
				c-0.2-0.1-0.5-0.2-0.9-0.2l-0.5,0c-0.1,0-0.2-0.1-0.3-0.2c-0.4-0.2-1.4-0.7-1.6-0.1c-0.2,0.4,0.3,0.7,0.4,0.9
				c0.1,0.1,0.3,0.3,0.3,0.4c0,0.1,0.1,0.2,0.1,0.3c0.1,0.3,0.2,0.5,0.3,0.8c0.1,0.1,0.2,0.2,0.2,0.4c0.1,0.1,0.1,0.1,0.2,0.2
				c-0.1,0.1-0.1,0.3-0.2,0.4c-0.2,0.6-0.1,1.5,0.2,1.9c0.1,0.1,0.4,0.5,0.7,0.3c0.3-0.1,0.2-0.4,0.3-0.7c0-0.1,0-0.1,0-0.2v0
				c0.1,0.2,0.2,0.3,0.3,0.5c0.2,0.3,0.6,0.6,0.9,0.8c0.2,0.1,0.3,0.3,0.5,0.3v0h0c0-0.1-0.1-0.1-0.2-0.1c-0.1-0.1-0.3-0.2-0.3-0.3
				c-0.3-0.3-0.5-0.7-0.8-1c-0.1-0.2-0.2-0.4-0.3-0.6c0-0.1,0-0.2-0.1-0.2c-0.1,0.1-0.2,0.2-0.3,0.4c-0.1,0.2-0.1,0.6-0.2,0.9l0,0
				c-0.2,0-0.3-0.2-0.4-0.4c-0.2-0.4-0.2-1.1-0.1-1.5c0-0.1,0.2-0.5,0.2-0.6c0-0.1-0.2-0.2-0.2-0.3c-0.1-0.1-0.2-0.2-0.2-0.4
				c-0.2-0.3-0.2-0.7-0.4-1c-0.1-0.1-0.2-0.3-0.3-0.4c-0.1-0.2-0.3-0.3-0.4-0.4c0-0.1-0.1-0.2,0-0.2c0,0,0-0.1,0.1-0.1
				c0.1-0.1,0.3,0,0.4,0.1c0.2,0.1,0.5,0.2,0.7,0.3c0.1,0.1,0.2,0.2,0.3,0.2h0.1c0.2,0,0.5,0,0.7,0.1c0.4,0.1,0.7,0.2,1,0.4
				c0.9,0.5,1.6,1.2,2.1,2c0.1,0.1,0.1,0.3,0.2,0.4c0.1,0.3,0.3,0.6,0.5,0.8c0.1,0.3,0.3,0.5,0.5,0.8c0.1,0.1,0.5,0.2,0.7,0.2
				c0.1,0.1,0.3,0.1,0.5,0.2c0.2,0.1,0.5,0.3,0.7,0.4C515.8,915.5,516.1,915.7,516.1,915.8 M509.3,910.8c-0.1,0-0.2,0-0.3,0v0h0
				c0.1,0.1,0.1,0.2,0.2,0.2c0.1,0.1,0.1,0.2,0.2,0.3l0,0c0.1-0.1,0.1-0.1,0.1-0.3c0,0,0-0.1-0.1-0.1
				C509.4,910.9,509.3,910.8,509.3,910.8"/>
			<path class="st52" d="M516.8,922.1h0.1v-0.6h-0.2l-0.2,0.4l-0.2-0.4h-0.2v0.6h0.1v-0.4h0l0.2,0.4h0.1l0.2-0.4V922.1L516.8,922.1z
				 M515.6,922.1h0.1v-0.5h0.2v-0.1h-0.5v0.1h0.2L515.6,922.1L515.6,922.1z"/>
		</g>
		<g>
			<path class="st53" d="M602.6,917.2c0,0,0,0.1,0,0.1c0,0.3,0,1.2,0,1.8c0,0,0,0,0,0c0.1,0,0.2,0,0.4,0c0.2,0,0.3,0,0.4-0.1
				c0.2-0.1,0.2-0.5,0.2-0.8c0-0.8-0.3-1.1-0.7-1.1C602.7,917.2,602.6,917.2,602.6,917.2L602.6,917.2z M603.7,920.9
				c0-0.8-0.3-1.3-0.9-1.3c0,0-0.2,0-0.2,0c0,0,0,0,0,0c0,0.6,0,1.5,0,1.9c0,0.2,0.1,0.4,0.1,0.4c0.1,0.1,0.3,0.1,0.4,0.1
				C603.4,922.1,603.7,921.7,603.7,920.9L603.7,920.9z M601.7,916.8c0,0,0.2,0,0.5,0c0.3,0,0.6,0,0.9,0c0.4,0,0.9,0.3,0.9,1.3
				c0,0.5-0.2,0.9-0.4,1.1c0,0,0,0,0,0c0.4,0.2,0.7,0.6,0.7,1.4c0,0.8-0.3,1.3-0.6,1.6c-0.2,0.2-0.5,0.3-0.8,0.3c-0.2,0-0.8,0-1.1,0
				c0,0,0-0.3,0.1-0.4c0.1,0,0.1,0,0.2-0.1c0.1-0.1,0.1-0.1,0.1-0.5c0-0.3,0-1.3,0-2c0-1,0-1.7,0-2c0-0.3-0.1-0.3-0.1-0.4
				c-0.1,0-0.2-0.1-0.3-0.1C601.6,917.1,601.7,916.8,601.7,916.8L601.7,916.8z M599.2,921.9c0.1,0.2,0.3,0.2,0.5,0.2
				c0.2,0,0.5-0.1,0.7-0.5c0.2-0.4,0.4-1,0.4-2c0-0.9-0.2-1.7-0.6-2.1c-0.2-0.3-0.5-0.4-0.8-0.4c-0.1,0-0.2,0-0.2,0.1
				c0,0,0,0.1,0,0.1c0,0.2,0,1.4,0,2.2c0,0.8,0,1.8,0,1.9C599.1,921.6,599.2,921.8,599.2,921.9L599.2,921.9z M598.2,916.8
				c0.1,0,0.4,0,0.5,0c0.3,0,0.5,0,1,0c0.4,0,0.8,0.2,1,0.6c0.3,0.5,0.5,1.2,0.5,2.1c0,1.2-0.3,1.9-0.6,2.4
				c-0.3,0.4-0.7,0.7-1.2,0.7c-0.3,0-0.8,0-1.2,0h0c0-0.1,0-0.4,0.1-0.4c0.1,0,0.1,0,0.2-0.1c0.1-0.1,0.1-0.2,0.1-0.5
				c0-0.6,0-1.2,0-2c0-0.5,0-1.6,0-2c0-0.3-0.1-0.4-0.2-0.4c-0.1,0-0.2-0.1-0.3-0.1C598.1,917.1,598.2,916.8,598.2,916.8
				L598.2,916.8z"/>
			<path class="st54" d="M593.1,922.2c-0.1,0-0.2-0.1-0.3-0.1c0,0,0-0.1,0-0.1c0-0.3,0-1.1,0-1.7c0-0.4,0-0.8-0.1-1.1
				c-0.1-0.3-0.3-0.5-0.5-0.5c-0.2,0-0.4,0.2-0.7,0.6c0,0,0,0.1,0,0c0-0.1,0-0.3,0-0.4c0-0.1,0-0.2,0-0.2c-0.1,0.1-0.5,0.3-0.7,0.3
				c-0.1,0-0.1,0.2,0,0.3h0c0.1,0.1,0.2,0.1,0.3,0.2c0,0.1,0,0.2,0,0.2c0,0.6,0,1.6,0,2.1c0,0.2,0,0.3-0.1,0.3l0,0
				c-0.1,0-0.1,0-0.2,0.1c0,0,0,0.3,0,0.4c0,0,0.3,0,0.5,0c0.3,0,0.4,0,0.5,0c0-0.1,0-0.3,0-0.4c-0.1,0-0.1,0-0.2-0.1
				c-0.1,0-0.1-0.1-0.1-0.3c0-0.4,0-1.3,0-2c0-0.2,0-0.3,0.1-0.3c0.1-0.2,0.3-0.3,0.4-0.3c0.1,0,0.2,0.1,0.3,0.2
				c0.1,0.1,0.1,0.4,0.1,0.5c0,0.4,0,1,0,1.7c0,0.3,0,0.4-0.1,0.4c0,0-0.1,0.1-0.2,0.1c0,0.1,0,0.3,0,0.4c0.1,0,0.3,0,0.5,0
				c0.3,0,0.4,0,0.5,0C593.1,922.5,593.1,922.2,593.1,922.2L593.1,922.2z M594.2,919c-0.2,0-0.4,0.3-0.4,0.9c0,0.5,0.1,1.1,0.5,1.1
				c0.1,0,0.2,0,0.2-0.2c0.1-0.1,0.1-0.4,0.1-0.8C594.7,919.5,594.5,919,594.2,919L594.2,919z M594.2,922.7c-0.1,0-0.1,0-0.2,0.1
				c-0.2,0.2-0.3,0.4-0.3,0.7c0,0.2,0,0.4,0.2,0.6c0.1,0.2,0.3,0.3,0.5,0.3c0.4,0,0.6-0.4,0.6-0.9c0-0.3-0.1-0.5-0.2-0.6
				C594.7,922.7,594.5,922.7,594.2,922.7L594.2,922.7z M594.2,924.8c-0.3,0-0.5-0.1-0.6-0.3c-0.2-0.2-0.2-0.6-0.2-0.8
				c0-0.1,0-0.2,0.1-0.4c0-0.1,0.2-0.3,0.4-0.6c0,0,0,0,0,0c0,0,0,0,0,0c-0.2-0.1-0.3-0.4-0.3-0.5v0c0,0,0-0.1,0-0.1
				c0,0,0.1-0.1,0.1-0.1c0.1-0.1,0.2-0.2,0.2-0.2c0,0,0,0,0,0c0,0,0,0,0,0c-0.3-0.2-0.5-0.6-0.5-1.3c0-0.4,0.1-0.8,0.3-1
				c0.1-0.2,0.4-0.4,0.6-0.4h0c0.2,0,0.3,0.1,0.5,0.2c0.1,0.1,0.2,0.1,0.3,0.1c0.2,0,0.2-0.1,0.3-0.2c0,0,0,0.1,0,0.2
				c0,0.1,0,0.3-0.1,0.4c0,0.1-0.1,0.2-0.2,0.2h0c-0.1,0-0.1,0-0.1,0l0,0c0,0,0,0,0,0.1l0,0c0,0.1,0,0.3,0,0.4c0,0.7-0.1,1-0.3,1.2
				c-0.1,0.2-0.3,0.3-0.5,0.4c0,0,0,0-0.1,0c0,0-0.1,0-0.1,0h0c0,0-0.1,0.1-0.1,0.2c0,0.1,0,0.3,0.2,0.3c0,0,0.1,0,0.1,0
				c0.2,0,0.5,0.1,0.7,0.2c0.2,0.1,0.3,0.5,0.3,0.9c0,0.6-0.2,1.2-0.6,1.5C594.6,924.7,594.4,924.8,594.2,924.8L594.2,924.8z
				 M596.7,919.1c-0.1,0-0.2,0-0.2,0.1c-0.2,0.2-0.3,0.6-0.3,1.2c0,1.1,0.3,1.8,0.7,1.8c0.1,0,0.2-0.1,0.3-0.2
				c0.1-0.2,0.2-0.6,0.2-1.1C597.4,919.8,597.1,919.1,596.7,919.1L596.7,919.1z M596.8,922.6c-0.7,0-1-1-1-2c0-0.7,0.1-1.2,0.4-1.6
				c0.2-0.2,0.4-0.4,0.7-0.4c0.6,0,0.9,0.8,0.9,1.9c0,0.7-0.2,1.3-0.5,1.7C597.2,922.4,597,922.6,596.8,922.6L596.8,922.6
				L596.8,922.6z M589.1,919.1c-0.1,0-0.2,0-0.2,0.1c-0.2,0.2-0.3,0.6-0.3,1.2c0,1.1,0.3,1.8,0.7,1.8c0.1,0,0.2-0.1,0.3-0.2
				c0.1-0.2,0.2-0.6,0.2-1.1C589.8,919.8,589.5,919.1,589.1,919.1L589.1,919.1z M589.2,922.6c-0.7,0-1-1-1-2c0-0.7,0.1-1.2,0.4-1.6
				c0.2-0.2,0.4-0.4,0.7-0.4c0.6,0,0.9,0.8,0.9,1.9c0,0.7-0.2,1.3-0.5,1.7C589.6,922.4,589.4,922.6,589.2,922.6L589.2,922.6z
				 M584.3,922.5c0,0,0-0.1,0-0.2c0-0.1,0-0.1,0-0.1c0.1,0,0.1,0,0.2-0.1c0.1,0,0.1-0.1,0.1-0.3c0-0.5,0-1.4,0-2.1v0
				c0-0.1,0-0.2,0-0.2c-0.1-0.1-0.2-0.2-0.3-0.2c0,0-0.1-0.1-0.1-0.1c0,0,0-0.1,0.1-0.1c0.1,0,0.5-0.2,0.7-0.3c0,0,0,0.1,0,0.1
				l0,0.1c0,0.1,0,0.2,0,0.3c0,0,0,0.1,0,0.1c0,0,0,0,0,0c0.3-0.4,0.5-0.6,0.7-0.6c0.2,0,0.4,0.2,0.5,0.6c0,0,0,0,0,0c0,0,0,0,0,0
				c0.3-0.4,0.5-0.6,0.7-0.6c0.4,0,0.6,0.6,0.6,1.5c0,0.3,0,0.6,0,0.9c0,0.3,0,0.5,0,0.7c0,0,0,0.2,0.1,0.2c0.1,0.1,0.1,0.1,0.2,0.1
				h0c0,0.1,0,0.3,0,0.3c0,0-0.1,0-0.1,0c-0.1,0-0.2,0-0.3,0c-0.3,0-0.4,0-0.5,0c0-0.1,0-0.3,0-0.3c0.1,0,0.1,0,0.2-0.1
				c0.1,0,0.1-0.1,0.1-0.3c0-0.2,0-1.5,0-1.8c0-0.3-0.2-0.7-0.4-0.7c-0.1,0-0.3,0.1-0.4,0.3c0,0,0,0.1,0,0.1v0c0,0.2,0,0.4,0,0.7
				v0.5c0,0.4,0,0.7,0,1c0,0.2,0.1,0.2,0.1,0.3c0,0,0,0,0.1,0c0,0,0.1,0,0.1,0.1c0,0,0,0.1,0,0.2c0,0,0,0.1,0,0.1
				c-0.1,0-0.3,0-0.5,0c-0.1,0-0.2,0-0.3,0c-0.1,0-0.2,0-0.2,0c0,0,0-0.1,0-0.2c0-0.1,0-0.1,0-0.1c0,0,0,0,0.1,0c0.1,0,0.1,0,0.1,0
				c0.1,0,0.1-0.1,0.1-0.3c0-0.4,0-1.6,0-1.9c-0.1-0.5-0.2-0.7-0.4-0.7c-0.1,0-0.3,0.1-0.4,0.3c0,0,0,0.1,0,0.2v0.5
				c0,0.6,0,1.3,0,1.6c0,0.1,0,0.2,0.1,0.3c0,0,0.1,0,0.1,0l0.1,0c0,0,0,0.2,0,0.3c0,0-0.1,0-0.2,0c-0.1,0-0.2,0-0.3,0
				c-0.2,0-0.3,0-0.3,0C584.4,922.5,584.3,922.5,584.3,922.5L584.3,922.5z"/>
			<path class="st55" d="M582,924.5l-0.2-0.1c0,0,0-1.7-0.3-1.8c-0.2-0.5,0-20.1,0.8-0.1c0,0-0.3,0.3-0.3,0.7
				C582,923.6,582,924.5,582,924.5L582,924.5z"/>
			<path class="st56" d="M582,924.5l-0.2-0.1c0,0,0-1.7-0.3-1.8c-0.2-0.5,0-20.1,0.8-0.1c0,0-0.3,0.3-0.3,0.7
				C582,923.6,582,924.5,582,924.5L582,924.5z"/>
			<path class="st55" d="M582.1,922.8c0,0,1.5-1.9,1.2-5.9c-0.3-2.9-1.2-3.9-1.3-4.2c-0.1-0.3-0.2-0.7-0.2-0.7l0.1,8.1
				C581.9,920,581.8,922.5,582.1,922.8"/>
			<path class="st57" d="M582.1,922.8c0,0,1.5-1.9,1.2-5.9c-0.3-2.9-1.2-3.9-1.3-4.2c-0.1-0.3-0.2-0.7-0.2-0.7l0.1,8.1
				C581.9,920,581.8,922.5,582.1,922.8"/>
			<path class="st55" d="M581.8,922.9c0,0-1.4-1.9-1.4-5.2c0.1-3.3,1.1-4.9,1.3-5.2c0.1-0.3,0.1-0.4,0.1-0.6
				c0.1,0.4,0.1,5.5,0.1,6.1C582,920.3,581.9,922.5,581.8,922.9z"/>
			<path class="st58" d="M581.8,922.9c0,0-1.4-1.9-1.4-5.2c0.1-3.3,1.1-4.9,1.3-5.2c0.1-0.3,0.1-0.4,0.1-0.6
				c0.1,0.4,0.1,5.5,0.1,6.1C582,920.3,581.9,922.5,581.8,922.9z"/>
		</g>
		<g>
			<g>
				<polygon class="st59" points="490.7,961.8 482.9,973.4 481.6,972.8 489.4,961.2 				"/>
				<ellipse class="st59" cx="482.9" cy="964" rx="2.4" ry="2"/>
				<ellipse class="st59" cx="489" cy="969.6" rx="2.7" ry="2.3"/>
			</g>
		</g>
		<polygon class="st59" points="478.3,959.1 467,965.3 467,968 478.3,974.3 478.3,970.9 470.7,966.7 478.3,962.5 		"/>
		<g>
			<g>
				<g>
					<polygon class="st60" points="537.4,916.9 536.4,916.5 546.7,901.1 547.7,901.5 					"/>
				</g>
			</g>
			<g>
				<g>
					<rect x="536.2" y="915.2" class="st60" width="20.6" height="0.9"/>
				</g>
			</g>
			<g>
				<g>
					<polygon class="st60" points="546.9,920.9 536.6,915.8 537.2,915 547.5,920.1 					"/>
				</g>
			</g>
			<g>
				<g>
					<polygon class="st60" points="555.9,907.5 545.6,902.4 546.1,901.6 556.4,906.7 					"/>
				</g>
			</g>
			<g>
				<g>
					<polygon class="st60" points="537.2,907.5 536.6,906.7 546.9,901.6 547.5,902.4 					"/>
				</g>
			</g>
			<g>
				<g>
					<polygon class="st60" points="555.7,916.9 545.4,901.5 546.3,901.1 556.6,916.5 					"/>
				</g>
			</g>
			<g>
				<g>
					<rect x="537" y="906.1" class="st60" width="1.1" height="10.3"/>
				</g>
			</g>
			<g>
				<g>
					<rect x="555" y="906.1" class="st60" width="1.1" height="10.3"/>
				</g>
			</g>
			<g>
				<g>
					<polygon class="st60" points="546.8,920.5 546.3,919.8 555.3,915.3 555.7,916 					"/>
				</g>
			</g>
			<path class="st60" d="M557.5,916.7c-0.6,0.9-2,1.2-3.1,0.7c-1.1-0.5-1.4-1.7-0.8-2.7c0.6-0.9,2-1.2,3.1-0.7
				C557.7,914.6,558.1,915.7,557.5,916.7"/>
			<path class="st60" d="M539.5,907.7c-0.6,0.9-2,1.2-3.1,0.7c-1.1-0.5-1.4-1.7-0.8-2.7c0.6-0.9,2-1.2,3.1-0.7
				C539.8,905.6,540.1,906.8,539.5,907.7"/>
			<path class="st60" d="M535.6,916.7c-0.6-0.9-0.3-2.1,0.8-2.7c1.1-0.5,2.4-0.2,3.1,0.7c0.6,0.9,0.3,2.1-0.8,2.7
				C537.6,917.9,536.2,917.6,535.6,916.7"/>
			<path class="st60" d="M553.6,907.7c-0.6-0.9-0.3-2.1,0.8-2.7c1.1-0.5,2.4-0.2,3.1,0.7c0.6,0.9,0.3,2.1-0.8,2.7
				C555.6,909,554.2,908.7,553.6,907.7"/>
			<path class="st60" d="M546.5,922.1c-1.2,0-2.2-0.9-2.2-1.9s1-1.9,2.2-1.9s2.2,0.9,2.2,1.9C548.8,921.2,547.8,922.1,546.5,922.1"
				/>
			<path class="st60" d="M546.5,904.2c-1.2,0-2.2-0.9-2.2-1.9c0-1.1,1-1.9,2.2-1.9s2.2,0.9,2.2,1.9
				C548.8,903.4,547.8,904.2,546.5,904.2"/>
		</g>
		<g id="Page-1">
			<g id="_x30_02---API">
				<path id="Shape" class="st61" d="M584.3,947.6c-0.9,2.1-3,3.6-5.4,3.6c-2.4,0-4.5-1.4-5.4-3.6l-1.2-1.2l-1.7,1l-1.5,0.6
					c-0.2,0.1-0.3,0.3-0.2,0.4l1.1,2.5c0.1,0.2,0.3,0.3,0.5,0.2l1.8-0.7c0.5,0.7,1.2,1.4,2,1.9l-0.7,1.7c0,0.1,0,0.2,0,0.3
					c0,0.1,0.1,0.1,0.2,0.2l2.6,1c0.1,0,0.2,0,0.3,0c0.1,0,0.2-0.1,0.2-0.2l0.7-1.7c0.9,0.2,1.9,0.2,2.8,0l0.7,1.7
					c0,0.1,0.1,0.1,0.2,0.2c0.1,0,0.2,0,0.3,0l2.6-1c0.1,0,0.2-0.1,0.2-0.2c0-0.1,0-0.2,0-0.3l-0.7-1.7c0.8-0.5,1.4-1.2,2-1.9
					l1.8,0.7c0.1,0,0.2,0,0.3,0s0.2-0.1,0.2-0.2l1.1-2.5c0-0.1,0-0.2,0-0.3s-0.1-0.1-0.2-0.2l-1.1-0.4h0l-1.7-1.2L584.3,947.6z"/>
				<path id="Shape_1_" class="st62" d="M590.8,944.2c0,1.9-1.6,3.4-3.5,3.4h-15.5c-2.7,0-4.9-2.1-4.9-4.8s2.2-4.8,4.9-4.8
					c0.1,0,0.3,0,0.4,0c0.8-2.2,3-3.6,5.4-3.6c2.4,0,4.5,1.4,5.4,3.6c0.1,0,0.1,0,0.2,0c1.8,0,3.5,1.1,4.1,2.8h0
					C589.3,940.9,590.8,942.4,590.8,944.2L590.8,944.2z"/>
				<path id="Shape_2_" class="st63" d="M569.3,945.2c-0.1,0-0.2-0.1-0.3-0.1c-0.7-0.8-1-2-0.7-3s1-2,2-2.4c0.2-0.1,0.5,0,0.5,0.2
					s0,0.4-0.2,0.5c-1,0.5-1.7,1.4-1.7,2.5c0,0.6,0.2,1.2,0.6,1.7c0.1,0.1,0.1,0.3,0.1,0.4S569.5,945.2,569.3,945.2z"/>
				<g>
					<path id="Shape_3_" class="st64" d="M573.5,945.6c-0.1,0-0.3-0.1-0.3-0.2c-0.1-0.1-0.1-0.2-0.1-0.4l1.6-4.8
						c0.1-0.2,0.3-0.3,0.5-0.3c0.2,0.1,0.3,0.3,0.3,0.5l-1.6,4.8C573.9,945.5,573.7,945.6,573.5,945.6L573.5,945.6z"/>
					<path id="Shape_4_" class="st64" d="M576.8,945.6c-0.2,0-0.3-0.1-0.4-0.3l-1.6-4.8c-0.1-0.2,0-0.4,0.3-0.5s0.4,0,0.5,0.3
						l1.6,4.8c0,0.1,0,0.3-0.1,0.4C577.1,945.6,577,945.6,576.8,945.6L576.8,945.6z"/>
					<path id="Shape_5_" class="st64" d="M576.1,943.7h-1.9c-0.2,0-0.4-0.2-0.4-0.4s0.2-0.4,0.4-0.4h1.9c0.2,0,0.4,0.2,0.4,0.4
						S576.4,943.7,576.1,943.7z"/>
					<path id="Shape_6_" class="st64" d="M578.1,945.6c-0.2,0-0.4-0.2-0.4-0.4v-4.8c0-0.2,0.2-0.4,0.4-0.4s0.4,0.2,0.4,0.4v4.8
						C578.5,945.5,578.3,945.6,578.1,945.6z"/>
					<path id="Shape_7_" class="st64" d="M579.7,943.3h-1.6c-0.2,0-0.4-0.2-0.4-0.4v-2.4c0-0.2,0.2-0.4,0.4-0.4h1.6
						c0.9,0,1.6,0.7,1.6,1.6C581.4,942.5,580.6,943.3,579.7,943.3z M578.5,942.5h1.2c0.5,0,0.8-0.4,0.8-0.8c0-0.4-0.4-0.8-0.8-0.8
						h-1.2V942.5z"/>
					<path id="Shape_8_" class="st64" d="M583,945.6c-0.2,0-0.4-0.2-0.4-0.4v-4.8c0-0.2,0.2-0.4,0.4-0.4c0.2,0,0.4,0.2,0.4,0.4v4.8
						C583.4,945.5,583.2,945.6,583,945.6z"/>
					<path id="Shape_9_" class="st64" d="M584.3,940.9h-2.5c-0.2,0-0.4-0.2-0.4-0.4s0.2-0.4,0.4-0.4h2.5c0.2,0,0.4,0.2,0.4,0.4
						S584.5,940.9,584.3,940.9z"/>
					<path id="Shape_10_" class="st64" d="M584.3,945.6h-2.5c-0.2,0-0.4-0.2-0.4-0.4c0-0.2,0.2-0.4,0.4-0.4h2.5
						c0.2,0,0.4,0.2,0.4,0.4C584.7,945.5,584.5,945.6,584.3,945.6z"/>
				</g>
				<path id="Shape_11_" class="st63" d="M574.4,938.9c-0.1,0-0.3-0.1-0.3-0.2c-0.1-0.1-0.1-0.2-0.1-0.4c0.9-2.6,3.2-2.6,3.3-2.6
					c0.2,0,0.4,0.2,0.4,0.4c0,0.2-0.2,0.4-0.4,0.4c-0.1,0-1.8,0.1-2.5,2.1C574.7,938.8,574.5,938.9,574.4,938.9L574.4,938.9z"/>
			</g>
		</g>
	</g>
	<line class="st50" x1="533.1" y1="776.9" x2="532.6" y2="776.9"/>
</g>
</svg>
