<?xml version="1.0" encoding="utf-8"?>
<!-- Generator: Adobe Illustrator 24.1.1, SVG Export Plug-In . SVG Version: 6.00 Build 0)  -->
<svg version="1.1" id="Layer_1" xmlns="http://www.w3.org/2000/svg" xmlns:xlink="http://www.w3.org/1999/xlink" x="0px" y="0px"
	 viewBox="0 0 770 560" style="enable-background:new 0 0 770 560;" xml:space="preserve">
<style type="text/css">
	.st0{opacity:0.6;}
	.st1{fill:#393CB0;}
	.st2{opacity:0.5;}
	.st3{fill:none;stroke:#1B1464;stroke-width:1.0279;stroke-miterlimit:10;}
	.st4{fill:#1B1464;}
	.st5{fill:none;stroke:#1B1464;stroke-width:0.9729;stroke-miterlimit:10;}
</style>
<g class="st0">
	<path class="st1" d="M765.35,477.73v81.84H82.92V453.72c35.22-60.54,64.04-96.45,87.62-116.57c0.92-0.78,1.83-1.54,2.72-2.28
		c1.78-1.44,3.51-2.79,5.22-4.06c3.61-2.68,7.1-4.98,10.45-6.92c18.97-11.02,33.84-10.94,45.53-6.5
		c34.75,13.22,40.47,64.76,68.85,105.63c0.84,1.21,1.7,2.41,2.58,3.6c3.69,5,7.76,9.81,12.3,14.33c0.62,0.62,1.24,1.22,1.87,1.82
		c3.85,3.68,8.05,7.15,12.62,10.37c47.41,33.36,74.19-4.18,137.54-12.16c14.86,9.5,27.66,18.5,42.89,22.67
		c11.35,3.12,24.05,3.54,39.97-0.5c4.8-1.22,10.7-2,17.48-2.42c10.48,4.84,20.8,8.91,32.27,11.28
		c29.9,18.31,51.75,35.56,94.21,25.14c19.54-4.8,33.38-12.99,45.41-21.79C750.43,476.25,758.11,477.06,765.35,477.73z"/>
</g>
<g>
	<path class="st1" d="M770.16,477.73v81.84H0v-136.9c69.86-123.5,111.93-136.99,137.34-127.05c8.83,3.45,15.6,9.72,21.32,17.8
		c0.68,0.95,1.35,1.93,2,2.94c3.99,6.16,7.51,13.22,10.94,20.78c0.03,0.08,0.07,0.16,0.11,0.24c12.66,27.96,24.2,62.71,54.64,84.75
		c15.94,11.54,29.3,13.98,42.74,12.1c1.49-0.2,2.98-0.47,4.47-0.77c2.42-0.5,4.87-1.11,7.33-1.84c7.68-2.22,15.64-5.38,24.32-8.6
		c22.11-8.21,48.96-16.93,88.25-12.23c28.77,3.44,49.19,12.28,66.07,21.9c1.81,1.03,2.11,1.24,13.64,8.29
		c18.13,11.09,20.01,12.17,22.41,13.46c8.11,4.34,13.55,7.26,20.75,9.21c10.49,2.85,20.82,4.38,40.22-0.5
		c4.83-1.22,10.76-2,17.59-2.42c19.83-1.21,47.15,0.63,76.58,3.59c31.94,3.21,66.37,7.72,96.38,11.04
		C755.15,476.25,762.88,477.06,770.16,477.73z"/>
</g>
<g class="st2">
	<g>
		<path class="st3" d="M447.67,428.16c10.04-6.9,36.47-22.87,42.59-59.21c5.57-33.07,19.68-22,22.58-46.42
			c0.38-3.24,0.61-6.15,0.75-8.59"/>
		<g>
			<path class="st4" d="M517.41,314.32c0.1-2.13-1.54-3.94-3.67-4.05c-2.13-0.1-3.94,1.54-4.05,3.67c-0.1,2.13,1.54,3.94,3.67,4.05
				S517.31,316.45,517.41,314.32z"/>
		</g>
	</g>
</g>
<g class="st2">
	<g>
		<path class="st5" d="M475.68,444.68c22.2-21.13,53.47-45.12,93.57-60.07c11.99-4.47,23.43-7.63,34.13-9.84"/>
		<g>
			<path class="st4" d="M603.96,378.43c1.98-0.42,3.24-2.36,2.82-4.33c-0.42-1.98-2.36-3.24-4.33-2.82
				c-1.98,0.42-3.24,2.36-2.82,4.33C600.05,377.58,601.99,378.85,603.96,378.43z"/>
		</g>
	</g>
</g>
</svg>
