<?xml version="1.0" encoding="utf-8"?>
<!-- Generator: Adobe Illustrator 24.1.1, SVG Export Plug-In . SVG Version: 6.00 Build 0)  -->
<svg version="1.1" id="Layer_1" xmlns="http://www.w3.org/2000/svg" xmlns:xlink="http://www.w3.org/1999/xlink" x="0px" y="0px"
	 viewBox="0 0 1366 768" style="enable-background:new 0 0 1366 768;" xml:space="preserve">
<style type="text/css">
	.st0{opacity:0.6;}
	.st1{fill:#393CB0;}
	.st2{opacity:0.5;}
	.st3{fill:none;stroke:#1B1464;stroke-width:1.5847;stroke-miterlimit:10;}
	.st4{fill:#1B1464;}
	.st5{fill:none;stroke:#1B1464;stroke-width:1.5;stroke-miterlimit:10;}
</style>
<g class="st0">
	<path class="st1" d="M1366,659.01V768H148V627.04c62.86-80.63,114.3-128.44,156.38-155.24c1.64-1.04,3.26-2.05,4.86-3.03
		c3.17-1.92,6.26-3.72,9.32-5.41c6.45-3.57,12.68-6.63,18.66-9.22c33.85-14.68,60.4-14.57,81.26-8.65
		c62.02,17.61,72.23,86.24,122.88,140.67c1.5,1.61,3.03,3.21,4.6,4.79c6.59,6.66,13.85,13.06,21.96,19.09
		c1.1,0.82,2.21,1.63,3.33,2.42c6.88,4.9,14.36,9.52,22.52,13.81c84.61,44.43,132.41-5.57,245.49-16.19
		c26.52,12.65,49.36,24.64,76.55,30.19c20.25,4.15,42.93,4.71,71.34-0.67c8.57-1.62,19.09-2.66,31.19-3.22
		c18.71,6.44,37.13,11.87,57.59,15.02c53.37,24.38,92.37,47.35,168.14,33.48c34.88-6.39,59.57-17.3,81.04-29.02
		C1339.38,657.05,1353.09,658.12,1366,659.01z"/>
</g>
<g>
	<path class="st1" d="M1366,659.01V768H0V585.69c123.91-164.47,198.53-182.44,243.6-169.2c15.67,4.6,27.67,12.94,37.82,23.71
		c1.21,1.26,2.39,2.57,3.55,3.92c7.08,8.21,13.32,17.61,19.41,27.68c0.06,0.11,0.13,0.21,0.19,0.32
		c22.45,37.23,42.92,83.51,96.91,112.86c28.27,15.37,51.97,18.62,75.81,16.11c2.64-0.27,5.28-0.62,7.93-1.03
		c4.3-0.66,8.63-1.48,13-2.45c13.63-2.96,27.74-7.16,43.14-11.45c39.21-10.94,86.83-22.54,156.52-16.29
		c51.03,4.58,87.24,16.35,117.18,29.17c3.21,1.38,3.75,1.65,24.2,11.04c32.16,14.76,35.5,16.21,39.74,17.92
		c14.38,5.79,24.03,9.66,36.81,12.27c18.61,3.79,36.92,5.84,71.34-0.67c8.57-1.62,19.09-2.66,31.19-3.22
		c35.18-1.61,83.63,0.84,135.82,4.78c56.65,4.27,117.71,10.28,170.95,14.7C1339.38,657.05,1353.09,658.12,1366,659.01z"/>
</g>
<g class="st2">
	<g>
		<path class="st3" d="M799,593c17.92-9.19,65.08-30.46,76.01-78.86c9.95-44.05,35.13-29.3,40.3-61.82
			c0.63-3.98,1.03-7.59,1.28-10.67"/>
		<g>
			<path class="st4" d="M922.48,442.33c0.21-3.28-2.27-6.12-5.56-6.33s-6.12,2.27-6.33,5.56c-0.21,3.28,2.27,6.12,5.56,6.33
				S922.27,445.62,922.48,442.33z"/>
		</g>
	</g>
</g>
<g class="st2">
	<g>
		<path class="st5" d="M849,615c39.62-28.13,95.43-60.09,167-80c21.7-6.04,42.38-10.28,61.7-13.22"/>
		<g>
			<path class="st4" d="M1078.31,527.45c3.08-0.48,5.18-3.37,4.69-6.45s-3.37-5.18-6.45-4.69c-3.08,0.48-5.18,3.37-4.69,6.45
				C1072.34,525.83,1075.23,527.93,1078.31,527.45z"/>
		</g>
	</g>
</g>
</svg>
