<?xml version="1.0" encoding="utf-8"?>
<!-- Generator: Adobe Illustrator 24.1.1, SVG Export Plug-In . SVG Version: 6.00 Build 0)  -->
<svg version="1.1" id="Layer_1" xmlns="http://www.w3.org/2000/svg" xmlns:xlink="http://www.w3.org/1999/xlink" x="0px" y="0px"
	 viewBox="0 0 841.89 595.28" style="enable-background:new 0 0 841.89 595.28;" xml:space="preserve">
<style type="text/css">
	.st0{fill:#1491A8;}
	.st1{fill:#0D728B;}
	.st2{fill:#343434;}
</style>
<g>
	<g>
		<polygon class="st0" points="299.2,212.9 250.25,297.17 242.21,292.56 291.16,208.29 		"/>
		<ellipse class="st0" cx="250.18" cy="228.5" rx="14.95" ry="14.86"/>
		<ellipse class="st0" cx="288.84" cy="269.52" rx="16.69" ry="16.59"/>
	</g>
</g>
<g>
	<g>
		<polygon class="st1" points="580.46,214.58 533.01,296.25 525.22,291.78 572.67,210.11 		"/>
		<ellipse class="st1" cx="532.95" cy="229.7" rx="14.5" ry="14.41"/>
		<ellipse class="st1" cx="570.42" cy="269.46" rx="16.18" ry="16.08"/>
	</g>
</g>
<polygon class="st2" points="221.48,192.63 150.96,238.19 150.96,257.54 221.48,304.03 221.48,279.07 174.36,248.33 221.48,217.59 
	"/>
<polygon class="st2" points="593.12,192.63 663.64,238.19 663.64,257.54 593.12,304.03 593.12,279.07 640.24,248.33 593.12,217.59 
	"/>
<g>
	<polygon class="st0" points="418.13,268.62 418.13,304.03 398.62,304.03 366.79,209.72 365.99,209.72 365.99,304.03 327.78,304.03 
		327.78,179.47 390.26,179.47 	"/>
	<polygon class="st1" points="509.26,179.47 509.26,304.03 467.87,304.03 467.87,209.72 467.08,209.72 435.23,304.03 418.13,304.03 
		418.13,268.62 418.92,268.62 446.77,179.47 	"/>
</g>
</svg>
