<?xml version="1.0" encoding="utf-8"?>
<!-- Generator: Adobe Illustrator 24.1.1, SVG Export Plug-In . SVG Version: 6.00 Build 0)  -->
<svg version="1.1" id="Layer_2" xmlns="http://www.w3.org/2000/svg" xmlns:xlink="http://www.w3.org/1999/xlink" x="0px" y="0px"
	 viewBox="0 0 1920 1080" style="enable-background:new 0 0 1920 1080;" xml:space="preserve">
<style type="text/css">
	.st0{fill:#6B28D8;}
	.st1{fill:#8833FE;}
	.st2{fill:#4D19A2;}
	.st3{fill:#DBFF00;}
	.st4{fill:#FD5CA4;}
	.st5{fill:#01FEA1;}
	.st6{fill:#47EAFE;}
	.st7{fill:none;stroke:#47EAFE;stroke-width:17.8068;stroke-linecap:round;stroke-miterlimit:10;}
	.st8{fill:none;stroke:#FD5CA4;stroke-width:7;stroke-linecap:round;stroke-linejoin:round;stroke-miterlimit:10;}
	.st9{fill:none;stroke:#FFFF00;stroke-width:21.5662;stroke-miterlimit:10;}
	.st10{fill:none;stroke:#47EAFE;stroke-width:14.0717;stroke-linecap:round;stroke-miterlimit:10;}
	.st11{fill:#F1BE46;}
	.st12{fill:none;stroke:#FFD88C;stroke-width:5.0559;stroke-linecap:round;stroke-linejoin:round;}
	.st13{fill:#C38685;}
	.st14{fill:#DAA09D;}
	.st15{fill:#E1A839;}
	.st16{fill:#43549A;}
	.st17{fill:#35428B;}
	.st18{fill:#E9AF3D;}
	.st19{fill:#D5E4EC;}
	.st20{fill:#FDC6A2;}
	.st21{fill:#D98A77;}
	.st22{fill:#F8B894;}
	.st23{fill:#F1AE8B;}
	.st24{fill:#DAE5F2;}
	.st25{fill:#C4D7E9;}
	.st26{opacity:0.2;fill:#E89E85;enable-background:new    ;}
	.st27{fill:#FFFFFF;}
	.st28{fill:#E99F86;}
	
		.st29{opacity:0.77;fill:none;stroke:#FFFFFF;stroke-width:5.0559;stroke-linecap:round;stroke-linejoin:round;enable-background:new    ;}
	.st30{fill:#FFB29C;}
	.st31{opacity:0.45;fill:#E48C7C;enable-background:new    ;}
	.st32{fill:#D27E72;}
	.st33{fill:#E48C7C;}
	.st34{opacity:0.72;fill:#FFFFFF;enable-background:new    ;}
	.st35{opacity:0.42;fill:#FFFFFF;enable-background:new    ;}
	.st36{fill:none;stroke:#BE8116;stroke-width:5.0559;stroke-linecap:round;stroke-linejoin:round;}
	.st37{fill:#253246;}
	.st38{opacity:0.44;fill:#FFFFFF;enable-background:new    ;}
	.st39{opacity:0.67;fill:#FFFFFF;enable-background:new    ;}
	.st40{opacity:0.47;fill:#FFFFFF;enable-background:new    ;}
	.st41{fill:#F3CDC8;}
	.st42{fill:#E4B4B0;}
	.st43{fill:#CD9190;}
	.st44{opacity:0.4;fill:#FFFFFF;enable-background:new    ;}
	.st45{opacity:0.34;fill:#FFFFFF;enable-background:new    ;}
	.st46{opacity:0.2;fill:#FFF4F9;enable-background:new    ;}
	.st47{opacity:0.49;fill:#FFF4F9;enable-background:new    ;}
	.st48{fill:#FFD88C;}
	.st49{fill:none;stroke:#FF9FC7;stroke-width:5.0559;stroke-miterlimit:10;}
	.st50{fill:#61DAFB;}
	.st51{fill:#F2CCC7;enable-background:new    ;}
	.st52{fill:#ECC0BD;enable-background:new    ;}
	.st53{fill:#539E43;}
	.st54{fill:none;}
	.st55{fill:#5D87A1;}
	.st56{fill:#F8981D;}
	.st57{fill-rule:evenodd;clip-rule:evenodd;fill:#8E714E;}
	.st58{fill-rule:evenodd;clip-rule:evenodd;fill:#442D22;}
	.st59{fill-rule:evenodd;clip-rule:evenodd;fill:#FFFFFF;}
	.st60{fill-rule:evenodd;clip-rule:evenodd;fill:#A6A385;}
	.st61{fill-rule:evenodd;clip-rule:evenodd;fill:#499D4A;}
	.st62{fill-rule:evenodd;clip-rule:evenodd;fill:#58AA50;}
	.st63{fill:#343434;}
	.st64{fill:#E535AB;}
	.st65{fill:#3F5C6C;}
	.st66{fill:#B0D3F0;}
	.st67{fill:#ECF0F1;}
	.st68{fill:#3B97D3;}
</style>
<rect x="-554" y="540" class="st0" width="146" height="146"/>
<rect x="-554" y="686" class="st1" width="146" height="146"/>
<rect x="-554" y="832" class="st2" width="146" height="146"/>
<rect x="-257" y="580" class="st3" width="82" height="82"/>
<rect x="-257" y="662" class="st4" width="82" height="82"/>
<rect x="-257" y="744" class="st5" width="82" height="82"/>
<rect x="-257" y="832" class="st6" width="82" height="82"/>
<g>
	<rect class="st0" width="1378" height="1080"/>
	<path class="st2" d="M1919.5,0.5L748,1080h1171.5C1919.5,1080,1919.5,1,1919.5,0.5z"/>
	<polygon class="st1" points="972,0.5 1367.1,511 1920,1 	"/>
</g>
<rect x="273.1" y="936.4" transform="matrix(0.9363 0.3511 -0.3511 0.9363 361.6977 -45.5244)" class="st7" width="66.5" height="76.3"/>
<path class="st8" d="M69.4,470.1c1.1-6.4,6-11.9,12.1-14.3s13-2.1,19.1,0.3c6.1,2.4,11.3,6.7,15.5,11.7c0.3-7.7,0.6-15.6,3-22.9
	c2.5-7.3,7.4-14.2,14.6-17.1c8.2-3.3,18.4-0.4,23.6,6.6"/>
<polyline class="st9" points="716.1,3.4 687.5,84.5 821,0 "/>
<circle class="st10" cx="1699" cy="519" r="81"/>
<g>
	<g id="Layer_1-2">
		<path class="st11" d="M979.9,1019.5c0,8.6-0.8,17.7-6,24.3c-6.8,8.8-18.8,9.8-29.4,10.4l-93.6,3.7c-16.7,1.3-33.5,0.6-50.1-2
			c-16.7-2.7-32.1-11.3-43.6-24.4c-7-9.1-12.1-19.8-14.7-31.3c-3.9-14.7-4.6-30.1-2.3-45.1c8.4-51,58-87.5,105.8-75.1
			c20.6,5.2,37.9,18.5,56.6,28.4c20.1,10.4,41,3.4,59.9,12.8l9,4.4C977.7,956.4,980.6,988,979.9,1019.5z"/>
		<path class="st12" d="M746.5,939c15.8-41,58.8-67.8,100.8-56.7"/>
		<path class="st13" d="M1821.3,817h-16.2l0.4-30.7c0.1-9,7-16.3,15.5-16.3l0,0L1821.3,817z"/>
		<path class="st14" d="M1701.7,791.1h124.2c4.1,0,7.3,3.5,7.3,7.8v17.2l0,0h-138.9l0,0v-17.2
			C1694.4,794.6,1697.7,791.1,1701.7,791.1z"/>
		<path class="st11" d="M995.5,860.7c-2.7-2-49.7-32.4-93.1-30.4c0,0,27.6,59.8,23.9,102.3"/>
		<path class="st15" d="M969,887.8l-9.1,9.5l-33.6,35.1c2.5-29.6-10-67.8-17.9-87.9c-3-7.9-5.4-13.2-5.9-14.2
			C918.4,832.7,952,843.1,969,887.8z"/>
		<path class="st16" d="M1576.4,775.8L1576.4,775.8c-1.6,0.8-3.2,1.4-4.9,1.8l-0.9,0.3c-33.1,8.6-171.7,16.8-198.1,16.9h-0.8
			c-20.8,0-111.8-5.2-165.4-11.6l-5.4-0.4c-7.3-0.9-13.8-1.9-19.1-2.9c-3-0.5-5.6-1.1-7.8-1.6l-1.4-0.4l0,0
			c-4.9-1.4-7.2-2.8-5.6-4.2l0,0c0.4-0.3,0.9-0.6,1.4-0.8c3.6-1.6,7-3.6,10.1-6.1l0,0c2.2-1.7,4.3-3.7,6.2-5.8
			c0.2-0.1,0.3-0.3,0.4-0.5c1.4-1.6,2.7-3.2,3.9-5c0.2-0.2,0.3-0.4,0.4-0.7l0,0c7.1-11.3,12.1-24.1,14.7-37.4
			c2.8-11.5,4.9-23.4,8.9-34.5c2.5-7.9,6-15.3,10.5-22.1c1.4-2,2.9-3.9,4.5-5.7c0.9-1,1.8-2,2.8-3c6.8-6.7,14.4-12.4,22.6-16.9
			c3-1.7,6-3.2,9.1-4.6c15.9-7.1,32.6-11.9,49.7-14.4c4.9-0.7,9.4-1.4,14.1-2c14.7-1.9,30-3,45.3-3.3h0.8
			c19.9,0.4,39.7,2.1,59.3,5.2c20.5,2.9,40.3,9.3,58.8,19.2l0,0c2,1.1,4,2.3,5.9,3.6c2.9,1.8,5.8,3.8,8.5,6.1
			c2.8,2.2,5.6,4.6,8.1,7.1c9,9.4,15.5,21.1,18.9,34c2.8,9.2,4.9,18.8,7.1,28.3c2.6,14.3,7.7,28,15.2,40.2c1.3,2,2.8,3.8,4.4,5.6
			c2.1,2.4,4.3,4.5,6.8,6.4c1.6,1.2,3.2,2.3,4.9,3.3c1.7,1,3.4,1.9,5.1,2.7l0.9,0.4C1578,774,1578,774.9,1576.4,775.8z"/>
		<path class="st17" d="M1571.2,777.6c-21.6,4.4-43.3,7.4-65.2,8.8c11.4-62.6-3.3-118.8-15.3-151.3c8.1,4.5,15.6,10.1,22.3,16.7
			c31.4,31.3,18.3,87.4,52.4,114.5c3.1,2.5,6.5,4.5,10.1,6.1C1579.2,774.3,1577.3,776,1571.2,777.6z"/>
		<path class="st17" d="M1173.1,777.1c21.6,4.4,43.4,7.4,65.3,8.8c-11.4-62.6,3.3-118.8,15.3-151.3c-8.1,4.5-15.6,10.1-22.3,16.7
			c-31.4,31.3-18.3,87.4-52.4,114.5c-3.1,2.7-6.5,4.9-10.2,6.6C1164.9,773.8,1167,775.4,1173.1,777.1z"/>
		<ellipse class="st17" cx="1248.1" cy="729.1" rx="6.9" ry="7.4"/>
		<ellipse class="st17" cx="1251.4" cy="715.1" rx="3.1" ry="3.3"/>
		<ellipse class="st17" cx="1261.4" cy="727.9" rx="2.7" ry="2.9"/>
		<ellipse class="st17" cx="1264.5" cy="714.8" rx="4.9" ry="5.3"/>
		<ellipse class="st17" cx="1259.5" cy="742.6" rx="4.8" ry="5.2"/>
		<path class="st11" d="M1095.7,925.3l-69.8-53.8c6.3-10.3,14.2-19.4,23.4-26.9c11.5-9.7,24.5-17.3,38.4-22.5
			c7.4-2.8,15.1-4.9,22.8-6.4C1110.4,815.7,1092,895.9,1095.7,925.3z"/>
		<path class="st15" d="M1110.4,815.6c0,0-39.2,26.1-41.1,57.4l21.4,50.7l3.4-1.5C1094,922.2,1107.6,824.5,1110.4,815.6z"/>
		<path class="st18" d="M860.3,1049.7c0-24.3,17.9-44.4,40.7-45.6l151.3-8.2c27.9,0,50.5,24.1,50.5,53.9l0,0L860.3,1049.7
			L860.3,1049.7z"/>
		<path class="st19" d="M1166.8,773.2c4.5-1.9,8.7-4.6,12.4-8c-1.9,4.7-4.3,9.2-7.1,13.3C1165.3,776.8,1162.8,775,1166.8,773.2z"/>
		<path class="st19" d="M1570.7,778.3c-2.3-3.5-4.2-7.2-5.9-11.1c3.1,2.5,6.5,4.5,10.1,6.1C1578.6,774.9,1576.7,776.6,1570.7,778.3z
			"/>
		<path d="M1274,345.5c-59.3-64.7-41.4-158.7-41.4-158.7l35.9,19.8c0,0-27.6-76.1,26.9-122.7c0,0-11,34.5,13.8,52.9
			c0,0,9.8-65.4,64.8-74.2c0,0-6.9,41.1,9,55.1c0,0,71.7-72,209.6-21.3c0,0-23.5,32.3-44.8,47.8c25.4-0.5,50.7,3.1,75.1,10.4
			c-56.2,12.9-115.4,44.2-142.5,100.3c-9.2,17.7-15.3,36.9-18.1,56.9"/>
		<path class="st20" d="M1403.3,609.1c0.9,3.7,0.1,7.6-2.3,10.4c-7,8.7-17,14.1-27.7,15h-0.3c-10.7-0.8-20.7-6.2-27.7-15
			c-2.4-2.9-3.2-6.8-2.3-10.4c6.6-27.8,4.1-85.7,4.1-85.7l25.9-9.3h0.3l25.9,9.3C1399.2,523.4,1396.7,581.3,1403.3,609.1z"/>
		<path d="M1502.9,186c0,8.2,18.6,97-33.8,139.6V186C1469.1,186,1502.9,185.3,1502.9,186z"/>
		<ellipse class="st20" cx="1272.7" cy="357.9" rx="36.9" ry="39.3"/>
		<ellipse class="st20" cx="1469.6" cy="356.8" rx="36.9" ry="39.3"/>
		<ellipse class="st21" cx="1271.1" cy="359.7" rx="17" ry="18.2"/>
		<ellipse class="st21" cx="1475.7" cy="356.6" rx="17.4" ry="18.6"/>
		<path class="st20" d="M1477.7,497.5c-24.1,26.5-72.4,80.8-105.5,80.8c0,0,0-0.7-0.2-1.9v1.9c-33.1,0-81.4-54.4-105.5-80.8
			c-18.4-20.1-9.5-46-3.2-69.4c4.6-16.4,7.5-33.3,8.5-50.4c1.7-32.5-1.5-64.3,2.3-97c7.7-66.9,86.9-64.5,98-63.8
			c11.1-0.7,90.3-3.1,98,63.8c5.9,51-3.6,102.7,11.9,152.3C1488.7,454.9,1494.9,478.7,1477.7,497.5z"/>
		<path class="st22" d="M1468,269.8c-25.2-37.5-86-35.7-96-35.1c-9.8-0.6-70.7-2.3-96,35c14.7-55.5,85.5-53.3,96-52.7
			C1382.6,216.4,1453.4,213.9,1468,269.8z"/>
		<path d="M1472.4,302v5.2c0-8.9-0.7-17.8-2.2-26.5c-7.7-66.9-86.9-64.5-98-63.8c-11.2-0.7-90.4-3.1-98,63.8
			c-1.3,10.7-2,21.5-2.1,32.4c-0.5-18,0.1-36,1.8-54c2.9-25.4,17.8-42.6,37.5-52.6c7.2-13.6,17.3-25.3,29.4-34
			c-4.5,7.5-6.8,16.3-6.5,25.2c6-12.4,15.4-22.5,26.9-29l-3.2,11.1c-1.6,5.1-2.8,10.3-3.4,15.7c12.1-0.9,24.3-0.8,36.4,0.3
			c13.1,0.9,26,4.1,38.3,9.3c21.9,8.7,37.5,29.6,40.5,54.4C1471.9,273.4,1472.8,287.7,1472.4,302z"/>
		<path class="st23" d="M1400,583.5c-25.5,2.6-42.7-3.2-53.4-9.3c0-1.2,0-2.4,0-3.7c7.6,4.6,16.2,7.2,24.9,7.7v-1.9
			c0,1.3,0.2,1.9,0.2,1.9c7.3-0.3,14.5-2.3,21.1-5.7c2-1,4-2,6-3.2c0,1.4,0,2.8,0,4.2C1399.7,577,1400,580.3,1400,583.5z"/>
		<path class="st24" d="M1584.6,790v252.7h-426.4V790c0-13.6,7.3-26.1,18.9-32c4-2.1,8.3-3.3,12.7-3.5l0,0c0.6-0.1,1.2-0.1,1.8,0
			h359.5c1-0.1,2-0.1,3,0l0,0c4.2,0.4,8.3,1.6,12,3.7C1577.4,764.2,1584.6,776.5,1584.6,790z"/>
		<path class="st25" d="M1584.6,938.5v118h-426.5v-96.9C1247.7,987.4,1413.8,1017.6,1584.6,938.5z"/>
		<ellipse cx="1402" cy="179.6" rx="7.1" ry="7.5"/>
		<ellipse cx="1420.6" cy="172.5" rx="3.8" ry="4"/>
		<ellipse cx="1409" cy="166.7" rx="3.8" ry="4"/>
		<ellipse cx="1507.1" cy="86.8" rx="6.4" ry="6.8"/>
		<path class="st26" d="M1488.8,472.1c-0.7,9.6-4.6,18.7-11,25.6c-24.1,26.5-72.4,80.8-105.5,80.8c0,0,0-0.7-0.2-1.9v1.9
			c-33.1,0-81.4-54.4-105.5-80.8c-6.4-6.8-10.3-15.9-10.8-25.6C1320.4,539.6,1424,539.6,1488.8,472.1L1488.8,472.1z"/>
		<path class="st27" d="M1418.8,445.3c5.8,0,10.5,5,10.5,11.2c0,0.9-0.1,1.8-0.3,2.7c-6.6,30.9-35.5,50.3-64.5,43.2
			c-20.2-4.9-36-21.7-40.6-43.2c-1.4-6,2-12,7.6-13.5c0.8-0.2,1.7-0.3,2.5-0.3H1418.8z"/>
		<ellipse class="st27" cx="1280.9" cy="300.8" rx="2.7" ry="2.9"/>
		<ellipse class="st27" cx="1291.9" cy="296.4" rx="2.4" ry="2.6"/>
		<path d="M1353.8,317.2c-1.2,3.7-4.9,5.7-8.4,4.5c0,0-0.1,0-0.1,0h-0.6c-24.5-10.4-38.2,2.4-38.7,3c-1.2,1.2-2.9,1.9-4.6,1.9h-0.3
			c-3.7-0.2-6.6-3.6-6.4-7.5c0,0,0,0,0,0c0.1-1.8,0.8-3.5,2.1-4.8c0.8-0.8,20.3-19.8,53-5.8C1353,309.7,1354.8,313.6,1353.8,317.2z"
			/>
		<path d="M1393.3,317.2c1.2,3.7,4.9,5.7,8.4,4.5c0,0,0.1,0,0.1,0h0.6c24.5-10.4,38.2,2.4,38.7,3c1.2,1.2,2.9,1.9,4.6,1.9h0.3
			c3.7-0.2,6.6-3.6,6.4-7.5c0,0,0,0,0,0c-0.1-1.8-0.8-3.6-2.1-4.8c-0.8-0.8-20.3-19.8-52.9-5.8
			C1394.1,309.7,1392.3,313.6,1393.3,317.2z"/>
		<path class="st28" d="M1373.5,371.2L1373.5,371.2c5.5,0,9.9,4.7,9.9,10.6v40.9c0,5.9-4.5,10.6-9.9,10.6l0,0
			c-5.5,0-9.9-4.7-9.9-10.6v-40.9C1363.6,375.9,1368,371.2,1373.5,371.2z"/>
		<ellipse cx="1327.4" cy="351.1" rx="13.3" ry="17.8"/>
		<ellipse cx="1416.5" cy="351.1" rx="13.3" ry="17.8"/>
		<path class="st29" d="M1274.2,320.8c1,23.9,0.7,47.9-1,71.8"/>
		<path class="st30" d="M755.2,1043.5H1861c8.3,0,15,8.2,15,18.2v0c0,10.1-6.7,18.2-15,18.2H755.2c-8.3,0-15-8.2-15-18.2v0
			C740.2,1051.7,746.9,1043.5,755.2,1043.5z"/>
		<path class="st31" d="M1861,1061.8c0,10.1-6.6,18.2-14.8,18.2H755c-8.1,0-14.7-8.2-14.7-18.2l0,0c0-3.5,0.8-6.9,2.3-9.8
			c2.7,5.2,7.4,8.4,12.4,8.4h1091.3c3.9,0,7.7-1.8,10.4-5.2c0.8-0.9,1.4-2,2-3.1C1860.2,1055,1861,1058.4,1861,1061.8z"/>
		<path class="st32" d="M1415,1067.8h147.2c2.8,0,5,2.4,5,5.4l0,0c0,3-2.3,5.4-5,5.4H1415c-2.8,0-5-2.4-5-5.4l0,0
			C1410,1070.2,1412.3,1067.8,1415,1067.8z"/>
		<path class="st32" d="M1586,1067.8h19.9c2.8,0,5,2.4,5,5.4l0,0c0,3-2.3,5.4-5,5.4H1586c-2.8,0-5-2.4-5-5.4l0,0
			C1581,1070.2,1583.2,1067.8,1586,1067.8z"/>
		<path class="st27" d="M800.1,1043.4h147.2c2.8,0,5,2.4,5,5.4l0,0c0,3-2.3,5.4-5,5.4H800.1c-2.8,0-5-2.4-5-5.4l0,0
			C795.1,1045.8,797.3,1043.4,800.1,1043.4z"/>
		<path class="st27" d="M971.1,1043.4H991c2.8,0,5,2.4,5,5.4l0,0c0,3-2.3,5.4-5,5.4h-19.9c-2.8,0-5-2.4-5-5.4l0,0
			C966.1,1045.8,968.3,1043.4,971.1,1043.4z"/>
		<path class="st32" d="M1823.6,1067.8h17.1c2.4,0,4.4,2.4,4.4,5.4l0,0c0,3-1.9,5.4-4.4,5.4h-17.1c-2.4,0-4.4-2.4-4.4-5.4l0,0
			C1819.3,1070.2,1821.2,1067.8,1823.6,1067.8z"/>
		<ellipse class="st25" cx="1496.7" cy="956.4" rx="7.6" ry="8.1"/>
		<ellipse class="st25" cx="1295.7" cy="819" rx="28.2" ry="30"/>
		<ellipse class="st25" cx="1483.9" cy="936.3" rx="3.9" ry="4.2"/>
		<ellipse class="st25" cx="1483.2" cy="974.7" rx="9.4" ry="10"/>
		<ellipse class="st25" cx="1514.4" cy="949.8" rx="4.6" ry="4.9"/>
		<ellipse class="st25" cx="1521.1" cy="924.5" rx="10.8" ry="11.5"/>
		<path class="st27" d="M1282.5,764.8H1196v-10.4h96.2C1292.3,760.2,1287.9,764.8,1282.5,764.8z"/>
		<path class="st27" d="M1321.1,764.8h-7.8c-5.4,0-9.8-4.7-9.8-10.4h27.4C1330.9,760.2,1326.5,764.8,1321.1,764.8z"/>
		<ellipse class="st33" cx="1147.1" cy="1061.6" rx="7.2" ry="7.7"/>
		<ellipse class="st33" cx="1168" cy="1052.5" rx="2.6" ry="2.8"/>
		<ellipse class="st33" cx="1115.6" cy="1060.6" rx="7.1" ry="7.5"/>
		<ellipse class="st33" cx="1128.8" cy="1052.4" rx="2.1" ry="2.2"/>
		<ellipse class="st33" cx="1133.7" cy="1064.1" rx="3.1" ry="3.3"/>
		<ellipse class="st33" cx="1165.4" cy="1068.2" rx="3.8" ry="4"/>
		<ellipse class="st33" cx="1156.6" cy="1051.5" rx="2.3" ry="2.4"/>
		<ellipse class="st11" cx="1011.5" cy="936.4" rx="85" ry="86.6"/>
		<path class="st15" d="M1096.6,937.4c0,47.8-38.1,86.6-85.1,86.6s-85-38.8-85-86.6c0-2,0-3.9,0-5.8c3.3,45,40,80.8,85,80.8
			c45,0,81.9-35.8,84.8-80.8C1096.4,933.5,1096.6,935.4,1096.6,937.4z"/>
		<ellipse class="st27" cx="1196.1" cy="766.6" rx="11.6" ry="12.3"/>
		<ellipse class="st34" cx="1203.3" cy="785.3" rx="3.5" ry="3.8"/>
		<ellipse class="st35" cx="1196.8" cy="799.8" rx="5.7" ry="6.1"/>
		<ellipse class="st27" cx="1178.2" cy="778" rx="4.1" ry="4.3"/>
		<ellipse class="st27" cx="1189.9" cy="785.7" rx="1.9" ry="2"/>
		<line class="st36" x1="956.8" y1="946.3" x2="897.9" y2="931.6"/>
		<line class="st36" x1="956.8" y1="967.9" x2="893" y2="987.8"/>
		<line class="st36" x1="956.8" y1="957.2" x2="916.9" y2="957.2"/>
		<line class="st36" x1="1060.6" y1="946.3" x2="1119.5" y2="931.6"/>
		<line class="st36" x1="1060.6" y1="967.9" x2="1124.4" y2="987.8"/>
		<line class="st36" x1="1060.6" y1="957.2" x2="1100.5" y2="957.2"/>
		<path class="st27" d="M983,884.1L983,884.1c12.9,0,23.4,11.1,23.4,24.8v10.9c0,13.7-10.4,24.8-23.3,24.8h0
			c-12.9,0-23.3-11.1-23.3-24.8V909C959.7,895.3,970.1,884.1,983,884.1z"/>
		<ellipse class="st37" cx="983.1" cy="915.6" rx="8.5" ry="9"/>
		<path class="st27" d="M1040.9,884.9L1040.9,884.9c13.1,0,23.7,11.3,23.7,25.2v11c0,13.9-10.6,25.2-23.7,25.2h0
			c-13.1,0-23.7-11.3-23.7-25.2v-11C1017.3,896.2,1027.8,884.9,1040.9,884.9z"/>
		<path class="st37" d="M1008.9,944.6c-1.8,0-3.3,1.6-3.3,3.5c0,0.9,0.3,1.7,0.8,2.3c1.8,3.6,6,4.9,9.4,3c1.2-0.7,2.1-1.7,2.8-3
			c1.2-1.5,1-3.7-0.3-5c-0.6-0.5-1.3-0.8-2.1-0.9H1008.9z"/>
		<path class="st38" d="M1006.2,849.7c-39.2,1-63.7,35.8-64.9,37.3l-1.5,2.1l3.9,3.1l1.5-2.1c0-0.3,24.5-34.2,61.1-35.2
			C1006.3,854.9,1006,849.7,1006.2,849.7z"/>
		<ellipse class="st27" cx="998.3" cy="858.8" rx="4.7" ry="5"/>
		<ellipse class="st39" cx="996.6" cy="867.2" rx="1.6" ry="1.7"/>
		<ellipse class="st40" cx="998.3" cy="874.2" rx="2.4" ry="2.6"/>
		<ellipse class="st39" cx="1007.2" cy="865.3" rx="2.3" ry="2.5"/>
		<ellipse class="st27" cx="1007.8" cy="855" rx="2.5" ry="2.7"/>
		<path class="st41" d="M1837.6,817.7l-1.4,9.1h-144.7l-1.4-9.1c-0.4-2.6,1.2-5,3.7-5.5c0.2,0,0.5-0.1,0.7-0.1h138.9
			c2.4,0,4.4,2.1,4.4,4.7C1837.7,817.1,1837.7,817.4,1837.6,817.7z"/>
		<rect x="1680.4" y="801.9" class="st42" width="166.9" height="24.9"/>
		<rect x="1694.3" y="799.2" class="st43" width="138.9" height="2.7"/>
		<ellipse class="st43" cx="1707.8" cy="798.7" rx="2.5" ry="2.7"/>
		<ellipse class="st43" cx="1716.7" cy="795.5" rx="1.9" ry="2"/>
		<ellipse class="st43" cx="1711" cy="794.5" rx="1.4" ry="1.5"/>
		<path class="st42" d="M1702.9,793.5"/>
		<rect x="1691.5" y="801.8" class="st44" width="53.4" height="4.6"/>
		<ellipse class="st37" cx="1041.6" cy="915.6" rx="8.5" ry="9"/>
		<path class="st45" d="M1067.2,835.6c7.5-4.7,15.4-8.5,23.6-11.5l-3.2-2.1c-13.9,5.2-26.9,12.8-38.4,22.5l2.9,3
			c0,0,0.7-0.8,2.3-2.3c-0.2,0.6-0.3,1.3-0.3,1.9c-0.1,2.9,1.9,5.3,4.6,5.5c2.7,0.1,5-2.1,5.1-5s-1.9-5.3-4.6-5.5
			c-0.1,0-0.2,0-0.2,0c-0.3-0.1-0.6-0.1-0.9,0c1.8-1.5,4-3.1,6.7-5c0.1,0.8,0.8,1.4,1.6,1.4c0.9,0,1.7-0.7,1.7-1.7c0,0,0-0.1,0-0.1
			C1067.9,836.3,1067.6,835.9,1067.2,835.6z"/>
		<ellipse class="st27" cx="1067.5" cy="844.3" rx="1.6" ry="1.7"/>
		<path class="st46" d="M1324.6,623.9h-0.6c0.7,1,1.1,2.2,1.1,3.5c0.2,3.7-2.5,6.9-6,7.1s-6.5-2.6-6.7-6.3c0-0.9,0.1-1.7,0.3-2.5
			c-15.2,2.8-30.1,7.1-44.5,12.9c-0.5,0.2-1.1,0.3-1.7,0.3c-2.7,0-4.9-2.3-4.9-5.2c0-1.1,0.4-2.3,1-3.2
			c15.9-7.1,32.6-11.9,49.7-14.4c4.9-0.7,9.4-1.4,14.1-2c1.4,0.8,2.3,2.3,2.5,4c0.4,2.9-1.5,5.5-4.2,5.9
			C1324.7,623.9,1324.6,623.9,1324.6,623.9z"/>
		<ellipse class="st47" cx="1303" cy="649.9" rx="3.2" ry="3.4"/>
		<ellipse class="st47" cx="1319.1" cy="659" rx="2.7" ry="2.9"/>
		<ellipse class="st47" cx="1326.9" cy="648.1" rx="5.3" ry="5.6"/>
		<ellipse class="st47" cx="1314" cy="643.8" rx="3.2" ry="3.4"/>
		<ellipse class="st47" cx="1338.2" cy="635.5" rx="4.3" ry="4.5"/>
		<ellipse class="st48" cx="784.6" cy="907.2" rx="11.1" ry="11.8"/>
		<ellipse class="st48" cx="802.5" cy="891.1" rx="4.8" ry="5.1"/>
		<ellipse class="st48" cx="803.3" cy="912.6" rx="4" ry="4.2"/>
		<ellipse class="st48" cx="825.4" cy="884.5" rx="3.6" ry="3.8"/>
		<ellipse class="st48" cx="816.3" cy="896.9" rx="4.3" ry="4.6"/>
		<ellipse class="st48" cx="829.9" cy="895.6" rx="5.1" ry="5.5"/>
		<ellipse class="st27" cx="1369.4" cy="906" rx="53.4" ry="56.9"/>
		<ellipse class="st25" cx="1219" cy="873.9" rx="28.2" ry="30"/>
		<ellipse class="st25" cx="1484.4" cy="821.7" rx="28.2" ry="30"/>
		<ellipse class="st25" cx="1386.4" cy="799.7" rx="28.2" ry="30"/>
		<ellipse class="st25" cx="1267.4" cy="940.7" rx="28.2" ry="30"/>
		<ellipse class="st25" cx="1456.4" cy="886.7" rx="28.2" ry="30"/>
	</g>
	<path class="st49" d="M1708.8,776.5c7.4,2.1,15-4.3,17.4-11.9c2.5-7.7,1-16.1-0.9-23.9c-1.9-7.8-4.4-15.7-3.9-23.8
		s4.8-16.6,12.1-18.8"/>
	<path class="st49" d="M1748.7,777.6c7.7-2.3,15.6-4.6,22.1-9.7c6.4-5.1,11.2-13.5,9.9-21.9c-1.1-6.9-5.8-12.4-10.6-17.2
		c-4.8-4.8-10.1-9.5-12.6-15.9c-2.6-6.4-1.3-15.3,4.6-18.4"/>
	<path class="st49" d="M1788.6,773.1c9.5-4.3,15.9-15.6,14.9-26.6c-0.8-9.4-6.2-17.5-8.8-26.5c-2.5-9-0.6-21.1,7.8-24"/>
	<g>
		<path class="st50" d="M1415.7,909.8c0-6.5-7.7-12.7-19.4-16.6c2.7-12.8,1.5-23-3.8-26.2c-1.2-0.8-2.7-1.1-4.2-1.1v4.5
			c0.9,0,1.6,0.2,2.2,0.5c2.6,1.6,3.7,7.5,2.8,15.2c-0.2,1.9-0.5,3.9-1,5.9c-3.7-1-7.7-1.7-12-2.2c-2.5-3.7-5.2-7.1-7.8-10
			c6.1-6.1,11.9-9.4,15.8-9.4v-4.5l0,0c-5.2,0-12,3.9-18.8,10.8c-6.9-6.8-13.7-10.7-18.8-10.7v4.5c3.9,0,9.7,3.3,15.8,9.4
			c-2.6,3-5.3,6.3-7.8,10c-4.3,0.5-8.3,1.2-12,2.2c-0.4-2-0.8-4-1-5.8c-0.9-7.7,0.2-13.6,2.8-15.2c0.6-0.4,1.3-0.5,2.2-0.5v-4.5l0,0
			c-1.6,0-3,0.4-4.3,1.1c-5.3,3.3-6.5,13.4-3.8,26.1c-11.7,3.9-19.4,10-19.4,16.5c0,6.5,7.7,12.7,19.4,16.6
			c-2.7,12.8-1.5,23,3.8,26.2c1.2,0.8,2.7,1.1,4.2,1.1c5.2,0,12-3.9,18.8-10.8c6.9,6.8,13.7,10.7,18.8,10.7c1.6,0,3-0.4,4.3-1.1
			c5.3-3.3,6.5-13.4,3.8-26.1C1408,922.5,1415.7,916.3,1415.7,909.8z M1391.1,896.3c-0.7,2.6-1.6,5.3-2.5,7.9
			c-0.8-1.6-1.6-3.2-2.5-4.8c-0.9-1.6-1.8-3.2-2.7-4.7C1386,895.2,1388.6,895.7,1391.1,896.3z M1382.5,917.8c-1.5,2.7-3,5.3-4.5,7.7
			c-2.8,0.3-5.7,0.4-8.5,0.4c-2.8,0-5.7-0.1-8.5-0.4c-1.6-2.4-3.1-4.9-4.6-7.6c-1.4-2.6-2.7-5.3-3.9-8c1.2-2.7,2.5-5.4,3.9-8
			c1.5-2.7,3-5.3,4.5-7.7c2.8-0.3,5.7-0.4,8.5-0.4c2.8,0,5.7,0.1,8.5,0.4c1.6,2.4,3.1,4.9,4.6,7.6c1.4,2.6,2.7,5.3,3.9,8
			C1385.2,912.4,1383.9,915.1,1382.5,917.8z M1388.6,915.1c1,2.7,1.9,5.4,2.6,8c-2.5,0.6-5.1,1.2-7.8,1.6c0.9-1.5,1.8-3.1,2.7-4.8
			C1387,918.4,1387.8,916.7,1388.6,915.1z M1369.4,936.6c-1.8-1.9-3.5-4.1-5.2-6.4c1.7,0.1,3.4,0.1,5.2,0.1c1.8,0,3.5,0,5.2-0.1
			C1372.9,932.5,1371.2,934.7,1369.4,936.6z M1355.4,924.7c-2.7-0.4-5.3-0.9-7.7-1.6c0.7-2.6,1.6-5.3,2.5-7.9
			c0.8,1.6,1.6,3.2,2.5,4.8S1354.5,923.2,1355.4,924.7z M1369.3,882.9c1.8,1.9,3.5,4.1,5.2,6.4c-1.7-0.1-3.4-0.1-5.2-0.1
			c-1.8,0-3.5,0-5.2,0.1C1365.8,887,1367.6,884.9,1369.3,882.9z M1355.4,894.8c-0.9,1.5-1.8,3.1-2.7,4.8c-0.9,1.6-1.7,3.2-2.5,4.8
			c-1-2.7-1.9-5.4-2.6-8C1350.1,895.7,1352.7,895.2,1355.4,894.8z M1338.3,919.9c-6.7-3-11-7-11-10.2s4.3-7.2,11-10.2
			c1.6-0.7,3.4-1.4,5.2-2c1.1,3.9,2.5,8,4.2,12.2c-1.7,4.2-3.1,8.3-4.2,12.2C1341.7,921.3,1339.9,920.7,1338.3,919.9z M1348.4,948.6
			c-2.6-1.6-3.7-7.5-2.8-15.2c0.2-1.9,0.5-3.9,1-5.9c3.7,1,7.7,1.7,12,2.2c2.5,3.7,5.2,7.1,7.8,10c-6.1,6.1-11.9,9.4-15.8,9.4
			C1349.7,949.2,1349,949,1348.4,948.6z M1393.2,933.3c0.9,7.7-0.2,13.6-2.8,15.2c-0.6,0.4-1.3,0.5-2.2,0.5c-3.9,0-9.7-3.3-15.8-9.4
			c2.6-3,5.3-6.3,7.8-10c4.3-0.5,8.3-1.2,12-2.2C1392.6,929.5,1393,931.5,1393.2,933.3z M1400.5,919.9c-1.6,0.7-3.4,1.4-5.2,2
			c-1.1-3.9-2.5-8-4.2-12.2c1.7-4.2,3.1-8.3,4.2-12.2c1.9,0.6,3.6,1.3,5.3,2.1c6.7,3,11,7,11,10.2
			C1411.5,912.9,1407.1,916.9,1400.5,919.9z"/>
		<path class="st50" d="M1350.5,865.9L1350.5,865.9L1350.5,865.9z"/>
		<ellipse class="st50" cx="1369.4" cy="909.8" rx="8.6" ry="9.2"/>
		<path class="st50" d="M1388.2,865.9L1388.2,865.9L1388.2,865.9z"/>
	</g>
	<polygon class="st51" points="1836,826.5 1811.7,1044 1716.7,1044 1690.3,826.3 	"/>
	<polygon class="st52" points="1835,824.8 1834.4,830.5 1690.7,830.3 1690,824.8 	"/>
</g>
<g>
	<path class="st53" d="M1219.3,900c-0.6,0-1.2-0.2-1.8-0.5l-5.7-3.4c-0.9-0.5-0.4-0.6-0.2-0.7c1.2-0.4,1.4-0.5,2.6-1.2
		c0.1-0.1,0.3,0,0.4,0l4.4,2.6c0.2,0.1,0.4,0.1,0.5,0l17.1-9.9c0.2-0.1,0.3-0.3,0.3-0.5v-19.8c0-0.2-0.1-0.4-0.3-0.5l-17.1-9.9
		c-0.2-0.1-0.4-0.1-0.5,0l-17.1,9.9c-0.2,0.1-0.3,0.3-0.3,0.5v19.8c0,0.2,0.1,0.4,0.3,0.5l4.7,2.7c2.5,1.3,4.1-0.2,4.1-1.7v-19.5
		c0-0.3,0.2-0.5,0.5-0.5h2.2c0.3,0,0.5,0.2,0.5,0.5V888c0,3.4-1.8,5.4-5.1,5.4c-1,0-1.8,0-3.9-1.1l-4.5-2.6
		c-1.1-0.6-1.8-1.8-1.8-3.1v-19.8c0-1.3,0.7-2.5,1.8-3.1l17.1-9.9c1.1-0.6,2.5-0.6,3.6,0l17.1,9.9c1.1,0.6,1.8,1.8,1.8,3.1v19.8
		c0,1.3-0.7,2.5-1.8,3.1l-17.1,9.9C1220.5,899.9,1219.9,900,1219.3,900L1219.3,900z M1224.6,886.4c-7.5,0-9.1-3.4-9.1-6.4
		c0-0.3,0.2-0.5,0.5-0.5h2.2c0.3,0,0.5,0.2,0.5,0.4c0.3,2.3,1.3,3.4,5.9,3.4c3.6,0,5.1-0.8,5.1-2.7c0-1.1-0.4-1.9-6-2.5
		c-4.7-0.5-7.6-1.5-7.6-5.2c0-3.5,2.9-5.5,7.8-5.5c5.5,0,8.2,1.9,8.5,6c0,0.1,0,0.3-0.1,0.4c-0.1,0.1-0.2,0.2-0.3,0.2h-2.2
		c-0.2,0-0.4-0.2-0.5-0.4c-0.5-2.4-1.8-3.1-5.4-3.1c-3.9,0-4.4,1.4-4.4,2.4c0,1.2,0.6,1.6,5.9,2.3c5.3,0.7,7.8,1.7,7.8,5.4
		C1233.1,884.3,1230,886.4,1224.6,886.4L1224.6,886.4z"/>
</g>
<g>
	<path class="st54" d="M1262.8,790h67.1v46.5h-67.1V790z"/>
	<path class="st55" d="M1283.4,827.6h-1.8c-0.1-3.1-0.2-6-0.5-8.7h0l-2.8,8.7h-1.4l-2.8-8.7h0c-0.2,2.6-0.3,5.5-0.4,8.7h-1.7
		c0.1-3.9,0.4-7.5,0.8-10.9h2.3l2.6,8h0l2.6-8h2.2C1283,820.7,1283.3,824.3,1283.4,827.6 M1291.3,819.6c-0.7,4-1.7,6.9-2.9,8.8
		c-0.9,1.4-2,2.1-3.1,2.1c-0.3,0-0.7-0.1-1.1-0.3v-1c0.2,0,0.5,0,0.8,0c0.5,0,0.9-0.1,1.3-0.4c0.4-0.4,0.6-0.8,0.6-1.2
		c0-0.3-0.2-0.9-0.5-1.9l-2-6.2h1.8l1.4,4.6c0.3,1.1,0.5,1.8,0.4,2.2c0.8-2.1,1.3-4.4,1.6-6.8L1291.3,819.6L1291.3,819.6
		L1291.3,819.6z"/>
	<path class="st56" d="M1315.4,827.6h-5.2v-10.9h1.7v9.5h3.4V827.6z M1308.9,827.8l-2-1c0.2-0.1,0.3-0.3,0.5-0.5
		c0.8-1,1.3-2.5,1.3-4.4c0-3.6-1.4-5.4-4.2-5.4c-1.4,0-2.5,0.5-3.2,1.4c-0.8,1-1.3,2.5-1.3,4.4c0,1.9,0.4,3.3,1.1,4.2
		c0.7,0.8,1.7,1.2,3.1,1.2c0.5,0,1-0.1,1.4-0.2l2.6,1.5L1308.9,827.8z M1302.5,825.4c-0.4-0.7-0.7-1.8-0.7-3.4
		c0-2.7,0.8-4.1,2.5-4.1c0.9,0,1.5,0.3,1.9,1c0.4,0.7,0.7,1.8,0.7,3.4c0,2.8-0.8,4.1-2.5,4.1
		C1303.5,826.4,1302.9,826.1,1302.5,825.4 M1299.2,824.6c0,0.9-0.3,1.7-1,2.3c-0.7,0.6-1.6,0.9-2.7,0.9c-1.1,0-2.1-0.3-3.1-1
		l0.5-0.9c0.9,0.4,1.6,0.6,2.3,0.6c0.7,0,1.2-0.1,1.5-0.4c0.4-0.3,0.6-0.7,0.6-1.2c0-0.6-0.4-1.2-1.3-1.7c-0.8-0.4-2.3-1.3-2.3-1.3
		c-0.8-0.6-1.2-1.2-1.2-2.3c0-0.9,0.3-1.6,0.9-2.1c0.6-0.5,1.4-0.8,2.4-0.8c1,0,1.9,0.3,2.8,0.8l-0.4,0.9c-0.7-0.3-1.4-0.4-2.1-0.4
		c-0.6,0-1,0.1-1.3,0.4c-0.3,0.3-0.5,0.6-0.5,1c0,0.6,0.5,1.2,1.3,1.7c0.8,0.4,2.3,1.3,2.3,1.3
		C1298.8,822.9,1299.2,823.5,1299.2,824.6"/>
	<path class="st55" d="M1317.6,813.1c-1.1,0-1.9,0.1-2.5,0.4c-0.2,0.1-0.5,0.1-0.5,0.3c0.1,0.1,0.1,0.3,0.2,0.4
		c0.2,0.3,0.4,0.6,0.7,0.8c0.3,0.2,0.6,0.4,0.8,0.6c0.5,0.3,1.1,0.5,1.6,0.8c0.3,0.2,0.6,0.4,0.9,0.6c0.1,0.1,0.2,0.3,0.4,0.3v0
		c-0.1-0.1-0.1-0.3-0.2-0.4l-0.4-0.4c-0.4-0.5-0.9-1-1.4-1.3c-0.4-0.3-1.3-0.7-1.5-1.2l0,0c0.3,0,0.6-0.1,0.9-0.2
		c0.4-0.1,0.9-0.1,1.3-0.2c0.2-0.1,0.4-0.1,0.6-0.2v-0.1c-0.2-0.2-0.4-0.6-0.7-0.8c-0.7-0.6-1.4-1.1-2.2-1.6
		c-0.4-0.3-0.9-0.4-1.4-0.7c-0.2-0.1-0.4-0.1-0.5-0.2c-0.2-0.3-0.4-0.7-0.5-1c-0.4-0.7-0.7-1.5-1.1-2.3c-0.2-0.5-0.4-1-0.7-1.5
		c-1.4-2.2-2.8-3.6-5.1-4.9c-0.5-0.3-1.1-0.4-1.7-0.5l-1-0.1c-0.2-0.1-0.4-0.3-0.6-0.5c-0.7-0.5-2.7-1.5-3.2-0.1
		c-0.4,0.9,0.5,1.7,0.8,2.1c0.2,0.3,0.5,0.6,0.7,1c0.1,0.2,0.1,0.5,0.2,0.7c0.2,0.6,0.4,1.2,0.7,1.8c0.1,0.3,0.3,0.6,0.5,0.8
		c0.1,0.1,0.3,0.2,0.3,0.4c-0.2,0.3-0.2,0.7-0.3,1c-0.5,1.5-0.3,3.3,0.4,4.4c0.2,0.3,0.7,1.1,1.4,0.8c0.6-0.2,0.5-1,0.6-1.6
		c0-0.2,0-0.3,0.1-0.4v0c0.2,0.4,0.4,0.7,0.5,1.1c0.4,0.6,1.1,1.3,1.7,1.8c0.3,0.2,0.6,0.6,1,0.8v0h0c-0.1-0.1-0.2-0.2-0.3-0.3
		c-0.2-0.2-0.5-0.5-0.7-0.8c-0.6-0.7-1-1.5-1.5-2.4c-0.2-0.4-0.4-0.9-0.6-1.3c-0.1-0.2-0.1-0.4-0.2-0.5c-0.2,0.3-0.5,0.5-0.6,0.9
		c-0.2,0.6-0.3,1.3-0.4,2l-0.1,0c-0.4-0.1-0.6-0.5-0.7-0.9c-0.4-0.9-0.5-2.4-0.1-3.5c0.1-0.3,0.5-1.1,0.3-1.4
		c-0.1-0.3-0.3-0.4-0.5-0.6c-0.2-0.2-0.4-0.6-0.5-0.8c-0.3-0.7-0.5-1.5-0.8-2.3c-0.2-0.3-0.4-0.7-0.7-1c-0.3-0.4-0.5-0.6-0.7-1
		c-0.1-0.1-0.2-0.4-0.1-0.5c0-0.1,0.1-0.1,0.2-0.2c0.2-0.1,0.7,0,0.8,0.1c0.5,0.2,0.9,0.4,1.3,0.7c0.2,0.1,0.4,0.4,0.6,0.4h0.3
		c0.4,0.1,0.9,0,1.3,0.1c0.7,0.2,1.3,0.6,1.9,0.9c1.7,1.1,3.1,2.6,4.1,4.5c0.2,0.3,0.2,0.6,0.4,0.9c0.3,0.6,0.6,1.3,0.9,1.9
		c0.3,0.6,0.5,1.2,0.9,1.8c0.2,0.3,1,0.4,1.3,0.6c0.3,0.1,0.7,0.2,0.9,0.4c0.4,0.3,0.9,0.6,1.3,0.9
		C1316.9,812.5,1317.6,812.8,1317.6,813.1 M1304.2,801.7c-0.2,0-0.4,0-0.5,0.1v0h0c0.1,0.2,0.3,0.4,0.4,0.5c0.1,0.2,0.2,0.4,0.3,0.6
		l0,0c0.2-0.1,0.3-0.3,0.3-0.7c-0.1-0.1-0.1-0.2-0.2-0.3C1304.5,801.9,1304.3,801.8,1304.2,801.7"/>
	<path class="st56" d="M1318.9,827.6h0.3v-1.3h-0.4l-0.3,0.9l-0.4-0.9h-0.4v1.3h0.3v-1h0l0.4,1h0.2l0.4-1V827.6L1318.9,827.6z
		 M1316.7,827.6h0.3v-1.1h0.4v-0.2h-1.1v0.2h0.4L1316.7,827.6L1316.7,827.6z"/>
</g>
<g>
	<path class="st57" d="M1507.3,820.2c0,0-0.1,0.2-0.1,0.3c0,0.7,0,2.5,0,3.7c0,0,0,0.1,0.1,0.1c0.1,0,0.5,0,0.8,0
		c0.4,0,0.7-0.1,0.8-0.2c0.4-0.3,0.5-1,0.5-1.7c0-1.7-0.7-2.3-1.6-2.3C1507.7,820.1,1507.5,820.1,1507.3,820.2L1507.3,820.2z
		 M1509.9,827.8c0-1.7-0.7-2.6-2-2.6c-0.1,0-0.5,0-0.6,0c0,0-0.1,0.1-0.1,0.1c0,1.2,0,3.1,0,3.9c0,0.3,0.2,0.8,0.3,0.9
		c0.2,0.2,0.6,0.2,0.8,0.2C1509.2,830.3,1509.9,829.6,1509.9,827.8L1509.9,827.8z M1505.3,819.2c0.1,0,0.4,0.1,1.1,0.1
		c0.7,0,1.3,0,2,0c0.8,0,2,0.5,2,2.8c0,1.1-0.4,2-1,2.4c0,0,0,0.1,0,0.1c0.8,0.4,1.5,1.2,1.5,2.9c0,1.6-0.6,2.7-1.4,3.3
		c-0.5,0.4-1.2,0.5-1.8,0.5c-0.5,0-1.8-0.1-2.6-0.1c-0.1-0.1,0.1-0.7,0.1-0.8c0.2,0,0.3,0,0.5-0.1c0.3-0.1,0.3-0.3,0.3-1
		c0-0.6,0-2.7,0-4.2c0-2.1,0-3.5,0-4.2c0-0.5-0.1-0.7-0.3-0.8c-0.2-0.1-0.4-0.1-0.7-0.2C1505.1,819.9,1505.3,819.3,1505.3,819.2
		L1505.3,819.2z M1499.7,829.9c0.2,0.3,0.7,0.5,1.1,0.5c0.5,0,1.1-0.2,1.6-1c0.5-0.8,0.9-2.1,0.9-4.1c0-1.9-0.4-3.5-1.3-4.4
		c-0.5-0.5-1.1-0.8-1.8-0.8c-0.2,0-0.4,0-0.5,0.1c0,0-0.1,0.2-0.1,0.3c0,0.3,0,3,0,4.5c0,1.6,0,3.8,0,4.1
		C1499.5,829.3,1499.6,829.7,1499.7,829.9L1499.7,829.9z M1497.5,819.2c0.2,0,0.9,0.1,1.2,0.1c0.6,0,1.1-0.1,2.2-0.1
		c1,0,1.8,0.5,2.4,1.3c0.7,1.1,1.1,2.6,1.1,4.4c0,2.6-0.7,4.1-1.3,4.9c-0.7,0.9-1.5,1.4-2.8,1.4c-0.7,0-1.8,0-2.7-0.1h0
		c0-0.2,0.1-0.8,0.2-0.8c0.3-0.1,0.3-0.1,0.4-0.2c0.2-0.1,0.2-0.3,0.3-1c0-1.2,0-2.6,0-4.2c0-1.1,0-3.4,0-4.1c0-0.6-0.2-0.8-0.5-0.9
		c-0.1-0.1-0.3-0.1-0.6-0.2C1497.3,819.9,1497.5,819.3,1497.5,819.2L1497.5,819.2z"/>
	<path class="st58" d="M1485.7,830.5c-0.2-0.1-0.4-0.1-0.6-0.3c0,0-0.1-0.2-0.1-0.3c0-0.6,0-2.3,0-3.5c0-0.9-0.1-1.7-0.3-2.3
		c-0.3-0.7-0.6-1-1.1-1c-0.4,0-1,0.5-1.5,1.2c0,0-0.1,0.1-0.1-0.1c0-0.2,0-0.6,0-0.8c0-0.2-0.1-0.4-0.1-0.4
		c-0.3,0.3-1.2,0.6-1.5,0.7c-0.2,0.1-0.3,0.5,0,0.6h0c0.3,0.1,0.4,0.3,0.6,0.4c0.1,0.1,0.1,0.3,0.1,0.5c0,1.3,0,3.2,0,4.3
		c0,0.4-0.1,0.6-0.3,0.6l0,0c-0.1,0.1-0.2,0.1-0.4,0.1c-0.1,0.1-0.1,0.6,0,0.8c0.1,0,0.7-0.1,1.1-0.1c0.6,0,1,0.1,1.1,0.1
		c0.1-0.1,0.1-0.6,0-0.8c-0.2,0-0.3-0.1-0.4-0.1c-0.2-0.1-0.2-0.2-0.2-0.6c0-0.9,0-2.8,0-4.1c0-0.4,0.1-0.5,0.1-0.6
		c0.2-0.3,0.6-0.6,0.9-0.6c0.3,0,0.5,0.2,0.7,0.4c0.2,0.3,0.3,0.8,0.3,1.1c0,0.7,0,2.2,0,3.5c0,0.7,0,0.9-0.2,0.9
		c-0.1,0.1-0.2,0.1-0.4,0.2c-0.1,0.1,0,0.7,0,0.8c0.3,0,0.6-0.1,1.1-0.1c0.6,0,1,0.1,1.1,0.1
		C1485.7,831.2,1485.8,830.7,1485.7,830.5L1485.7,830.5z M1488.4,824c-0.5,0-0.8,0.7-0.8,1.8c0,1.1,0.3,2.4,1.1,2.4
		c0.1,0,0.4-0.1,0.5-0.3c0.2-0.3,0.3-0.9,0.3-1.6C1489.5,824.9,1489.1,824,1488.4,824L1488.4,824z M1488.4,831.6
		c-0.2,0-0.3,0.1-0.4,0.2c-0.4,0.5-0.6,0.9-0.6,1.4c0,0.5,0.1,0.9,0.3,1.2c0.3,0.4,0.7,0.6,1.2,0.6c1,0,1.4-0.9,1.4-1.9
		c0-0.7-0.2-1.1-0.6-1.3C1489.4,831.7,1488.9,831.6,1488.4,831.6L1488.4,831.6z M1488.4,836c-0.6,0-1-0.2-1.4-0.7
		c-0.4-0.5-0.5-1.2-0.5-1.7c0-0.1,0-0.5,0.2-0.9c0.1-0.2,0.3-0.6,0.9-1.3c0,0,0,0,0-0.1c0,0,0-0.1,0-0.1c-0.5-0.3-0.6-0.8-0.6-1.1v0
		c0-0.1,0-0.2,0.1-0.3c0.1-0.1,0.2-0.2,0.3-0.3c0.2-0.2,0.3-0.4,0.4-0.5c0,0,0-0.1,0-0.1s0-0.1,0-0.1c-0.7-0.4-1-1.3-1-2.6
		c0-0.9,0.2-1.7,0.6-2.2c0.3-0.4,1-0.8,1.4-0.8h0c0.5,0,0.7,0.2,1.1,0.4c0.2,0.1,0.4,0.2,0.6,0.2c0.4,0,0.5-0.2,0.7-0.4
		c0,0,0,0.1,0,0.3c0,0.2,0,0.5-0.1,0.8c-0.1,0.2-0.3,0.3-0.4,0.3h0c-0.2,0-0.3-0.1-0.3-0.1l0,0c0,0,0,0.1,0,0.1l0,0
		c0,0.2,0.1,0.6,0.1,0.7c0,1.4-0.3,2-0.7,2.5c-0.3,0.4-0.7,0.7-1.1,0.8c0,0,0,0-0.1,0c0,0-0.1,0-0.1,0h0c-0.1,0-0.3,0.2-0.3,0.5
		c0,0.3,0.1,0.6,0.5,0.6c0.1,0,0.2,0,0.3,0c0.6,0.1,1.2,0.2,1.6,0.3c0.4,0.3,0.7,1,0.7,1.8c0,1.3-0.5,2.4-1.4,3.2
		C1489.3,835.8,1488.9,836,1488.4,836L1488.4,836z M1494,824.1c-0.2,0-0.4,0.1-0.5,0.3c-0.4,0.4-0.6,1.2-0.6,2.4
		c0,2.2,0.6,3.8,1.6,3.8c0.3,0,0.5-0.1,0.7-0.4c0.3-0.4,0.4-1.2,0.4-2.4C1495.5,825.6,1494.9,824.1,1494,824.1L1494,824.1z
		 M1494.2,831.4c-1.7,0-2.3-2.1-2.3-4.1c0-1.4,0.3-2.5,1-3.2c0.5-0.5,1-0.8,1.5-0.8c1.3,0,2.2,1.6,2.2,3.9c0,1.6-0.4,2.8-1,3.5
		C1495.2,831,1494.6,831.4,1494.2,831.4L1494.2,831.4L1494.2,831.4z M1476.8,824.1c-0.2,0-0.4,0.1-0.5,0.3c-0.4,0.4-0.6,1.2-0.6,2.4
		c0,2.2,0.6,3.8,1.6,3.8c0.3,0,0.5-0.1,0.7-0.4c0.3-0.4,0.4-1.2,0.4-2.4C1478.3,825.6,1477.7,824.1,1476.8,824.1L1476.8,824.1z
		 M1477,831.4c-1.7,0-2.3-2.1-2.3-4.1c0-1.4,0.3-2.5,1-3.2c0.5-0.5,1-0.8,1.5-0.8c1.3,0,2.2,1.6,2.2,3.9c0,1.6-0.4,2.8-1,3.5
		C1478,831,1477.4,831.4,1477,831.4L1477,831.4z M1465.8,831.2c0-0.1,0-0.2,0-0.4c0-0.1,0-0.2,0-0.3c0.2-0.1,0.3-0.1,0.4-0.2
		c0.2-0.1,0.3-0.3,0.3-0.7c0-1,0-3,0-4.3v0c0-0.2,0-0.3-0.1-0.5c-0.2-0.2-0.3-0.3-0.6-0.4c-0.1-0.1-0.1-0.1-0.1-0.2
		c0-0.1,0.1-0.2,0.2-0.3c0.3-0.1,1.2-0.4,1.5-0.7c0,0,0,0.1,0,0.3l0,0.2c0,0.2,0,0.4,0,0.6c0,0.1,0,0.1,0.1,0.1c0,0,0,0,0.1,0
		c0.6-0.9,1.2-1.2,1.5-1.2c0.5,0,0.8,0.4,1.1,1.2c0,0.1,0,0.1,0.1,0.1c0,0,0,0,0.1-0.1c0.6-0.8,1.1-1.2,1.5-1.2
		c0.9,0,1.4,1.2,1.4,3.2c0,0.6,0,1.3,0,2c0,0.6,0,1.1,0,1.5c0,0.1,0.1,0.4,0.2,0.4c0.1,0.1,0.3,0.2,0.6,0.2h0c0,0.1,0,0.6-0.1,0.6
		c-0.1,0-0.1,0-0.2,0c-0.2,0-0.5,0-0.7,0c-0.6,0-0.9,0-1.2,0.1c0-0.1,0-0.5,0-0.6c0.2-0.1,0.3-0.1,0.4-0.2c0.2-0.1,0.2-0.3,0.3-0.7
		c0-0.3,0-3.1,0-3.8c-0.1-0.7-0.4-1.5-1-1.5c-0.2,0-0.6,0.2-1,0.7c0,0,0,0.1,0,0.2v0c0,0.4,0,0.8,0,1.4v1.1c0,0.8,0,1.5,0,2
		c0,0.4,0.1,0.5,0.2,0.5c0.1,0,0.1,0,0.1,0.1c0.1,0,0.2,0.1,0.3,0.1c0,0.1,0,0.3,0,0.5c0,0.1,0,0.2,0,0.2c-0.3,0-0.7,0-1.2,0
		c-0.1,0-0.4,0-0.6,0c-0.2,0-0.3,0-0.4,0c0,0,0-0.2,0-0.3c0-0.2,0-0.3,0-0.3c0,0,0.1,0,0.1,0c0.1,0,0.2-0.1,0.3-0.1
		c0.2-0.1,0.2-0.2,0.2-0.6c0-0.9,0.1-3.3,0-3.9c-0.1-1-0.4-1.5-1-1.5c-0.3,0-0.7,0.3-1,0.7c0,0.1-0.1,0.2-0.1,0.4v1
		c0,1.2,0,2.8,0,3.4c0,0.2,0,0.4,0.3,0.5c0,0,0.1,0.1,0.2,0.1l0.2,0.1c0,0.1,0,0.5,0,0.6c-0.1,0-0.2,0-0.4,0c-0.2,0-0.5,0-0.8,0
		c-0.3,0-0.6,0-0.8,0C1466.1,831.2,1465.9,831.2,1465.8,831.2L1465.8,831.2z"/>
	<path class="st59" d="M1460.7,835.3l-0.4-0.2c0,0,0-3.6-0.7-3.8c-0.5-1,0.1-42.1,1.8-0.1c0,0-0.6,0.5-0.7,1.4
		C1460.6,833.5,1460.7,835.3,1460.7,835.3L1460.7,835.3z"/>
	<path class="st60" d="M1460.7,835.3l-0.4-0.2c0,0,0-3.6-0.7-3.8c-0.5-1,0.1-42.1,1.8-0.1c0,0-0.6,0.5-0.7,1.4
		C1460.6,833.5,1460.7,835.3,1460.7,835.3L1460.7,835.3z"/>
	<path class="st59" d="M1460.9,831.9c0,0,3.5-4,2.7-12.4c-0.8-6.1-2.7-8.1-2.9-8.9c-0.2-0.5-0.4-1.5-0.4-1.5l0.1,17
		C1460.4,826.1,1460.1,831.2,1460.9,831.9"/>
	<path class="st61" d="M1460.9,831.9c0,0,3.5-4,2.7-12.4c-0.8-6.1-2.7-8.1-2.9-8.9c-0.2-0.5-0.4-1.5-0.4-1.5l0.1,17
		C1460.4,826.1,1460.1,831.2,1460.9,831.9"/>
	<path class="st59" d="M1460.1,832.1c0,0-3.3-3.9-3.1-10.9c0.2-6.9,2.5-10.3,3-10.9c0.3-0.5,0.3-0.8,0.3-1.3
		c0.2,0.8,0.2,11.5,0.2,12.8C1460.6,826.6,1460.3,831.2,1460.1,832.1z"/>
	<path class="st62" d="M1460.1,832.1c0,0-3.3-3.9-3.1-10.9c0.2-6.9,2.5-10.3,3-10.9c0.3-0.5,0.3-0.8,0.3-1.3
		c0.2,0.8,0.2,11.5,0.2,12.8C1460.6,826.6,1460.3,831.2,1460.1,832.1z"/>
</g>
<g>
	<g>
		<polygon class="st63" points="1284.3,933.6 1270.8,956.8 1268.5,955.5 1282,932.3 		"/>
		<ellipse class="st63" cx="1270.7" cy="937.9" rx="4.1" ry="4.1"/>
		<ellipse class="st63" cx="1281.4" cy="949.2" rx="4.6" ry="4.6"/>
	</g>
</g>
<polygon class="st63" points="1262.8,928 1243.4,940.6 1243.4,945.9 1262.8,958.7 1262.8,951.8 1249.8,943.4 1262.8,934.9 "/>
<g>
	<g>
		<g>
			<polygon class="st64" points="1370.7,810.2 1369.1,809.3 1386.9,778.2 1388.5,779.2 			"/>
		</g>
	</g>
	<g>
		<g>
			<rect x="1368.8" y="806.8" class="st64" width="35.6" height="1.9"/>
		</g>
	</g>
	<g>
		<g>
			<polygon class="st64" points="1387.3,818.2 1369.5,807.8 1370.4,806.2 1388.2,816.6 			"/>
		</g>
	</g>
	<g>
		<g>
			<polygon class="st64" points="1402.7,791.2 1384.9,780.8 1385.9,779.2 1403.7,789.6 			"/>
		</g>
	</g>
	<g>
		<g>
			<polygon class="st64" points="1370.4,791.2 1369.5,789.6 1387.3,779.2 1388.2,780.8 			"/>
		</g>
	</g>
	<g>
		<g>
			<polygon class="st64" points="1402.4,810.2 1384.6,779.2 1386.2,778.2 1404,809.3 			"/>
		</g>
	</g>
	<g>
		<g>
			<rect x="1370.2" y="788.4" class="st64" width="1.8" height="20.7"/>
		</g>
	</g>
	<g>
		<g>
			<rect x="1401.1" y="788.4" class="st64" width="1.8" height="20.7"/>
		</g>
	</g>
	<g>
		<g>
			<polygon class="st64" points="1387,817.4 1386.2,816 1401.6,807 1402.5,808.4 			"/>
		</g>
	</g>
	<path class="st64" d="M1405.4,809.7c-1.1,1.9-3.4,2.5-5.3,1.4c-1.9-1.1-2.5-3.5-1.4-5.3s3.4-2.5,5.3-1.4
		C1405.9,805.4,1406.5,807.8,1405.4,809.7"/>
	<path class="st64" d="M1374.5,791.7c-1.1,1.9-3.4,2.5-5.3,1.4s-2.5-3.5-1.4-5.3c1.1-1.9,3.4-2.5,5.3-1.4
		C1374.9,787.4,1375.5,789.8,1374.5,791.7"/>
	<path class="st64" d="M1367.7,809.7c-1.1-1.9-0.4-4.3,1.4-5.3c1.9-1.1,4.2-0.4,5.3,1.4c1.1,1.9,0.4,4.3-1.4,5.3
		C1371.2,812.2,1368.8,811.5,1367.7,809.7"/>
	<path class="st64" d="M1398.7,791.7c-1.1-1.9-0.4-4.3,1.4-5.3c1.9-1.1,4.2-0.4,5.3,1.4c1.1,1.9,0.4,4.3-1.4,5.3
		C1402.1,794.2,1399.8,793.5,1398.7,791.7"/>
	<path class="st64" d="M1386.6,820.6c-2.1,0-3.9-1.7-3.9-3.9s1.7-3.9,3.9-3.9c2.1,0,3.9,1.7,3.9,3.9
		C1390.5,818.9,1388.7,820.6,1386.6,820.6"/>
	<path class="st64" d="M1386.6,784.6c-2.1,0-3.9-1.7-3.9-3.9c0-2.2,1.7-3.9,3.9-3.9c2.1,0,3.9,1.7,3.9,3.9
		C1390.5,782.9,1388.7,784.6,1386.6,784.6"/>
</g>
<g id="Page-1">
	<g id="_x30_02---API">
		<path id="Shape" class="st65" d="M1460.3,903.9c-1.6,4.3-5.8,7.2-10.4,7.2c-4.6,0-8.8-2.9-10.4-7.2l-2.3-2.4l-3.3,2.1l-2.8,1.2
			c-0.3,0.1-0.5,0.5-0.4,0.9l2.1,5c0.1,0.3,0.5,0.5,0.9,0.4l3.5-1.4c1,1.5,2.3,2.8,3.8,3.8l-1.4,3.5c-0.1,0.2-0.1,0.4,0,0.5
			c0.1,0.2,0.2,0.3,0.4,0.4l5,2.1c0.2,0.1,0.4,0.1,0.5,0s0.3-0.2,0.4-0.4l1.4-3.5c1.8,0.3,3.6,0.3,5.4,0l1.4,3.5
			c0.1,0.2,0.2,0.3,0.4,0.4c0.2,0.1,0.4,0.1,0.5,0l5-2.1c0.2-0.1,0.3-0.2,0.4-0.4c0.1-0.2,0.1-0.4,0-0.5l-1.4-3.5
			c1.5-1,2.8-2.3,3.8-3.8l3.5,1.4c0.2,0.1,0.4,0.1,0.5,0c0.2-0.1,0.3-0.2,0.4-0.4l2.1-5c0.1-0.2,0.1-0.4,0-0.5s-0.2-0.3-0.4-0.4
			l-2-0.9h0l-3.2-2.4L1460.3,903.9z"/>
		<path id="Shape_1_" class="st66" d="M1473,897.2c0,3.7-3,6.8-6.8,6.8h-29.9c-5.3,0-9.6-4.3-9.6-9.6c0-5.3,4.3-9.6,9.6-9.6
			c0.2,0,0.5,0,0.7,0c1.6-4.3,5.8-7.2,10.4-7.2c4.6,0,8.8,2.9,10.4,7.2c0.1,0,0.2,0,0.3,0c3.5,0,6.7,2.2,7.9,5.6h0.1
			C1470,890.4,1473,893.4,1473,897.2L1473,897.2z"/>
		<path id="Shape_2_" class="st67" d="M1431.4,899.1c-0.2,0-0.5-0.1-0.6-0.3c-1.4-1.7-1.9-4-1.4-6.1c0.5-2.1,1.9-3.9,3.9-4.9
			c0.4-0.2,0.9,0,1.1,0.4s0,0.9-0.4,1.1c-1.9,0.9-3.2,2.9-3.2,5c0,1.3,0.4,2.5,1.2,3.5c0.2,0.2,0.2,0.6,0.1,0.8
			S1431.7,899.1,1431.4,899.1z"/>
		<g>
			<path id="Shape_3_" class="st68" d="M1439.5,899.9c-0.3,0-0.5-0.1-0.6-0.3c-0.1-0.2-0.2-0.5-0.1-0.7l3.2-9.6
				c0.1-0.4,0.6-0.6,1-0.5s0.6,0.6,0.5,1l-3.2,9.6C1440.2,899.7,1439.9,899.9,1439.5,899.9L1439.5,899.9z"/>
			<path id="Shape_4_" class="st68" d="M1445.9,899.9c-0.3,0-0.6-0.2-0.8-0.5l-3.2-9.6c-0.1-0.4,0.1-0.9,0.5-1s0.9,0.1,1,0.5
				l3.2,9.6c0.1,0.2,0,0.5-0.1,0.7C1446.4,899.8,1446.2,899.9,1445.9,899.9L1445.9,899.9z"/>
			<path id="Shape_5_" class="st68" d="M1444.6,896h-3.7c-0.4,0-0.8-0.4-0.8-0.8s0.4-0.8,0.8-0.8h3.7c0.4,0,0.8,0.4,0.8,0.8
				S1445,896,1444.6,896z"/>
			<path id="Shape_6_" class="st68" d="M1448.3,899.9c-0.4,0-0.8-0.4-0.8-0.8v-9.6c0-0.4,0.4-0.8,0.8-0.8s0.8,0.4,0.8,0.8v9.6
				C1449.1,899.6,1448.7,899.9,1448.3,899.9z"/>
			<path id="Shape_7_" class="st68" d="M1451.5,895.2h-3.2c-0.4,0-0.8-0.4-0.8-0.8v-4.8c0-0.4,0.4-0.8,0.8-0.8h3.2
				c1.8,0,3.2,1.4,3.2,3.2C1454.7,893.7,1453.2,895.2,1451.5,895.2z M1449.1,893.6h2.4c0.9,0,1.6-0.7,1.6-1.6c0-0.9-0.7-1.6-1.6-1.6
				h-2.4V893.6z"/>
			<path id="Shape_8_" class="st68" d="M1457.9,899.9c-0.4,0-0.8-0.4-0.8-0.8v-9.6c0-0.4,0.4-0.8,0.8-0.8c0.4,0,0.8,0.4,0.8,0.8v9.6
				C1458.7,899.6,1458.3,899.9,1457.9,899.9z"/>
			<path id="Shape_9_" class="st68" d="M1460.3,890.4h-4.8c-0.4,0-0.8-0.4-0.8-0.8s0.4-0.8,0.8-0.8h4.8c0.4,0,0.8,0.4,0.8,0.8
				S1460.7,890.4,1460.3,890.4z"/>
			<path id="Shape_10_" class="st68" d="M1460.3,899.9h-4.8c-0.4,0-0.8-0.4-0.8-0.8s0.4-0.8,0.8-0.8h4.8c0.4,0,0.8,0.4,0.8,0.8
				S1460.7,899.9,1460.3,899.9z"/>
		</g>
		<path id="Shape_11_" class="st67" d="M1441.1,886.4c-0.3,0-0.5-0.1-0.6-0.3c-0.1-0.2-0.2-0.5-0.1-0.7c1.8-5.3,6.1-5.3,6.3-5.3
			c0.4,0,0.8,0.4,0.8,0.8c0,0.4-0.4,0.8-0.8,0.8c-0.2,0-3.4,0.1-4.8,4.2C1441.8,886.2,1441.5,886.4,1441.1,886.4L1441.1,886.4z"/>
	</g>
</g>
<line class="st54" x1="1462" y1="1179.7" x2="1461.3" y2="1179.7"/>
</svg>
